<svg width="152" height="140" viewBox="0 0 152 140" fill="none" xmlns="http://www.w3.org/2000/svg">
<g id="Image">
<g id="Vector">
<path d="M26 56.4891H124V1H26V57" fill="white"/>
<path d="M26 56.4891H124V1H26V57" stroke="black" stroke-width="0.429688" stroke-miterlimit="10"/>
</g>
<path id="Vector_2" d="M138.922 1V10.8746" stroke="black" stroke-width="0.429688" stroke-miterlimit="10"/>
<path id="Vector_3" d="M138.922 30.4037V56.8609" stroke="black" stroke-width="0.429688" stroke-miterlimit="10"/>
<path id="Vector_4" d="M49.9877 4.2887H29.6729V8.94477H49.9877V4.2887Z" fill="#E67E22" stroke="black" stroke-width="0.429688" stroke-miterlimit="10"/>
<path id="Vector_5" d="M91.4875 13.2173H29.6729V17.8734H91.4875V13.2173Z" fill="#E67E22" stroke="black" stroke-width="0.429688" stroke-miterlimit="10"/>
<path id="Vector_6" d="M36 31.7338V20H88V43H36.3052" stroke="black" stroke-width="0.429688" stroke-miterlimit="10"/>
<path id="Vector_7" d="M133.957 4.2887H123.8V8.94477H133.957V4.2887Z" stroke="black" stroke-width="0.429688" stroke-miterlimit="10"/>
<path id="Vector_8" d="M29.6729 46.8022H91.4875" stroke="black" stroke-width="0.429688" stroke-miterlimit="10"/>
<path id="Vector_9" d="M29.6729 49.7916H75.4949" stroke="black" stroke-width="0.429688" stroke-miterlimit="10"/>
<path id="Vector_10" d="M29.6729 52.7827H82.4928" stroke="black" stroke-width="0.429688" stroke-miterlimit="10"/>
<path id="Vector_11" d="M135.971 33.5977H94.2568V53.531H135.971V33.5977Z" stroke="black" stroke-width="0.429688" stroke-miterlimit="10"/>
<path id="Vector_12" d="M122.49 38.9263H107.735V48.2023H122.49V38.9263Z" stroke="black" stroke-width="0.429688" stroke-linecap="round" stroke-linejoin="round"/>
<path id="Vector_13" d="M107.735 48.2023H117.506L112.619 44.2153L107.735 48.2023Z" stroke="black" stroke-width="0.429688" stroke-linecap="round" stroke-linejoin="round"/>
<path id="Vector_14" d="M119.227 41.5579L114.279 45.569L117.506 48.2023H122.49V44.2515L119.227 41.5579Z" stroke="black" stroke-width="0.429688" stroke-linecap="round" stroke-linejoin="round"/>
<path id="Vector_15" d="M111.737 42.2735C112.224 42.2735 112.619 41.9531 112.619 41.5579C112.619 41.1628 112.224 40.8424 111.737 40.8424C111.249 40.8424 110.854 41.1628 110.854 41.5579C110.854 41.9531 111.249 42.2735 111.737 42.2735Z" stroke="black" stroke-width="0.429688" stroke-linecap="round" stroke-linejoin="round"/>
<path id="Vector_16" d="M67.9582 26.8948H53.2026V36.1709H67.9582V26.8948Z" stroke="black" stroke-width="0.429688" stroke-linecap="round" stroke-linejoin="round"/>
<path id="Vector_17" d="M53.2026 36.1726H62.9739L58.0893 32.1839L53.2026 36.1726Z" stroke="black" stroke-width="0.429688" stroke-linecap="round" stroke-linejoin="round"/>
<path id="Vector_18" d="M64.6943 29.5265L59.7461 33.5375L62.9735 36.1726H67.9599V32.2217L64.6943 29.5265Z" stroke="black" stroke-width="0.429688" stroke-linecap="round" stroke-linejoin="round"/>
<path id="Vector_19" d="M57.2045 30.242C57.692 30.242 58.0872 29.9216 58.0872 29.5265C58.0872 29.1313 57.692 28.8109 57.2045 28.8109C56.717 28.8109 56.3218 29.1313 56.3218 29.5265C56.3218 29.9216 56.717 30.242 57.2045 30.242Z" stroke="black" stroke-width="0.429688" stroke-linecap="round" stroke-linejoin="round"/>
<path id="Vector_20" d="M142.028 34.4594L142.665 42.3715C142.67 42.4435 142.702 42.5127 142.756 42.5701C142.81 42.6276 142.883 42.6706 142.968 42.6939C143.052 42.7172 143.143 42.7195 143.229 42.7007C143.315 42.6819 143.392 42.6427 143.45 42.5882L146.245 40.0082C146.318 39.9409 146.419 39.8979 146.529 39.8878L150.599 39.4922C150.689 39.4845 150.775 39.4546 150.844 39.4066C150.913 39.3585 150.962 39.2945 150.985 39.2232C151.008 39.1518 151.004 39.0764 150.973 39.0071C150.942 38.9378 150.885 38.8778 150.811 38.8352L142.748 34.143C142.679 34.1009 142.596 34.0758 142.51 34.0706C142.424 34.0655 142.338 34.0805 142.263 34.1138C142.187 34.1472 142.124 34.1975 142.083 34.2588C142.041 34.32 142.022 34.3897 142.028 34.4594Z" fill="white" stroke="black" stroke-width="0.429688" stroke-miterlimit="10"/>
<path id="Vector_21" d="M141.445 135.022L124.723 76.6531" stroke="black" stroke-width="0.429688" stroke-miterlimit="10"/>
<path id="Vector_22" d="M99.765 64.6491H69.4434V68.3575H99.765V64.6491Z" fill="black"/>
<path id="Vector_23" d="M101.333 68.3592L112.677 47.3217L108.484 45.8356L96.3403 68.3592H101.333Z" fill="black"/>
<path id="Vector_24" d="M124.723 76.6772L122.654 68.3334H67.958L70.6061 76.6772H124.723Z" stroke="black" stroke-width="0.429688" stroke-miterlimit="10"/>
<path id="Vector_25" d="M79.2256 135.022L95.9481 76.6531" stroke="black" stroke-width="0.429688" stroke-miterlimit="10"/>
<path id="Vector_26" d="M131.952 128.888L105.691 127.987L103.145 124.617C102.868 124.793 102.548 124.919 102.207 124.987L94.1928 126.589C94.021 126.623 93.847 126.649 93.6751 126.676L100.923 132.54L100.525 134.21C100.425 134.629 100.458 135.061 100.62 135.467C100.782 135.873 101.069 136.239 101.452 136.531C101.836 136.823 102.305 137.032 102.815 137.137C103.325 137.242 103.86 137.241 104.369 137.134L132.262 131.25C133.904 130.897 133.647 128.947 131.952 128.888ZM77.3451 136.881L60.6565 125.329L62.5216 121.121H52.814C52.1908 121.122 51.5813 120.972 51.0635 120.691L50.4163 124.008H50.4715L48.5618 125.355C48.165 125.635 47.8621 125.992 47.6814 126.393C47.5007 126.794 47.448 127.225 47.5283 127.646C47.6086 128.068 47.8192 128.466 48.1405 128.804C48.4618 129.142 48.8834 129.408 49.366 129.578L75.8004 138.887C77.3536 139.44 78.6373 137.769 77.3451 136.881ZM73.3178 61.4L61.3737 61.228C61.2506 61.2279 61.1296 61.2547 61.0236 61.3054L38.2685 66.3106L35.0242 47.7345L23.4111 49.716L30.0144 68.1201L30.8993 70.5832C31.0967 71.1328 31.4373 71.6417 31.898 72.0755C32.3588 72.5094 32.929 72.858 33.5701 73.098C34.2113 73.338 34.9085 73.4637 35.6147 73.4666C36.3209 73.4696 37.0197 73.3497 37.6638 73.115L39.3507 72.501L42.2407 71.4896L61.1997 64.859L64.0324 67.8483C64.1187 67.9396 64.2377 68.007 64.3731 68.0413C64.5085 68.0756 64.6537 68.0751 64.7887 68.0398C64.9237 68.0046 65.042 67.9364 65.1273 67.8445C65.2127 67.7526 65.2608 67.6416 65.2652 67.5267L65.3501 65.3922C65.3546 65.2828 65.3987 65.1769 65.4767 65.0876C65.5548 64.9983 65.6635 64.9296 65.7893 64.8899L73.5512 62.4733C73.697 62.4253 73.818 62.3383 73.8942 62.2267C73.9704 62.1151 73.997 61.9858 73.9697 61.8602C73.9424 61.7346 73.8628 61.6204 73.7441 61.5366C73.6255 61.4529 73.475 61.4047 73.3178 61.4Z" fill="white" stroke="black" stroke-width="0.429688" stroke-miterlimit="10"/>
<path id="Vector_27" d="M66.3158 75.0604L47.8831 69.5219L42.241 71.4948L39.351 72.5062L37.6641 73.1202C37.0199 73.3549 36.3212 73.4748 35.615 73.4718C34.9088 73.4689 34.2116 73.3432 33.5704 73.1032C32.9293 72.8632 32.3591 72.5146 31.8983 72.0807C31.4376 71.6469 31.097 71.138 30.8995 70.5883L30.0147 68.1253L28.6164 64.2277C25.1561 63.9397 21.6599 64.1825 18.3104 64.9433C18.0733 66.7361 17.5187 68.492 16.6638 70.1566C15.9021 71.641 15.0746 73.5846 15.0746 75.0088C15.0755 77.9287 16.3956 80.7473 18.7855 82.932C21.1753 85.1167 24.4695 86.5164 28.0456 86.8666L56.7016 91.8443L49.7206 118.011C49.6205 118.385 49.6251 118.773 49.7341 119.146C49.843 119.519 50.0536 119.867 50.3503 120.165C50.647 120.464 51.0223 120.704 51.4487 120.869C51.875 121.035 52.3417 121.121 52.8143 121.121H63.0206C64.7168 121.121 66.3631 120.655 67.6918 119.801C69.0205 118.946 69.9534 117.752 70.3389 116.413L77.4006 91.889C78.3851 88.4713 77.8036 84.88 75.7643 81.7841C73.7251 78.6881 70.3671 76.2985 66.3158 75.0604ZM23.5663 34.5678C23.9657 33.6568 24.7387 32.8845 25.7561 32.38C24.6127 30.6811 23.0181 29.2092 21.0876 28.0706C19.1571 26.9319 16.9388 26.155 14.5929 25.7958C12.7723 25.5309 10.8456 25.5343 9.12692 26.0882C7.4082 26.642 5.92713 27.8082 5.51973 29.2685C5.17598 30.4725 5.56428 31.7281 6.03958 32.8994C6.72919 34.6005 7.60553 36.25 8.23148 37.9666C8.85744 39.6831 9.22665 41.5012 8.86805 43.2659C8.6983 44.095 8.33758 44.9395 7.56946 45.502C7.05596 45.8786 6.40242 46.0988 5.81891 46.4015C5.23539 46.7042 4.68795 47.1394 4.6052 47.6967C4.58599 47.9512 4.64313 48.2058 4.77172 48.4385C4.90031 48.6712 5.09653 48.8753 5.34361 49.0331C5.84097 49.3447 6.41238 49.5695 7.02201 49.6936C8.65087 50.0917 10.3514 50.2621 12.0509 50.1976C13.3049 50.1494 14.6353 49.9396 15.5414 49.2327C16.7593 48.2849 16.8548 46.73 16.5726 45.3798C16.0421 42.8308 14.4507 40.4004 14.6205 37.8118C14.6671 37.0773 14.89 36.2964 15.5583 35.7994C16.0591 35.4278 16.736 35.2662 17.398 35.1544C19.3719 34.8198 21.4099 34.8198 23.3838 35.1544C23.4308 34.9562 23.4917 34.7603 23.5663 34.5678ZM32.1324 35.2455C31.8239 35.9398 31.3486 36.5776 30.734 37.122C30.4653 37.3732 30.1859 37.6163 29.8959 37.8513L28.9644 36.8038C28.8561 36.6716 28.716 36.5584 28.5525 36.471C28.389 36.3836 28.2055 36.3238 28.0129 36.2952C27.8203 36.2666 27.6225 36.2697 27.4314 36.3044C27.2403 36.3391 27.0598 36.4046 26.9007 36.4971C26.7415 36.5896 26.607 36.7071 26.5051 36.8426C26.4032 36.9782 26.336 37.129 26.3076 37.2861C26.2792 37.4431 26.2902 37.6032 26.3398 37.7568C26.3894 37.9103 26.4766 38.0542 26.5964 38.1799L27.6891 39.4148C27.3327 39.6304 26.9677 39.8345 26.5942 40.0271C26.5094 40.0719 26.4351 40.108 26.363 40.139C26.9235 40.6449 27.6952 40.9648 28.5294 41.0368C29.4314 41.1134 30.334 40.8966 31.0389 40.4342C31.7439 39.9717 32.1937 39.3013 32.2894 38.5703L32.5164 36.8503C32.5908 36.2962 32.4569 35.7368 32.1324 35.2455Z" fill="white" stroke="black" stroke-width="0.429688" stroke-miterlimit="10"/>
<path id="Vector_28" d="M26.5962 38.1798C26.4765 38.0542 26.3892 37.9103 26.3396 37.7568C26.29 37.6032 26.2791 37.4431 26.3075 37.286C26.3359 37.129 26.4031 36.9782 26.505 36.8426C26.6068 36.7071 26.7414 36.5895 26.9005 36.497C27.0597 36.4046 27.2402 36.339 27.4313 36.3043C27.6224 36.2696 27.8201 36.2665 28.0128 36.2952C28.2054 36.3238 28.3889 36.3836 28.5524 36.471C28.7159 36.5584 28.8559 36.6716 28.9643 36.8038L29.8958 37.8565C30.1787 37.6214 30.4581 37.3783 30.7339 37.1272C31.7545 36.176 32.6839 34.8912 32.1683 33.5857C31.9971 33.1934 31.7209 32.8366 31.3595 32.541C30.9982 32.2455 30.5606 32.0183 30.0782 31.876C29.1584 31.6201 28.1621 31.6074 27.2328 31.8399C26.3966 32.023 25.627 32.3664 24.9889 32.8412C24.3507 33.3159 23.8628 33.9081 23.5662 34.5678C23.3627 35.1173 23.2283 35.682 23.1652 36.2534C23.0146 37.0091 22.9436 37.7738 22.953 38.5393C22.9763 39.0553 23.0973 39.6178 23.5386 39.9979C23.7635 40.1768 24.0406 40.3066 24.3442 40.3751C24.6477 40.4437 24.9677 40.4488 25.2743 40.39C25.8684 40.2886 26.087 40.2903 26.592 40.0237C26.9654 39.831 27.3304 39.6269 27.6869 39.4113L26.5962 38.1798Z" fill="white" stroke="black" stroke-width="0.429688" stroke-miterlimit="10"/>
<path id="Vector_29" d="M28.5296 41.0333C27.6954 40.9613 26.9237 40.6414 26.3632 40.1355C26.2008 40.2066 26.0274 40.2598 25.8476 40.2937L25.3086 44.3719L29.7985 44.7606L30.3226 40.7925C29.763 41.0034 29.1432 41.0866 28.5296 41.0333Z" fill="white" stroke="black" stroke-width="0.429688" stroke-miterlimit="10"/>
<path id="Vector_30" d="M103.16 124.617C102.883 124.793 102.564 124.919 102.222 124.987L94.1932 126.589C94.0277 126.621 93.8601 126.647 93.6924 126.673H93.6797C93.6797 126.673 101.851 125.813 104.45 126.329L103.16 124.617ZM131.952 128.888L112.921 128.236C112.629 129.253 112.059 130.203 111.252 131.016C110.446 131.829 109.423 132.484 108.261 132.933C107.099 133.382 105.827 133.612 104.54 133.608C103.253 133.604 101.984 133.364 100.826 132.908L100.516 134.206C100.417 134.625 100.449 135.058 100.612 135.464C100.774 135.87 101.06 136.236 101.444 136.528C101.828 136.82 102.297 137.028 102.807 137.133C103.317 137.239 103.852 137.238 104.361 137.13L132.253 131.246C133.904 130.897 133.647 128.947 131.952 128.888Z" fill="black"/>
<path id="Vector_31" d="M4.76221 123.112H50.5906" stroke="black" stroke-width="0.429688" stroke-miterlimit="10"/>
<path id="Vector_32" d="M51.0973 112.846L43.1084 89.4861" stroke="black" stroke-width="0.429688" stroke-miterlimit="10"/>
<path id="Vector_33" d="M77.3451 136.881L62.8696 126.862C61.9441 127.65 60.7797 128.227 59.4926 128.536C58.2056 128.845 56.8411 128.874 55.5357 128.621C54.2302 128.368 53.0296 127.842 52.0537 127.095C51.0779 126.348 50.3611 125.407 49.975 124.365L48.5618 125.36C48.1644 125.64 47.8609 125.997 47.6797 126.398C47.4985 126.798 47.4454 127.229 47.5255 127.651C47.6056 128.073 47.8163 128.471 48.1377 128.809C48.4592 129.147 48.881 129.413 49.3639 129.583L75.7983 138.892C77.3536 139.44 78.6373 137.769 77.3451 136.881Z" fill="black"/>
<path id="Vector_34" d="M16.8314 88.5487L1 134.836" stroke="black" stroke-width="0.429688" stroke-miterlimit="10"/>
<path id="Vector_35" d="M11.9343 50.7462C12.7346 50.7462 13.502 51.0039 14.0679 51.4626C14.6337 51.9213 14.9516 52.5434 14.9516 53.1921V88.5487H11.7412C10.9922 88.5487 10.2738 88.3075 9.74419 87.8782C9.21455 87.4488 8.91699 86.8665 8.91699 86.2594V53.1938C8.91699 52.5451 9.23489 51.923 9.80075 51.4643C10.3666 51.0057 11.1341 50.748 11.9343 50.748V50.7462Z" stroke="black" stroke-width="0.429688" stroke-miterlimit="10"/>
<path id="Vector_36" d="M28.0455 86.87C26.8847 86.7584 25.7448 86.5338 24.6505 86.2009H9.06738C9.06738 86.5383 9.14939 86.8725 9.3087 87.1842C9.46801 87.496 9.70152 87.7793 9.99589 88.0179C10.2903 88.2565 10.6397 88.4458 11.0243 88.575C11.4089 88.7041 11.8212 88.7706 12.2375 88.7706H38.9732L28.0455 86.87Z" fill="black"/>
<path id="Vector_37" d="M103.697 121.881L77.7205 90.451C77.6436 90.9344 77.5367 91.4143 77.4001 91.889L71.7305 111.578L83.6724 123.687C84.9012 124.934 86.5449 125.87 88.4091 126.385C90.2734 126.899 92.2804 126.97 94.1927 126.589L102.211 124.991C102.604 124.913 102.967 124.759 103.271 124.543C103.574 124.327 103.809 124.055 103.955 123.75C104.1 123.444 104.153 123.115 104.108 122.79C104.063 122.464 103.922 122.153 103.697 121.881Z" fill="white" stroke="black" stroke-width="0.429688" stroke-miterlimit="10"/>
<path id="Vector_38" d="M56.7014 91.8442L44.9229 89.8008L55.4898 96.3833L56.7014 91.8442Z" stroke="black" stroke-width="0.429688" stroke-miterlimit="10"/>
<path id="Vector_39" d="M53.5969 121.121C56.0031 121.609 59.4894 122.476 61.3821 123.69L62.5215 121.121H53.5969ZM37.9544 64.6491L29.3184 66.1851L29.5963 66.9556C29.5963 66.9556 35.3636 65.9718 38.2685 66.3106L37.982 64.668L37.9544 64.6491Z" fill="black"/>
<path id="Vector_40" d="M18.8554 60.8118L18.3101 64.9398C18.2337 65.5091 18.1404 66.0286 17.9855 66.6357C17.4847 68.5811 34.0715 65.3354 34.0715 65.3354C34.0333 65.3354 33.7129 62.8001 33.7129 62.8001C33.8529 61.8006 34.2495 60.8358 34.8769 59.9679C35.5043 59.1 36.3488 58.3481 37.3561 57.7605C38.3964 57.145 39.2661 56.3598 39.9093 55.4554C40.5525 54.551 40.9549 53.5474 41.0906 52.5093L41.1203 52.2943C41.2502 51.3151 41.1407 50.3247 40.7983 49.3798C40.4558 48.4349 39.887 47.5539 39.1245 46.7873C38.3619 46.0206 37.4205 45.3832 36.354 44.9115C35.2874 44.4398 34.1167 44.1431 32.9087 44.0382L27.8331 43.6065C26.6251 43.501 25.4033 43.5896 24.2375 43.8671C23.0717 44.1446 21.9848 44.6056 21.0389 45.2238C20.093 45.842 19.3067 46.6052 18.7249 47.4698C18.1431 48.3345 17.7772 49.2836 17.6481 50.2629L17.6205 50.4762C17.4901 51.4461 17.5961 52.4274 17.9324 53.3641C18.8362 55.7742 19.1497 58.3042 18.8554 60.8118Z" fill="black"/>
<path id="Vector_41" d="M39.2723 64.926L36.2041 47.3527L22.2676 49.7314L28.5271 67.1793L39.2723 64.926Z" fill="black"/>
<path id="Vector_42" d="M24.0137 54.5905C24.4614 55.6225 24.8836 56.6545 25.2868 57.702C25.69 58.7495 26.0889 59.7884 26.4708 60.8359C26.8528 61.8833 27.2283 62.9343 27.5912 63.9852C27.954 65.0361 28.3062 66.0922 28.6394 67.1517L28.493 67.0847L33.8783 65.9993L39.2679 64.926L33.9123 66.1043L28.5545 67.2739L28.4442 67.2979L28.4081 67.2068C27.9837 66.1748 27.589 65.1239 27.1965 64.0781C26.8039 63.0323 26.4263 61.9848 26.0592 60.9339C25.6921 59.883 25.3314 58.8303 24.9855 57.7742C24.6396 56.7181 24.3171 55.6569 24.0137 54.5905ZM37.9544 57.3752C37.7741 56.8781 37.6383 56.3759 37.5173 55.8736C37.3964 55.3714 37.3051 54.864 37.2033 54.3566C37.1014 53.8492 37.0399 53.3418 36.9911 52.8309C36.9423 52.3201 36.8935 51.8075 36.8956 51.2829C37.0739 51.78 37.2097 52.2805 37.32 52.7845C37.4303 53.2884 37.5322 53.7941 37.634 54.2998C37.7359 54.8055 37.7974 55.3163 37.8462 55.8272C37.895 56.338 37.9544 56.8575 37.9544 57.3752Z" fill="white"/>
<path id="Vector_43" d="M28.1895 40.9886C28.1895 40.9886 28.2064 40.9972 28.2446 40.9972L28.1895 40.9886ZM29.157 41.0385C29.8891 41.2776 30.1586 42.043 30.1586 42.043L30.3219 40.7925C29.9546 40.9297 29.5602 41.0129 29.157 41.0385Z" fill="black"/>
<path id="Vector_44" d="M38.4958 61.2211C38.7548 61.2211 38.9647 61.0509 38.9647 60.841C38.9647 60.6311 38.7548 60.4609 38.4958 60.4609C38.2368 60.4609 38.0269 60.6311 38.0269 60.841C38.0269 61.0509 38.2368 61.2211 38.4958 61.2211Z" fill="white"/>
<path id="Vector_45" d="M31.4362 62.9704C31.6952 62.9704 31.9052 62.8002 31.9052 62.5903C31.9052 62.3803 31.6952 62.2101 31.4362 62.2101C31.1772 62.2101 30.9673 62.3803 30.9673 62.5903C30.9673 62.8002 31.1772 62.9704 31.4362 62.9704Z" fill="white"/>
<path id="Vector_46" d="M30.4982 60.0206C30.7572 60.0206 30.9672 59.8504 30.9672 59.6404C30.9672 59.4305 30.7572 59.2603 30.4982 59.2603C30.2393 59.2603 30.0293 59.4305 30.0293 59.6404C30.0293 59.8504 30.2393 60.0206 30.4982 60.0206Z" fill="white"/>
<path id="Vector_47" d="M18.9172 60.0206C19.1762 60.0206 19.3861 59.8504 19.3861 59.6404C19.3861 59.4305 19.1762 59.2603 18.9172 59.2603C18.6582 59.2603 18.4482 59.4305 18.4482 59.6404C18.4482 59.8504 18.6582 60.0206 18.9172 60.0206Z" fill="white"/>
<path id="Vector_48" d="M18.9172 67.5594C19.1762 67.5594 19.3861 67.3892 19.3861 67.1792C19.3861 66.9693 19.1762 66.7991 18.9172 66.7991C18.6582 66.7991 18.4482 66.9693 18.4482 67.1792C18.4482 67.3892 18.6582 67.5594 18.9172 67.5594Z" fill="white"/>
<path id="Vector_49" d="M22.3586 57.1189C22.6176 57.1189 22.8275 56.9487 22.8275 56.7388C22.8275 56.5289 22.6176 56.3587 22.3586 56.3587C22.0996 56.3587 21.8896 56.5289 21.8896 56.7388C21.8896 56.9487 22.0996 57.1189 22.3586 57.1189Z" fill="white"/>
<path id="Vector_50" d="M30.1652 67.0743C30.4242 67.0743 30.6342 66.9041 30.6342 66.6942C30.6342 66.4843 30.4242 66.3141 30.1652 66.3141C29.9062 66.3141 29.6963 66.4843 29.6963 66.6942C29.6963 66.9041 29.9062 67.0743 30.1652 67.0743Z" fill="white"/>
<path id="Vector_51" d="M33.2272 44.3237C33.4862 44.3237 33.6962 44.1535 33.6962 43.9436C33.6962 43.7336 33.4862 43.5634 33.2272 43.5634C32.9682 43.5634 32.7583 43.7336 32.7583 43.9436C32.7583 44.1535 32.9682 44.3237 33.2272 44.3237Z" fill="white"/>
<path id="Vector_52" d="M26.5666 55.6913C26.8256 55.6913 27.0355 55.5211 27.0355 55.3112C27.0355 55.1012 26.8256 54.931 26.5666 54.931C26.3076 54.931 26.0977 55.1012 26.0977 55.3112C26.0977 55.5211 26.3076 55.6913 26.5666 55.6913Z" fill="white"/>
<path id="Vector_53" d="M23.2971 53.0063C23.5561 53.0063 23.766 52.8362 23.766 52.6262C23.766 52.4163 23.5561 52.2461 23.2971 52.2461C23.0381 52.2461 22.8281 52.4163 22.8281 52.6262C22.8281 52.8362 23.0381 53.0063 23.2971 53.0063Z" fill="white"/>
<path id="Vector_54" d="M21.8898 48.0028C22.1488 48.0028 22.3588 47.8326 22.3588 47.6227C22.3588 47.4128 22.1488 47.2426 21.8898 47.2426C21.6308 47.2426 21.4209 47.4128 21.4209 47.6227C21.4209 47.8326 21.6308 48.0028 21.8898 48.0028Z" fill="white"/>
<path id="Vector_55" d="M17.9772 49.5801C18.2362 49.5801 18.4462 49.4099 18.4462 49.2C18.4462 48.99 18.2362 48.8198 17.9772 48.8198C17.7182 48.8198 17.5083 48.99 17.5083 49.2C17.5083 49.4099 17.7182 49.5801 17.9772 49.5801Z" fill="white"/>
<path id="Vector_56" d="M24.3723 45.2181C24.6312 45.2181 24.8412 45.0479 24.8412 44.838C24.8412 44.6281 24.6312 44.4579 24.3723 44.4579C24.1133 44.4579 23.9033 44.6281 23.9033 44.838C23.9033 45.0479 24.1133 45.2181 24.3723 45.2181Z" fill="white"/>
<path id="Vector_57" d="M33.2272 56.9933C33.4862 56.9933 33.6962 56.8232 33.6962 56.6132C33.6962 56.4033 33.4862 56.2331 33.2272 56.2331C32.9682 56.2331 32.7583 56.4033 32.7583 56.6132C32.7583 56.8232 32.9682 56.9933 33.2272 56.9933Z" fill="white"/>
<path id="Vector_58" d="M30.634 54.7676C30.893 54.7676 31.1029 54.5974 31.1029 54.3875C31.1029 54.1776 30.893 54.0074 30.634 54.0074C30.375 54.0074 30.165 54.1776 30.165 54.3875C30.165 54.5974 30.375 54.7676 30.634 54.7676Z" fill="white"/>
<path id="Vector_59" d="M23.4113 60.9855C23.6703 60.9855 23.8803 60.8153 23.8803 60.6054C23.8803 60.3954 23.6703 60.2253 23.4113 60.2253C23.1523 60.2253 22.9424 60.3954 22.9424 60.6054C22.9424 60.8153 23.1523 60.9855 23.4113 60.9855Z" fill="white"/>
<path id="Vector_60" d="M36.7326 57.7553C36.9916 57.7553 37.2016 57.5851 37.2016 57.3752C37.2016 57.1652 36.9916 56.9951 36.7326 56.9951C36.4736 56.9951 36.2637 57.1652 36.2637 57.3752C36.2637 57.5851 36.4736 57.7553 36.7326 57.7553Z" fill="white"/>
<path id="Vector_61" d="M38.967 49.5801C39.226 49.5801 39.4359 49.4099 39.4359 49.2C39.4359 48.99 39.226 48.8198 38.967 48.8198C38.708 48.8198 38.498 48.99 38.498 49.2C38.498 49.4099 38.708 49.5801 38.967 49.5801Z" fill="white"/>
<path id="Vector_62" d="M18.9172 54.016C19.1762 54.016 19.3861 53.8458 19.3861 53.6359C19.3861 53.4259 19.1762 53.2557 18.9172 53.2557C18.6582 53.2557 18.4482 53.4259 18.4482 53.6359C18.4482 53.8458 18.6582 54.016 18.9172 54.016Z" fill="white"/>
<path id="Vector_63" d="M26.0573 50.342C26.3163 50.342 26.5263 50.1718 26.5263 49.9619C26.5263 49.752 26.3163 49.5818 26.0573 49.5818C25.7983 49.5818 25.5884 49.752 25.5884 49.9619C25.5884 50.1718 25.7983 50.342 26.0573 50.342Z" fill="white"/>
<path id="Vector_64" d="M30.9675 50.5742C31.2265 50.5742 31.4364 50.4041 31.4364 50.1941C31.4364 49.9842 31.2265 49.814 30.9675 49.814C30.7085 49.814 30.4985 49.9842 30.4985 50.1941C30.4985 50.4041 30.7085 50.5742 30.9675 50.5742Z" fill="white"/>
<path id="Vector_65" d="M28.6843 47.0224C28.9433 47.0224 29.1532 46.8522 29.1532 46.6423C29.1532 46.4324 28.9433 46.2622 28.6843 46.2622C28.4253 46.2622 28.2153 46.4324 28.2153 46.6423C28.2153 46.8522 28.4253 47.0224 28.6843 47.0224Z" fill="white"/>
<path id="Vector_66" d="M37.6701 54.1983C37.9291 54.1983 38.139 54.0281 38.139 53.8182C38.139 53.6083 37.9291 53.4381 37.6701 53.4381C37.4111 53.4381 37.2012 53.6083 37.2012 53.8182C37.2012 54.0281 37.4111 54.1983 37.6701 54.1983Z" fill="white"/>
<path id="Vector_67" d="M34.2941 53.0063C34.5531 53.0063 34.7631 52.8362 34.7631 52.6262C34.7631 52.4163 34.5531 52.2461 34.2941 52.2461C34.0351 52.2461 33.8252 52.4163 33.8252 52.6262C33.8252 52.8362 34.0351 53.0063 34.2941 53.0063Z" fill="white"/>
<path id="Vector_68" d="M21.1301 63.9938C21.389 63.9938 21.599 63.8236 21.599 63.6136C21.599 63.4037 21.389 63.2335 21.1301 63.2335C20.8711 63.2335 20.6611 63.4037 20.6611 63.6136C20.6611 63.8236 20.8711 63.9938 21.1301 63.9938Z" fill="white"/>
<path id="Vector_69" d="M33.696 47.4025C33.955 47.4025 34.1649 47.2323 34.1649 47.0224C34.1649 46.8125 33.955 46.6423 33.696 46.6423C33.437 46.6423 33.2271 46.8125 33.2271 47.0224C33.2271 47.2323 33.437 47.4025 33.696 47.4025Z" fill="white"/>
<path id="Vector_70" d="M26.0573 65.1531C26.3163 65.1531 26.5263 64.9829 26.5263 64.773C26.5263 64.563 26.3163 64.3929 26.0573 64.3929C25.7983 64.3929 25.5884 64.563 25.5884 64.773C25.5884 64.9829 25.7983 65.1531 26.0573 65.1531Z" fill="white"/>
<path id="Vector_71" d="M41.1018 52.7552C41.3607 52.7552 41.5707 52.5851 41.5707 52.3751C41.5707 52.1652 41.3607 51.995 41.1018 51.995C40.8428 51.995 40.6328 52.1652 40.6328 52.3751C40.6328 52.5851 40.8428 52.7552 41.1018 52.7552Z" fill="white"/>
<path id="Vector_72" d="M35.5637 63.2335C35.8227 63.2335 36.0326 63.0634 36.0326 62.8534C36.0326 62.6435 35.8227 62.4733 35.5637 62.4733C35.3047 62.4733 35.0947 62.6435 35.0947 62.8534C35.0947 63.0634 35.3047 63.2335 35.5637 63.2335Z" fill="white"/>
<path id="Vector_73" d="M26.0574 59.4323C25.9555 59.4346 25.8572 59.4635 25.7773 59.5149L26.0192 60.1874C26.0319 60.1883 26.0447 60.1883 26.0574 60.1874C26.1766 60.1809 26.2883 60.138 26.3699 60.0672C26.4515 59.9965 26.4969 59.9033 26.4969 59.8064C26.4969 59.7096 26.4515 59.6164 26.3699 59.5456C26.2883 59.4749 26.1766 59.4319 26.0574 59.4254V59.4323Z" fill="white"/>
<path id="Vector_74" d="M145.243 10.8746H102.356V30.4036H145.243V10.8746Z" fill="white" stroke="black" stroke-width="0.429688" stroke-miterlimit="10"/>
<path id="Vector_75" d="M131.175 16.0002H116.42V25.2763H131.175V16.0002Z" stroke="black" stroke-width="0.429688" stroke-linecap="round" stroke-linejoin="round"/>
<path id="Vector_76" d="M116.42 25.278H126.191L121.307 21.2893L116.42 25.278Z" stroke="black" stroke-width="0.429688" stroke-linecap="round" stroke-linejoin="round"/>
<path id="Vector_77" d="M127.912 18.6319L122.964 22.6429L126.191 25.278H131.178V21.3254L127.912 18.6319Z" stroke="black" stroke-width="0.429688" stroke-linecap="round" stroke-linejoin="round"/>
<path id="Vector_78" d="M120.424 19.3474C120.911 19.3474 121.306 19.0271 121.306 18.6319C121.306 18.2367 120.911 17.9164 120.424 17.9164C119.936 17.9164 119.541 18.2367 119.541 18.6319C119.541 19.0271 119.936 19.3474 120.424 19.3474Z" stroke="black" stroke-width="0.429688" stroke-linecap="round" stroke-linejoin="round"/>
<path id="Vector_79" d="M103.627 10.9168C103.627 10.3473 103.058 9.88562 102.355 9.88562C101.653 9.88562 101.083 10.3473 101.083 10.9168C101.083 11.4863 101.653 11.9479 102.355 11.9479C103.058 11.9479 103.627 11.4863 103.627 10.9168Z" fill="white" stroke="black" stroke-width="0.429688" stroke-miterlimit="10"/>
<path id="Vector_80" d="M146.514 10.9168C146.514 10.3473 145.945 9.88562 145.242 9.88562C144.54 9.88562 143.97 10.3473 143.97 10.9168C143.97 11.4863 144.54 11.9479 145.242 11.9479C145.945 11.9479 146.514 11.4863 146.514 10.9168Z" fill="white" stroke="black" stroke-width="0.429688" stroke-miterlimit="10"/>
<path id="Vector_81" d="M103.627 30.4028C103.627 29.8333 103.058 29.3716 102.355 29.3716C101.653 29.3716 101.083 29.8333 101.083 30.4028C101.083 30.9723 101.653 31.4339 102.355 31.4339C103.058 31.4339 103.627 30.9723 103.627 30.4028Z" fill="white" stroke="black" stroke-width="0.429688" stroke-miterlimit="10"/>
<path id="Vector_82" d="M146.514 30.4028C146.514 29.8333 145.945 29.3716 145.242 29.3716C144.54 29.3716 143.97 29.8333 143.97 30.4028C143.97 30.9723 144.54 31.4339 145.242 31.4339C145.945 31.4339 146.514 30.9723 146.514 30.4028Z" fill="white" stroke="black" stroke-width="0.429688" stroke-miterlimit="10"/>
</g>
</svg>
