<svg width="154" height="139" viewBox="0 0 154 139" fill="none" xmlns="http://www.w3.org/2000/svg">
<path d="M87.2981 34.795L85.8818 39.9974" stroke="black" stroke-width="0.429688" stroke-miterlimit="10"/>
<path d="M96.3824 34.795L94.1855 42.8621" stroke="black" stroke-width="0.429688" stroke-miterlimit="10"/>
<path d="M153 137.228L135.601 56.7733" stroke="black" stroke-width="0.429688" stroke-miterlimit="10"/>
<path d="M92.1934 29.2719C92.273 29.4177 92.3491 29.5733 92.4234 29.7425L92.5266 29.6044C92.4208 29.4876 92.3096 29.3766 92.1934 29.2719Z" fill="#F8CDA0"/>
<path d="M117.961 42.8621L115.065 56.7441" stroke="black" stroke-width="0.429688" stroke-miterlimit="10"/>
<path d="M97.6479 137.275L115.065 56.7441" stroke="black" stroke-width="0.429688" stroke-miterlimit="10"/>
<path d="M92.2402 40.7928C92.3062 40.8844 92.3505 40.9918 92.3693 41.1057C92.3882 41.2197 92.381 41.3369 92.3484 41.4472C92.3158 41.5575 92.2588 41.6577 92.1822 41.7392C92.1056 41.8207 92.0118 41.881 91.9088 41.915L89.0835 42.8621H105.037V40.7928H92.2402Z" fill="black"/>
<path d="M133.017 42.8621H89.0837L84.21 44.5054C84.0845 44.5468 83.9732 44.6273 83.8903 44.7367C83.8075 44.8462 83.7567 44.9796 83.7446 45.12L83.4983 47.8427C83.4847 47.9896 83.4293 48.1284 83.3396 48.2402C83.2498 48.352 83.1302 48.4314 82.9969 48.4675C82.8637 48.5036 82.7233 48.4948 82.5949 48.4422C82.4665 48.3895 82.3563 48.2956 82.2794 48.1733L79.4161 43.5855L62.584 43.4338L55.2038 43.3677C54.4107 43.3573 53.6266 43.1857 52.8929 42.8621H47.2568L71.8875 56.7207L135.603 56.6741L133.017 42.8621Z" stroke="black" stroke-width="0.429688" stroke-miterlimit="10"/>
<path d="M118.935 1.92786H73.961C73.5164 1.92805 73.0856 2.09363 72.7419 2.39643C72.3982 2.69923 72.1628 3.12055 72.0757 3.58872L66.7167 32.4671C66.6616 32.7664 66.6689 33.075 66.7381 33.3709C66.8073 33.6668 66.9367 33.9425 67.117 34.1783C67.2972 34.4141 67.5239 34.604 67.7807 34.7346C68.0374 34.8651 68.318 34.9329 68.602 34.9331H113.576C114.021 34.9333 114.452 34.7679 114.796 34.465C115.14 34.1621 115.375 33.7406 115.462 33.2723L120.821 4.39581C120.876 4.0964 120.869 3.78753 120.8 3.49142C120.731 3.1953 120.602 2.91932 120.421 2.6833C120.241 2.44729 120.014 2.25713 119.757 2.12651C119.5 1.99588 119.22 1.92804 118.935 1.92786ZM103 26.4141C98.9993 29.2652 94.2342 27.2239 92.4159 29.7424C91.3292 27.2142 83.1784 27.648 80 24.7969C76.8216 21.9458 82.5 7.54689 82.5 7.54689L95.7591 6.5701L107.5 10.2422C107.5 10.2422 106.997 23.561 103 26.4141Z" fill="black"/>
<path d="M18.2704 71.0987L1 138" stroke="black" stroke-width="0.429688" stroke-miterlimit="10"/>
<path d="M36.5932 68.2145H11.6963C11.6963 68.9795 11.9793 69.7131 12.4829 70.2539C12.9866 70.7948 13.6698 71.0987 14.3821 71.0987H45.3316L36.5932 68.2145Z" fill="black"/>
<path d="M27.7187 44.908C28.4088 43.2083 29.106 41.3704 29.106 41.3704C30.124 38.2262 30.6431 34.9208 30.6418 31.5919C27.4091 29.5279 23.7174 28.4394 19.9565 28.4413C11.6074 28.4413 5.3791 36.6504 7.1123 45.3611L11.5295 67.5941C11.7149 68.5159 12.1891 69.3415 12.8731 69.933C13.5571 70.5245 14.4093 70.846 15.2875 70.8439H44.5853L38.6957 42.7065L27.7187 44.908Z" stroke="black" stroke-width="0.429688" stroke-miterlimit="10"/>
<path d="M121.375 134.635L100.332 127.766L95.8604 120.648C95.6482 121.007 95.3563 121.303 95.0111 121.51C94.6659 121.717 94.2781 121.829 93.8827 121.835L86.5605 122C85.9089 122.014 85.2572 121.971 84.6118 121.874L92.1749 131.462L91.4414 133.122C91.2286 133.599 91.132 134.126 91.1607 134.654C91.1894 135.182 91.3424 135.693 91.6054 136.14C91.8683 136.587 92.2327 136.955 92.6643 137.21C93.0958 137.464 93.5805 137.597 94.0729 137.595L120.976 137.545C122.561 137.531 122.893 135.133 121.375 134.635Z" fill="white" stroke="black" stroke-width="0.429688" stroke-miterlimit="10"/>
<path d="M121.375 134.635L104.295 129.06C103.817 130.275 103.069 131.346 102.117 132.18C101.165 133.014 100.038 133.585 98.8333 133.844C97.6286 134.103 96.3833 134.042 95.2058 133.665C94.0283 133.289 92.9543 132.609 92.0775 131.685L91.4418 133.122C91.2291 133.599 91.1325 134.126 91.1612 134.654C91.1899 135.182 91.3429 135.693 91.6058 136.14C91.8688 136.587 92.2332 136.955 92.6647 137.21C93.0963 137.464 93.581 137.597 94.0733 137.595L120.977 137.545C122.562 137.531 122.893 135.133 121.375 134.635Z" stroke="black" stroke-width="0.429688" stroke-miterlimit="10"/>
<path d="M95.8605 120.648C95.6482 121.007 95.3564 121.303 95.0111 121.51C94.6659 121.717 94.2782 121.829 93.8828 121.835L86.5606 122C85.8547 122.014 85.1489 121.965 84.4507 121.852L98.4811 124.808L95.8605 120.648Z" fill="black"/>
<path d="M95.8155 117.747L82.8355 97.8806L78.6103 113.602C78.4395 114.242 78.1401 114.833 77.7333 115.334C77.3265 115.836 76.8221 116.235 76.2559 116.504L76.4551 116.782C77.6394 118.443 79.1716 119.781 80.9274 120.688C82.6831 121.594 84.6131 122.044 86.5609 122L93.8831 121.835C94.3217 121.826 94.7497 121.689 95.1214 121.439C95.493 121.188 95.7943 120.834 95.9928 120.414C96.1914 119.994 96.2798 119.524 96.2485 119.054C96.2173 118.584 96.0676 118.132 95.8155 117.747Z" fill="black"/>
<path d="M64.2843 99.7185L68.6273 78.7866L43.4243 70.4686L64.2843 99.7185Z" fill="black"/>
<path d="M44.8188 61.9465L83.9272 116.782" stroke="white" stroke-width="1.18307" stroke-miterlimit="10"/>
<path d="M45.2862 39.6201L54.9519 31.3664L45.8838 19.1141C45.815 19.0169 45.7444 18.9196 45.672 18.8243L45.6285 18.766C44.2213 16.982 42.2441 15.8271 40.0848 15.5279V14.2132H35.8686V15.983C34.1619 16.6317 32.6843 17.8323 31.639 19.4197C30.5937 21.0071 30.0322 22.9032 30.0315 24.8474C30.0315 25.4512 30.0855 26.0536 30.1927 26.6463C31.0783 31.557 30.6165 36.6407 29.106 41.3704C29.106 41.3704 28.4088 43.2083 27.7188 44.908L44.8099 41.4813L44.9258 41.4366C44.4323 40.4414 44.1942 39.3231 44.2358 38.1965L45.2862 39.6201Z" stroke="black" stroke-width="0.429688" stroke-miterlimit="10"/>
<path d="M40.2933 3.95819C39.75 6.11303 37.229 6.48644 35.2911 6.62841C35.0357 6.56415 34.768 6.58898 34.5266 6.6993C34.2853 6.80962 34.083 6.99969 33.9491 7.24189C33.8152 7.48409 33.7568 7.76581 33.7822 8.04614C33.8076 8.32647 33.9155 8.59081 34.0904 8.80075L35.7203 10.7456C35.7785 10.8181 35.8441 10.8833 35.9159 10.94C36.2114 11.3737 36.5979 11.7265 37.0441 11.9698C37.4903 12.2131 37.9836 12.34 38.484 12.3403C39.328 12.3367 40.1364 11.9744 40.7323 11.3326C41.3283 10.6909 41.6633 9.82181 41.6643 8.9155V6.80733C40.9725 6.62646 39.9691 5.25732 40.2933 3.95819Z" fill="white" stroke="black" stroke-width="0.429688" stroke-miterlimit="10"/>
<path d="M38.875 12.3112C39.2517 12.7001 39.8041 13.2019 40.0848 13.1144V11.8736C39.7135 12.1064 39.3018 12.2553 38.875 12.3112Z" fill="black"/>
<path d="M38.4766 12.3403C37.9762 12.3401 37.4829 12.2132 37.0367 11.9699C36.5905 11.7266 36.204 11.3738 35.9085 10.9401C35.894 10.9304 35.8831 10.9148 35.8687 10.9031V14.2093H40.0848V11.8755C39.5966 12.1809 39.0416 12.3413 38.4766 12.3403Z" fill="white" stroke="black" stroke-width="0.429688" stroke-miterlimit="10"/>
<path d="M47.128 19.4175C46.2732 15.0261 43.3701 11.119 43.4751 6.63428C43.5294 4.04964 42.7996 1.82672 40.6679 0.624835C39.1376 -0.238658 37.2722 -0.112246 35.6187 0.430355C33.3331 1.17133 31.1218 2.88664 30.5295 5.37599C30.3991 5.91859 30.3484 6.48259 30.2017 7.01935C29.8975 8.11817 29.2002 9.03028 28.5192 9.91128C27.9198 10.6892 27.3113 11.4671 26.547 12.0506C25.7465 12.6632 24.8083 13.023 23.9227 13.4936C22.597 14.186 21.3438 15.1389 20.5451 16.473C19.7464 17.8072 19.4584 19.5633 20.085 21.0006C20.67 22.3619 21.9468 23.241 23.2599 23.7486C24.7416 24.321 26.3273 24.5141 27.8908 24.3126C28.6342 24.2055 29.3691 24.0391 30.0894 23.8147C30.2704 22.0581 30.9085 20.3918 31.9306 19.0067C32.9527 17.6216 34.3175 16.5736 35.8686 15.983V10.9031C35.8125 10.8585 35.7603 10.8084 35.7128 10.7534L34.0829 8.80857C33.908 8.59863 33.8001 8.33429 33.7747 8.05396C33.7493 7.77363 33.8077 7.49191 33.9416 7.24971C34.0755 7.0075 34.2778 6.81744 34.5191 6.70712C34.7604 6.5968 35.0282 6.57196 35.2836 6.63623C37.2215 6.49815 39.7443 6.12085 40.2858 3.96601C39.9616 5.26514 40.965 6.63428 41.664 6.81515V8.91554C41.6637 9.51481 41.517 10.1035 41.2386 10.6229C40.9603 11.1423 40.5599 11.5742 40.0775 11.8755V15.5279C42.2368 15.8306 44.2128 16.989 45.6176 18.7757L45.6611 18.834C45.7335 18.9293 45.8041 19.0285 45.873 19.1238L47.2802 21.0219C47.2799 20.483 47.2289 19.9454 47.128 19.4175Z" fill="black"/>
<path d="M82.7756 134.914L73.2946 131.827L72.8292 128.037L72.2134 123.023L71.7751 119.46L72.8509 116.557C72.6383 116.462 72.433 116.349 72.2369 116.22L64.9926 111.455L64.2519 117.144C64.2519 117.144 63.9983 117.144 63.877 117.163C63.8245 117.163 63.7756 117.183 63.7249 117.191C63.6742 117.198 63.589 117.214 63.522 117.231C63.455 117.249 63.417 117.264 63.3627 117.282C63.3083 117.299 63.2449 117.319 63.1815 117.344C63.1182 117.369 63.0801 117.391 63.0294 117.416C62.9787 117.441 62.9208 117.467 62.8682 117.496C62.8157 117.525 62.7722 117.556 62.7252 117.587C62.6781 117.618 62.6255 117.653 62.5785 117.688C62.5314 117.723 62.4897 117.758 62.4481 117.795C62.4064 117.832 62.3575 117.873 62.314 117.914C62.2706 117.955 62.2344 117.994 62.1963 118.035C62.1583 118.075 62.1148 118.124 62.0768 118.171C62.0388 118.217 62.008 118.258 61.9736 118.303C61.9392 118.348 61.9029 118.402 61.8703 118.455C61.8377 118.507 61.8106 118.55 61.7834 118.597C61.7562 118.643 61.7218 118.708 61.6946 118.764C61.6675 118.82 61.6458 118.863 61.624 118.914C61.6023 118.964 61.5751 119.032 61.5534 119.093C61.5317 119.153 61.5172 119.196 61.5009 119.248C61.4846 119.301 61.4646 119.375 61.4502 119.443C61.4357 119.511 61.4248 119.548 61.4139 119.602C61.4031 119.657 61.394 119.736 61.385 119.797C61.3759 119.857 61.3705 119.904 61.3668 119.958C61.3632 120.012 61.3668 120.1 61.3668 120.17C61.3668 120.24 61.3668 120.275 61.3668 120.329C61.3668 120.384 61.3795 120.479 61.3886 120.553C61.3976 120.627 61.3976 120.654 61.4049 120.703C61.4194 120.786 61.4393 120.87 61.461 120.954C61.4701 120.997 61.4773 121.037 61.49 121.08C61.5253 121.208 61.5695 121.333 61.6222 121.454L64.8586 129.069L67.5354 135.369C67.8401 136.086 68.3307 136.694 68.9486 137.12C69.5665 137.546 70.2856 137.772 71.0199 137.77H74.0263L82.3898 137.755C83.9347 137.737 84.257 135.396 82.7756 134.914Z" fill="white" stroke="black" stroke-width="0.429688" stroke-miterlimit="10"/>
<path d="M64.2499 117.134L52.9995 73.6289" stroke="black" stroke-width="0.429688" stroke-miterlimit="10"/>
<path d="M82.7756 134.914L73.2946 131.827L72.208 123.023C71.302 123.444 70.3129 123.616 69.3294 123.526C68.3459 123.435 67.3989 123.083 66.5731 122.502C65.7474 121.921 65.0688 121.13 64.5983 120.198C64.1277 119.266 63.8799 118.223 63.877 117.163C63.4326 117.219 63.0066 117.386 62.6339 117.652C62.2611 117.918 61.9522 118.275 61.7324 118.693C61.5125 119.112 61.3879 119.58 61.3688 120.06C61.3497 120.54 61.4365 121.018 61.6223 121.456L64.8586 129.071L67.5354 135.371C67.8405 136.088 68.3312 136.695 68.949 137.121C69.5669 137.547 70.2858 137.773 71.0199 137.772H74.0263L82.3899 137.757C83.9347 137.737 84.2571 135.396 82.7756 134.914Z" stroke="black" stroke-width="0.429688" stroke-miterlimit="10"/>
<path d="M64.9907 111.446L72.849 116.553L71.775 119.45C71.775 119.45 70.5453 116.002 64.9907 111.446Z" fill="black"/>
<path d="M29.126 138L46.3149 71.4216" stroke="black" stroke-width="0.429688" stroke-miterlimit="10"/>
<path d="M41.6858 138L24.4136 71.0987" stroke="black" stroke-width="0.429688" stroke-miterlimit="10"/>
<path d="M8.25879 109.631H34.4252" stroke="black" stroke-width="0.429688" stroke-miterlimit="10"/>
<path d="M36.3848 109.631H62.2288" stroke="black" stroke-width="0.429688" stroke-miterlimit="10"/>
<path d="M44.2305 38.1965C43.0623 36.8021 41.9594 35.3552 40.8709 33.8927C39.7825 32.4302 38.7248 30.9463 37.7251 29.4099C38.8932 30.8024 39.9962 32.2513 41.0846 33.7118C42.1731 35.1724 43.2308 36.6601 44.2305 38.1965ZM81.6346 62.0729L45.0835 41.5066C45.0255 41.4716 44.964 41.4405 44.9024 41.4055C44.9061 41.4164 44.911 41.4268 44.9169 41.4366L44.801 41.4813L28.1753 44.8147C26.7305 46.682 25.7537 48.9145 25.3374 51.3007C24.9211 53.687 25.0791 56.1478 25.7965 58.4501C26.5139 60.7523 27.7668 62.8197 29.4366 64.4564C31.1064 66.093 33.1377 67.2447 35.3381 67.8023L68.6239 78.7865L62.8284 106.77C62.6554 107.605 62.7296 108.477 63.0407 109.265C63.3517 110.052 63.8841 110.715 64.5634 111.162L72.2424 116.218C72.8026 116.595 73.4366 116.827 74.0944 116.896C74.7523 116.965 75.4161 116.868 76.0334 116.615C76.6508 116.361 77.2049 115.957 77.652 115.434C78.0992 114.912 78.4271 114.284 78.6101 113.602L88.0947 78.3198C88.9267 75.2271 88.7381 71.9207 87.5609 68.9601C86.3837 65.9995 84.2902 63.5666 81.6346 62.0729Z" fill="black"/>
<path d="M28.1786 44.8147C27.4071 45.8921 25.4511 49.3305 26.9833 53.9261C28.5155 58.5217 33.5901 63.5121 39.4526 64.992L72.7383 75.9763L66.1134 107.871" stroke="white" stroke-width="1.18307" stroke-miterlimit="10"/>
<path d="M63.0186 105.829L77.6158 115.477" stroke="white" stroke-width="1.18307" stroke-miterlimit="10"/>
<path d="M77.6157 118.19L93.756 114.598" stroke="white" stroke-width="1.18307" stroke-miterlimit="10"/>
<path d="M91.7929 40.4214L80.2546 39.4004H80.2401L56.2415 35.4874L53.9939 32.1813L47.2368 37.9496L51.2447 41.6447C52.3639 42.6776 53.7878 43.2509 55.2635 43.2628L62.6364 43.3308L79.454 43.4825L82.3156 48.0645C82.392 48.187 82.5019 48.2812 82.6301 48.3342C82.7583 48.3871 82.8986 48.3962 83.0318 48.3603C83.1651 48.3243 83.2847 48.245 83.3743 48.1332C83.4639 48.0214 83.5192 47.8826 83.5326 47.7358L83.7789 45.0131C83.7916 44.8731 83.8423 44.7403 83.9248 44.631C84.0072 44.5218 84.1177 44.4409 84.2425 44.3985L91.936 41.8217C92.0858 41.7741 92.2153 41.6714 92.3018 41.5317C92.3884 41.392 92.4264 41.2241 92.4094 41.0573C92.3924 40.8905 92.3213 40.7355 92.2086 40.6193C92.0959 40.503 91.9488 40.433 91.7929 40.4214Z" fill="white" stroke="black" stroke-width="0.429688" stroke-miterlimit="10"/>
<path d="M53.9994 32.1813L47.2368 37.9535L47.4179 38.111C50.6996 35.2249 55.1385 33.9199 55.1639 33.8888L53.9994 32.1813Z" fill="black"/>
<path d="M43.4243 70.4686C45.5378 71.1162 47.6459 71.7814 49.754 72.4465L56.0729 74.4652L62.379 76.5248L65.5321 77.5555L68.6798 78.6037L68.8373 78.6562L68.8011 78.8274L67.7018 84.057C67.3396 85.8073 66.9593 87.5421 66.5826 89.2827L65.4488 94.5045C65.0613 96.2431 64.6827 97.9837 64.2861 99.7204C64.6121 97.9701 64.9562 96.2198 65.2931 94.4695L66.3308 89.2185C66.6785 87.4682 67.0226 85.7178 67.3831 83.9772L68.4552 78.7418L68.5765 78.9655L65.4235 77.9347L62.2758 76.8845L55.9805 74.7841L49.6961 72.6449C47.6043 71.9272 45.5107 71.2077 43.4243 70.4686Z" fill="white"/>
<path d="M88.8262 13.9961V19.2402H89.7871V22.8965H88.1816V20.5469H83.7754V22.8965H82.1699V19.2402H82.7207C83.0098 18.7988 83.252 18.2949 83.4473 17.7285C83.6465 17.1621 83.8066 16.5625 83.9277 15.9297C84.0527 15.293 84.1426 14.6484 84.1973 13.9961H88.8262ZM87.0391 15.3379H85.6973C85.6348 15.8223 85.5547 16.291 85.457 16.7441C85.3633 17.1934 85.2461 17.627 85.1055 18.0449C84.9648 18.459 84.793 18.8574 84.5898 19.2402H87.0391V15.3379ZM94.5508 13.873C95.2891 13.873 95.8848 14.1602 96.3379 14.7344C96.7949 15.3086 97.0234 16.1504 97.0234 17.2598C97.0234 18.002 96.916 18.627 96.7012 19.1348C96.4863 19.6387 96.1895 20.0195 95.8105 20.2773C95.4316 20.5352 94.9961 20.6641 94.5039 20.6641C94.1875 20.6641 93.916 20.625 93.6895 20.5469C93.4629 20.4648 93.2695 20.3613 93.1094 20.2363C92.9492 20.1074 92.8105 19.9707 92.6934 19.8262H92.5996C92.6309 19.9824 92.6543 20.1426 92.6699 20.3066C92.6855 20.4707 92.6934 20.6309 92.6934 20.7871V23.4297H90.9062V13.9961H92.3594L92.6113 14.8457H92.6934C92.8105 14.6699 92.9531 14.5078 93.1211 14.3594C93.2891 14.2109 93.4902 14.0938 93.7246 14.0078C93.9629 13.918 94.2383 13.873 94.5508 13.873ZM93.9766 15.3027C93.6641 15.3027 93.416 15.3672 93.2324 15.4961C93.0488 15.625 92.9141 15.8184 92.8281 16.0762C92.7461 16.334 92.7012 16.6602 92.6934 17.0547V17.248C92.6934 17.6699 92.7324 18.0273 92.8105 18.3203C92.8926 18.6133 93.0273 18.8359 93.2148 18.9883C93.4062 19.1406 93.668 19.2168 94 19.2168C94.2734 19.2168 94.498 19.1406 94.6738 18.9883C94.8496 18.8359 94.9805 18.6133 95.0664 18.3203C95.1562 18.0234 95.2012 17.6621 95.2012 17.2363C95.2012 16.5957 95.1016 16.1133 94.9023 15.7891C94.7031 15.4648 94.3945 15.3027 93.9766 15.3027ZM101.16 20.6641C100.512 20.6641 99.959 20.5469 99.502 20.3125C99.0449 20.0742 98.6973 19.707 98.459 19.2109C98.2207 18.7148 98.1016 18.0801 98.1016 17.3066C98.1016 16.5059 98.2363 15.8535 98.5059 15.3496C98.7793 14.8418 99.1562 14.4688 99.6367 14.2305C100.121 13.9922 100.682 13.873 101.318 13.873C101.771 13.873 102.162 13.918 102.49 14.0078C102.822 14.0938 103.111 14.1973 103.357 14.3184L102.83 15.7012C102.549 15.5879 102.287 15.4961 102.045 15.4258C101.803 15.3516 101.561 15.3145 101.318 15.3145C101.006 15.3145 100.746 15.3887 100.539 15.5371C100.332 15.6816 100.178 15.9004 100.076 16.1934C99.9746 16.4863 99.9238 16.8535 99.9238 17.2949C99.9238 17.7285 99.9785 18.0879 100.088 18.373C100.197 18.6582 100.355 18.8711 100.562 19.0117C100.77 19.1484 101.021 19.2168 101.318 19.2168C101.689 19.2168 102.02 19.168 102.309 19.0703C102.598 18.9688 102.879 18.8281 103.152 18.6484V20.1777C102.879 20.3496 102.592 20.4727 102.291 20.5469C101.994 20.625 101.617 20.6641 101.16 20.6641Z" fill="black"/>
</svg>
