<svg width="160" height="120" viewBox="0 0 160 120" fill="none" xmlns="http://www.w3.org/2000/svg">
<g id="Image">
<path id="Vector" d="M133.558 77.9573L116.781 83.8177C117.489 84.6949 118.355 85.4318 119.334 85.99C120.163 84.5755 121.026 84.8867 121.026 84.8867C122.37 85.2666 120.335 86.7155 120.335 86.7155C123.854 88.6474 126.753 88.6818 126.753 88.6818C124.854 85.6122 125.58 84.8867 125.58 84.8867C126.649 84.5411 128.513 88.3019 128.513 88.3019C137.769 87.2369 133.558 77.9573 133.558 77.9573ZM132.331 85.0302C131.79 85.2666 130.989 84.626 130.543 83.6156C130.096 82.6052 130.173 81.5746 130.714 81.3381C131.256 81.1017 132.057 81.7423 132.503 82.7527C132.95 83.7631 132.873 84.7957 132.331 85.0322V85.0302Z" fill="#505458"/>
<path id="Vector_2" d="M126.945 88.7889H126.771C126.741 88.7889 123.806 88.7323 120.303 86.8105L120.161 86.7317L120.292 86.6388C120.624 86.4023 121.469 85.6991 121.396 85.2868C121.374 85.1555 121.245 85.0565 121.014 84.9898C120.976 84.9777 120.206 84.7331 119.437 86.0487L119.389 86.1315L119.304 86.0851C118.313 85.5188 117.435 84.7732 116.717 83.8864L116.632 83.7753L133.621 77.834L133.66 77.9169C133.68 77.9614 135.643 82.3728 133.89 85.4707C132.958 87.1177 131.159 88.0978 128.542 88.409H128.471L128.439 88.3443C127.937 87.3339 126.472 84.7796 125.655 84.9736C125.578 85.0969 125.194 85.9396 126.856 88.6273L126.945 88.7889ZM120.531 86.7055C123.424 88.2595 125.892 88.5242 126.575 88.5747C124.784 85.6082 125.485 84.8503 125.518 84.82L125.534 84.8018H125.558C126.625 84.4543 128.275 87.5966 128.59 88.2029C131.101 87.8998 132.835 86.948 133.716 85.3737C135.287 82.5991 133.773 78.705 133.514 78.0887L116.967 83.8743C117.632 84.6651 118.426 85.3374 119.316 85.8628C120.163 84.4906 121.04 84.7877 121.079 84.7998C121.384 84.8867 121.56 85.0383 121.598 85.2545C121.677 85.7577 120.867 86.4488 120.531 86.7055ZM132.087 85.1838C131.81 85.1672 131.546 85.0576 131.339 84.8726C130.951 84.5447 130.646 84.1291 130.45 83.6601C129.975 82.5709 130.072 81.5119 130.674 81.2492C131.276 80.9865 132.119 81.6332 132.596 82.7224C132.81 83.1861 132.91 83.6937 132.89 84.2037C132.853 84.6725 132.669 85.012 132.372 85.1333C132.282 85.1694 132.184 85.1866 132.087 85.1838ZM130.957 81.3866C130.888 81.3856 130.819 81.3994 130.755 81.4271C130.274 81.6292 130.219 82.6194 130.636 83.5712C130.817 84.0129 131.101 84.4051 131.464 84.7149C131.772 84.9595 132.071 85.0383 132.291 84.9393C132.518 84.8423 132.657 84.5715 132.695 84.1815C132.714 83.704 132.619 83.2288 132.419 82.7952C132.049 81.9686 131.42 81.3866 130.957 81.3866Z" fill="#2F2E41"/>
<path id="Vector_3" d="M159.096 88.5201C159.096 88.5201 145.456 81.4958 145.287 81.3745C145.287 81.3745 142.186 86.8004 146.4 90.2661C146.4 90.2661 145.893 86.0507 147.929 86.5114C147.929 86.5114 149.43 86.8994 147.832 91.1371C148.659 91.5416 149.54 91.8273 150.447 91.9859C150.447 91.9859 150.231 90.7046 150.516 90.1004C150.54 90.0496 150.575 90.0052 150.619 89.9708C150.664 89.9364 150.715 89.913 150.77 89.9025C150.826 89.8921 150.882 89.8948 150.936 89.9106C150.99 89.9264 151.039 89.9548 151.08 89.9933C151.328 90.2358 151.654 90.8299 151.779 92.3011C151.779 92.2991 156.602 92.1536 159.096 88.5201Z" fill="#505458"/>
<path id="Vector_4" d="M151.688 92.4021V92.3072C151.563 90.8704 151.254 90.2863 151.017 90.0641C150.989 90.0367 150.954 90.0165 150.917 90.0053C150.879 89.994 150.839 89.992 150.801 89.9994C150.761 90.0063 150.723 90.0227 150.69 90.0473C150.658 90.072 150.632 90.104 150.615 90.1408C150.348 90.7087 150.552 91.9596 150.556 91.9596L150.578 92.099L150.439 92.0748C149.522 91.9173 148.631 91.6316 147.793 91.226L147.712 91.1836L147.744 91.1007C148.668 88.6495 148.553 87.5138 148.288 86.9944C148.218 86.8203 148.082 86.6809 147.91 86.6064C147.767 86.5638 147.614 86.5583 147.468 86.5904C147.322 86.6226 147.186 86.6914 147.073 86.7903C146.198 87.5784 146.507 90.2257 146.509 90.252L146.54 90.5026L146.338 90.3429C142.105 86.8651 145.167 81.3786 145.2 81.324L145.254 81.227L145.345 81.2917C145.547 81.423 154.459 86.0184 159.143 88.4292L159.246 88.4817L159.181 88.5767C156.685 92.2142 151.832 92.3981 151.783 92.4001L151.688 92.4021ZM150.839 89.7993C150.955 89.7996 151.065 89.8445 151.148 89.9246C151.405 90.1732 151.737 90.7693 151.872 92.198C152.551 92.1536 156.687 91.7454 158.947 88.5606C157.227 87.6754 146.483 82.1424 145.325 81.516C144.963 82.2132 142.732 86.8954 146.275 90.0297C146.216 89.3244 146.135 87.3582 146.928 86.6428C147.064 86.5234 147.228 86.4399 147.404 86.4C147.581 86.3601 147.764 86.3651 147.939 86.4144C148.05 86.456 148.152 86.5197 148.238 86.6017C148.324 86.6836 148.393 86.7822 148.44 86.8914C148.725 87.439 148.866 88.6111 147.945 91.0906C148.7 91.4461 149.496 91.706 150.316 91.8646C150.267 91.5089 150.172 90.5693 150.413 90.06C150.444 89.9942 150.49 89.9367 150.547 89.8924C150.605 89.8481 150.673 89.8182 150.744 89.8054C150.775 89.7994 150.807 89.7974 150.839 89.7993Z" fill="#2F2E41"/>
<path id="Vector_5" d="M0.202135 114.28C0.148525 114.28 0.0971113 114.258 0.0592037 114.22C0.0212961 114.183 0 114.131 0 114.078C0 114.024 0.0212961 113.973 0.0592037 113.935C0.0971113 113.897 0.148525 113.875 0.202135 113.875L157.091 113.726C157.144 113.726 157.196 113.747 157.234 113.785C157.272 113.823 157.293 113.874 157.293 113.928C157.293 113.982 157.272 114.033 157.234 114.071C157.196 114.109 157.144 114.13 157.091 114.13L0.194049 114.28H0.202135Z" fill="#2F2E41"/>
<path id="Vector_6" d="M144.336 0.107117H46.6405C44.6445 0.107117 43.0264 1.72482 43.0264 3.72035V62.3485C43.0264 64.344 44.6445 65.9617 46.6405 65.9617H144.336C146.332 65.9617 147.95 64.344 147.95 62.3485V3.72035C147.95 1.72482 146.332 0.107117 144.336 0.107117Z" fill="#E6E7E8"/>
<path id="Vector_7" d="M144.334 66.0627H46.6385C45.6538 66.0611 44.71 65.6692 44.0139 64.9729C43.3179 64.2767 42.9264 63.3329 42.9253 62.3485V3.71225C42.9264 2.72803 43.3179 1.78443 44.0141 1.08847C44.7102 0.392524 45.654 0.00106981 46.6385 0H144.334C145.319 0.000534803 146.263 0.391753 146.96 1.08776C147.657 1.78377 148.048 2.72768 148.049 3.71225V62.3485C148.048 63.3332 147.657 64.2773 146.96 64.9737C146.264 65.67 145.319 66.0617 144.334 66.0627ZM46.6385 0.208145C45.7087 0.20921 44.8172 0.578541 44.1591 1.23528C43.5011 1.89203 43.1301 2.78268 43.1274 3.71225V62.3485C43.1285 63.2793 43.4987 64.1717 44.1569 64.8301C44.815 65.4884 45.7075 65.859 46.6385 65.8606H144.334C145.266 65.8596 146.159 65.4892 146.817 64.8308C147.476 64.1723 147.846 63.2796 147.847 62.3485V3.71225C147.846 2.78128 147.476 1.88877 146.817 1.23066C146.158 0.572544 145.265 0.202617 144.334 0.202082L46.6385 0.208145Z" fill="#2F2E41"/>
<path id="Vector_8" d="M50.0125 5.42188C50.5852 5.42188 51.0495 4.95774 51.0495 4.38519C51.0495 3.81265 50.5852 3.34851 50.0125 3.34851C49.4398 3.34851 48.9756 3.81265 48.9756 4.38519C48.9756 4.95774 49.4398 5.42188 50.0125 5.42188Z" fill="white"/>
<path id="Vector_9" d="M50.0122 5.53101C49.7865 5.53141 49.5658 5.46486 49.378 5.33977C49.1903 5.21469 49.0438 5.03671 48.9573 4.82836C48.8707 4.62002 48.848 4.39069 48.8919 4.16941C48.9358 3.94814 49.0445 3.74487 49.204 3.58535C49.3636 3.42583 49.5669 3.31724 49.7882 3.27333C50.0096 3.22942 50.239 3.25216 50.4474 3.33867C50.6558 3.42519 50.8338 3.57158 50.9589 3.75932C51.084 3.94706 51.1506 4.1677 51.1502 4.39329C51.1497 4.69487 51.0296 4.98394 50.8163 5.19719C50.603 5.41044 50.3138 5.53048 50.0122 5.53101ZM50.0122 3.45563C49.8266 3.45523 49.6451 3.50988 49.4906 3.61267C49.3361 3.71546 49.2155 3.86176 49.1442 4.03306C49.0729 4.20436 49.0541 4.39296 49.09 4.57498C49.126 4.757 49.2152 4.92426 49.3462 5.0556C49.4773 5.18694 49.6444 5.27644 49.8264 5.31278C50.0084 5.34913 50.1971 5.33068 50.3686 5.25977C50.5401 5.18886 50.6867 5.06868 50.7899 4.91444C50.893 4.7602 50.9481 4.57883 50.9481 4.39329C50.9491 4.26965 50.9257 4.14701 50.8792 4.03245C50.8327 3.91788 50.7639 3.81365 50.6769 3.72575C50.59 3.63785 50.4864 3.56801 50.3724 3.52027C50.2583 3.47252 50.1359 3.44781 50.0122 3.44754V3.45563Z" fill="#2F2E41"/>
<path id="Vector_10" d="M54.5301 5.42188C55.1028 5.42188 55.5671 4.95774 55.5671 4.38519C55.5671 3.81265 55.1028 3.34851 54.5301 3.34851C53.9574 3.34851 53.4932 3.81265 53.4932 4.38519C53.4932 4.95774 53.9574 5.42188 54.5301 5.42188Z" fill="#E67E22"/>
<path id="Vector_11" d="M54.5298 5.53101C54.3041 5.53141 54.0834 5.46486 53.8956 5.33977C53.7078 5.21469 53.5614 5.03671 53.4749 4.82836C53.3883 4.62002 53.3656 4.39069 53.4095 4.16941C53.4534 3.94814 53.562 3.74487 53.7216 3.58535C53.8812 3.42583 54.0845 3.31724 54.3058 3.27333C54.5271 3.22942 54.7565 3.25216 54.9649 3.33867C55.1733 3.42519 55.3514 3.57158 55.4765 3.75932C55.6016 3.94706 55.6682 4.1677 55.6678 4.39329C55.6672 4.69487 55.5472 4.98394 55.3339 5.19719C55.1206 5.41044 54.8314 5.53048 54.5298 5.53101ZM54.5298 3.45563C54.3442 3.45523 54.1626 3.50988 54.0081 3.61267C53.8536 3.71546 53.7331 3.86176 53.6618 4.03306C53.5905 4.20436 53.5716 4.39296 53.6076 4.57498C53.6436 4.757 53.7327 4.92426 53.8638 5.0556C53.9949 5.18694 54.162 5.27644 54.344 5.31278C54.526 5.34913 54.7147 5.33068 54.8862 5.25977C55.0577 5.18886 55.2043 5.06868 55.3074 4.91444C55.4106 4.7602 55.4656 4.57883 55.4656 4.39329C55.4667 4.26965 55.4433 4.14701 55.3968 4.03245C55.3502 3.91788 55.2815 3.81365 55.1945 3.72575C55.1075 3.63785 55.004 3.56801 54.8899 3.52027C54.7758 3.47252 54.6534 3.44781 54.5298 3.44754V3.45563Z" fill="#E67E22"/>
<path id="Vector_12" d="M58.9383 5.42188C59.511 5.42188 59.9753 4.95774 59.9753 4.38519C59.9753 3.81265 59.511 3.34851 58.9383 3.34851C58.3656 3.34851 57.9014 3.81265 57.9014 4.38519C57.9014 4.95774 58.3656 5.42188 58.9383 5.42188Z" fill="#2F2E41"/>
<path id="Vector_13" d="M138.749 3.21716H74.5616C73.9532 3.21716 73.46 3.71025 73.46 4.31851V4.32053C73.46 4.92879 73.9532 5.42188 74.5616 5.42188H138.749C139.358 5.42188 139.851 4.92879 139.851 4.32053V4.31851C139.851 3.71025 139.358 3.21716 138.749 3.21716Z" fill="white"/>
<path id="Vector_14" d="M138.749 5.53101H74.5636C74.2698 5.49483 73.9994 5.35251 73.8033 5.13086C73.6073 4.9092 73.499 4.62351 73.499 4.32761C73.499 4.0317 73.6073 3.74601 73.8033 3.52436C73.9994 3.3027 74.2698 3.16038 74.5636 3.12421H138.749C139.043 3.16038 139.314 3.3027 139.51 3.52436C139.706 3.74601 139.814 4.0317 139.814 4.32761C139.814 4.62351 139.706 4.9092 139.51 5.13086C139.314 5.35251 139.043 5.49483 138.749 5.53101ZM74.5636 3.31821C74.3212 3.35094 74.0989 3.47046 73.9379 3.65459C73.7769 3.83872 73.6882 4.07497 73.6882 4.31952C73.6882 4.56407 73.7769 4.80032 73.9379 4.98446C74.0989 5.16859 74.3212 5.28811 74.5636 5.32084H138.749C138.992 5.28811 139.214 5.16859 139.375 4.98446C139.536 4.80032 139.625 4.56407 139.625 4.31952C139.625 4.07497 139.536 3.83872 139.375 3.65459C139.214 3.47046 138.992 3.35094 138.749 3.31821H74.5636Z" fill="#2F2E41"/>
<path id="Vector_15" d="M87.3137 3.21716H81.6944C81.086 3.21716 80.5928 3.71025 80.5928 4.31851V4.32053C80.5928 4.92879 81.086 5.42188 81.6944 5.42188H87.3137C87.9222 5.42188 88.4154 4.92879 88.4154 4.32053V4.31851C88.4154 3.71025 87.9222 3.21716 87.3137 3.21716Z" fill="#2F2E41"/>
<path id="Vector_16" d="M77.1469 8.71783H47.3037V61.623H77.1469V8.71783Z" fill="white"/>
<path id="Vector_17" d="M77.2479 61.722H47.2026V8.61682H77.2479V61.722ZM47.4048 61.52H77.0458V8.8189H47.4048V61.52Z" fill="#2F2E41"/>
<path id="Vector_18" d="M110.317 8.52185H80.4736V61.427H110.317V8.52185Z" fill="white"/>
<path id="Vector_19" d="M110.418 61.528H80.373V8.42078H110.418V61.528ZM80.5752 61.3259H110.216V8.62286H80.5752V61.3259Z" fill="#2F2E41"/>
<path id="Vector_20" d="M143.6 8.71783H113.757V61.623H143.6V8.71783Z" fill="white"/>
<path id="Vector_21" d="M143.702 61.722H113.656V8.61682H143.702V61.722ZM113.858 61.52H143.499V8.8189H113.858V61.52Z" fill="#2F2E41"/>
<path id="Vector_22" d="M69.8982 15.7523H54.5845V24.4257H69.8982V15.7523Z" fill="#E6E7E8"/>
<path id="Vector_23" d="M69.9992 24.5268H54.4834V15.6513H69.9992V24.5268ZM54.6855 24.3247H69.7971V15.8534H54.6855V24.3247Z" fill="#2F2E41"/>
<path id="Vector_24" d="M67.7474 18.24H56.8564C56.8296 18.24 56.8039 18.2293 56.785 18.2104C56.766 18.1914 56.7554 18.1657 56.7554 18.1389C56.7554 18.1121 56.766 18.0864 56.785 18.0675C56.8039 18.0485 56.8296 18.0379 56.8564 18.0379H67.7474C67.7743 18.0379 67.8 18.0485 67.8189 18.0675C67.8379 18.0864 67.8485 18.1121 67.8485 18.1389C67.8485 18.1657 67.8379 18.1914 67.8189 18.2104C67.8 18.2293 67.7743 18.24 67.7474 18.24Z" fill="#2F2E41"/>
<path id="Vector_25" d="M67.7474 20.1031H56.8564C56.8296 20.1031 56.8039 20.0925 56.785 20.0735C56.766 20.0546 56.7554 20.0289 56.7554 20.0021C56.7554 19.9753 56.766 19.9496 56.785 19.9307C56.8039 19.9117 56.8296 19.9011 56.8564 19.9011H67.7474C67.7743 19.9011 67.8 19.9117 67.8189 19.9307C67.8379 19.9496 67.8485 19.9753 67.8485 20.0021C67.8485 20.0289 67.8379 20.0546 67.8189 20.0735C67.8 20.0925 67.7743 20.1031 67.7474 20.1031Z" fill="#2F2E41"/>
<path id="Vector_26" d="M65.1824 21.9644H56.8564C56.8296 21.9644 56.8039 21.9537 56.785 21.9348C56.766 21.9158 56.7554 21.8901 56.7554 21.8633C56.7554 21.8365 56.766 21.8108 56.785 21.7919C56.8039 21.7729 56.8296 21.7623 56.8564 21.7623H65.1824C65.2092 21.7623 65.2349 21.7729 65.2538 21.7919C65.2728 21.8108 65.2834 21.8365 65.2834 21.8633C65.2834 21.8901 65.2728 21.9158 65.2538 21.9348C65.2349 21.9537 65.2092 21.9644 65.1824 21.9644Z" fill="#2F2E41"/>
<path id="Vector_27" d="M69.8982 28.2673H54.5845V36.9406H69.8982V28.2673Z" fill="#E6E7E8"/>
<path id="Vector_28" d="M69.9992 37.0417H54.4834V28.1642H69.9992V37.0417ZM54.6855 36.8396H69.7971V28.3663H54.6855V36.8396Z" fill="#2F2E41"/>
<path id="Vector_29" d="M67.7472 30.7549H60.5229C60.4961 30.7549 60.4704 30.7443 60.4515 30.7253C60.4325 30.7064 60.4219 30.6807 60.4219 30.6539C60.4224 30.6273 60.4332 30.6019 60.452 30.583C60.4709 30.5642 60.4963 30.5534 60.5229 30.5529H67.7472C67.774 30.5529 67.7997 30.5635 67.8187 30.5824C67.8376 30.6014 67.8483 30.6271 67.8483 30.6539C67.8483 30.6807 67.8376 30.7064 67.8187 30.7253C67.7997 30.7443 67.774 30.7549 67.7472 30.7549Z" fill="#2F2E41"/>
<path id="Vector_30" d="M67.7472 32.61H60.5229C60.4961 32.61 60.4704 32.5994 60.4515 32.5804C60.4325 32.5615 60.4219 32.5358 60.4219 32.509C60.4224 32.4824 60.4332 32.457 60.452 32.4381C60.4709 32.4193 60.4963 32.4085 60.5229 32.408H67.7472C67.774 32.408 67.7997 32.4186 67.8187 32.4376C67.8376 32.4565 67.8483 32.4822 67.8483 32.509C67.8483 32.5358 67.8376 32.5615 67.8187 32.5804C67.7997 32.5994 67.774 32.61 67.7472 32.61Z" fill="#2F2E41"/>
<path id="Vector_31" d="M66.0453 34.4813H60.5229C60.4961 34.4813 60.4704 34.4707 60.4515 34.4517C60.4325 34.4328 60.4219 34.4071 60.4219 34.3803C60.4219 34.3535 60.4325 34.3278 60.4515 34.3088C60.4704 34.2899 60.4961 34.2792 60.5229 34.2792H66.0453C66.0721 34.2792 66.0978 34.2899 66.1167 34.3088C66.1357 34.3278 66.1463 34.3535 66.1463 34.3803C66.1463 34.4071 66.1357 34.4328 66.1167 34.4517C66.0978 34.4707 66.0721 34.4813 66.0453 34.4813Z" fill="#2F2E41"/>
<path id="Vector_32" d="M57.7418 31.2541C57.7156 31.2535 57.6905 31.2434 57.6711 31.2258L56.9899 30.5771C56.9791 30.5683 56.9704 30.5573 56.9641 30.5449C56.9578 30.5325 56.9541 30.519 56.9533 30.5051C56.9525 30.4912 56.9545 30.4773 56.9593 30.4643C56.9642 30.4512 56.9716 30.4393 56.9812 30.4293C56.9908 30.4192 57.0024 30.4113 57.0153 30.4059C57.0281 30.4006 57.0419 30.3979 57.0558 30.3982C57.0697 30.3984 57.0834 30.4015 57.0961 30.4072C57.1087 30.413 57.12 30.4213 57.1293 30.4316L57.7357 31.0096L58.894 29.8193C58.9127 29.8 58.9384 29.789 58.9653 29.7886C58.9922 29.7882 59.0182 29.7985 59.0375 29.8173C59.0568 29.836 59.0678 29.8617 59.0682 29.8886C59.0686 29.9155 59.0583 29.9415 59.0395 29.9608L57.8105 31.2238C57.7923 31.2422 57.7677 31.253 57.7418 31.2541Z" fill="#2F2E41"/>
<path id="Vector_33" d="M57.776 33.1658C57.7498 33.1655 57.7245 33.1554 57.7053 33.1375L57.0221 32.4888C57.0126 32.4794 57.0051 32.4682 57 32.4559C56.9948 32.4436 56.9922 32.4304 56.9922 32.4171C56.9922 32.4037 56.9948 32.3905 57 32.3782C57.0051 32.3659 57.0126 32.3547 57.0221 32.3453C57.0313 32.3359 57.0423 32.3284 57.0545 32.3233C57.0666 32.3182 57.0797 32.3156 57.0928 32.3156C57.106 32.3156 57.1191 32.3182 57.1312 32.3233C57.1433 32.3284 57.1544 32.3359 57.1636 32.3453L57.77 32.9233L58.9302 31.733C58.9395 31.7235 58.9506 31.7158 58.9628 31.7106C58.9751 31.7053 58.9882 31.7025 59.0016 31.7023C59.0149 31.7021 59.0281 31.7045 59.0405 31.7095C59.0529 31.7144 59.0642 31.7217 59.0737 31.731C59.0833 31.7403 59.0909 31.7514 59.0962 31.7636C59.1015 31.7758 59.1043 31.789 59.1045 31.8023C59.1047 31.8156 59.1022 31.8289 59.0973 31.8412C59.0924 31.8536 59.0851 31.8649 59.0758 31.8745L57.8427 33.1355C57.825 33.1534 57.8012 33.1642 57.776 33.1658Z" fill="#2F2E41"/>
<path id="Vector_34" d="M57.7076 35.035C57.6819 35.0349 57.6573 35.0247 57.6389 35.0067L56.9557 34.3581C56.945 34.3492 56.9362 34.3383 56.9299 34.3259C56.9236 34.3135 56.9199 34.2999 56.9191 34.286C56.9183 34.2721 56.9204 34.2583 56.9252 34.2452C56.93 34.2322 56.9374 34.2203 56.947 34.2102C56.9567 34.2002 56.9683 34.1922 56.9811 34.1869C56.9939 34.1815 57.0077 34.1789 57.0216 34.1791C57.0355 34.1793 57.0492 34.1824 57.0619 34.1882C57.0745 34.1939 57.0859 34.2022 57.0952 34.2126L57.7016 34.7925L58.8598 33.6003C58.8786 33.581 58.9042 33.5699 58.9311 33.5695C58.9581 33.5692 58.984 33.5795 59.0033 33.5982C59.0226 33.617 59.0337 33.6426 59.034 33.6696C59.0344 33.6965 59.0241 33.7224 59.0053 33.7417L57.7764 35.0047C57.7581 35.0231 57.7335 35.0339 57.7076 35.035Z" fill="#2F2E41"/>
<path id="Vector_35" d="M102.834 15.8817H87.5205V24.555H102.834V15.8817Z" fill="#E6E7E8"/>
<path id="Vector_36" d="M102.935 24.6561H87.4189V15.7806H102.935V24.6561ZM87.6211 24.454H102.733V15.9827H87.6211V24.454Z" fill="#2F2E41"/>
<path id="Vector_37" d="M100.679 18.3693H89.7925C89.7657 18.3693 89.74 18.3587 89.721 18.3397C89.7021 18.3208 89.6914 18.2951 89.6914 18.2683C89.6914 18.2415 89.7021 18.2158 89.721 18.1968C89.74 18.1779 89.7657 18.1672 89.7925 18.1672H100.679C100.706 18.1672 100.732 18.1779 100.751 18.1968C100.77 18.2158 100.781 18.2415 100.781 18.2683C100.781 18.2951 100.77 18.3208 100.751 18.3397C100.732 18.3587 100.706 18.3693 100.679 18.3693Z" fill="#2F2E41"/>
<path id="Vector_38" d="M100.679 20.2325H89.7925C89.7657 20.2325 89.74 20.2218 89.721 20.2029C89.7021 20.1839 89.6914 20.1582 89.6914 20.1314C89.6914 20.1046 89.7021 20.0789 89.721 20.06C89.74 20.041 89.7657 20.0304 89.7925 20.0304H100.679C100.706 20.0304 100.732 20.041 100.751 20.06C100.77 20.0789 100.781 20.1046 100.781 20.1314C100.781 20.1582 100.77 20.1839 100.751 20.2029C100.732 20.2218 100.706 20.2325 100.679 20.2325Z" fill="#2F2E41"/>
<path id="Vector_39" d="M98.1184 22.1017H89.7925C89.7657 22.1017 89.74 22.0911 89.721 22.0721C89.7021 22.0532 89.6914 22.0275 89.6914 22.0007C89.6914 21.9739 89.7021 21.9482 89.721 21.9293C89.74 21.9103 89.7657 21.8997 89.7925 21.8997H98.1184C98.1452 21.8997 98.1709 21.9103 98.1899 21.9293C98.2088 21.9482 98.2195 21.9739 98.2195 22.0007C98.2195 22.0275 98.2088 22.0532 98.1899 22.0721C98.1709 22.0911 98.1452 22.1017 98.1184 22.1017Z" fill="#2F2E41"/>
<path id="Vector_40" d="M136.289 28.2612H120.976V36.9346H136.289V28.2612Z" fill="#E6E7E8"/>
<path id="Vector_41" d="M136.39 37.0357H120.875V28.1642H136.39V37.0357ZM121.077 36.8336H136.188V28.3663H121.077V36.8336Z" fill="#2F2E41"/>
<path id="Vector_42" d="M134.135 30.7488H123.246C123.219 30.7488 123.193 30.7382 123.174 30.7192C123.155 30.7003 123.145 30.6746 123.145 30.6478C123.145 30.6212 123.156 30.5958 123.175 30.5769C123.194 30.5581 123.219 30.5473 123.246 30.5468H134.135C134.161 30.5468 134.187 30.5574 134.206 30.5763C134.225 30.5953 134.236 30.621 134.236 30.6478C134.236 30.6746 134.225 30.7003 134.206 30.7192C134.187 30.7382 134.161 30.7488 134.135 30.7488Z" fill="#2F2E41"/>
<path id="Vector_43" d="M134.135 32.61H123.246C123.219 32.61 123.193 32.5994 123.174 32.5804C123.155 32.5615 123.145 32.5358 123.145 32.509C123.145 32.4822 123.155 32.4565 123.174 32.4376C123.193 32.4186 123.219 32.408 123.246 32.408H134.135C134.161 32.408 134.187 32.4186 134.206 32.4376C134.225 32.4565 134.236 32.4822 134.236 32.509C134.236 32.5358 134.225 32.5615 134.206 32.5804C134.187 32.5994 134.161 32.61 134.135 32.61Z" fill="#2F2E41"/>
<path id="Vector_44" d="M131.574 34.4753H123.246C123.219 34.4753 123.193 34.4646 123.174 34.4457C123.155 34.4267 123.145 34.401 123.145 34.3742C123.145 34.3474 123.155 34.3217 123.174 34.3028C123.193 34.2838 123.219 34.2732 123.246 34.2732H131.574C131.6 34.2732 131.626 34.2838 131.645 34.3028C131.664 34.3217 131.675 34.3474 131.675 34.3742C131.675 34.401 131.664 34.4267 131.645 34.4457C131.626 34.4646 131.6 34.4753 131.574 34.4753Z" fill="#2F2E41"/>
<path id="Vector_45" d="M102.834 28.3966H87.5205V37.07H102.834V28.3966Z" fill="#E6E7E8"/>
<path id="Vector_46" d="M102.935 37.1731H87.4189V28.2956H102.935V37.1731ZM87.6211 36.971H102.733V28.4977H87.6211V36.971Z" fill="#2F2E41"/>
<path id="Vector_47" d="M102.834 40.4529H87.5205V49.1263H102.834V40.4529Z" fill="#E6E7E8"/>
<path id="Vector_48" d="M102.935 49.2273H87.4189V40.3518H102.935V49.2273ZM87.6211 49.0252H102.733V40.5539H87.6211V49.0252Z" fill="#2F2E41"/>
<path id="Vector_49" d="M100.679 30.8843H93.459C93.4322 30.8843 93.4065 30.8736 93.3875 30.8547C93.3686 30.8357 93.3579 30.81 93.3579 30.7832C93.3584 30.7566 93.3692 30.7312 93.3881 30.7124C93.4069 30.6935 93.4323 30.6827 93.459 30.6822H100.679C100.706 30.6822 100.732 30.6928 100.751 30.7118C100.77 30.7307 100.78 30.7564 100.78 30.7832C100.78 30.81 100.77 30.8357 100.751 30.8547C100.732 30.8736 100.706 30.8843 100.679 30.8843Z" fill="#2F2E41"/>
<path id="Vector_50" d="M100.679 32.7474H93.459C93.4322 32.7474 93.4065 32.7368 93.3875 32.7178C93.3686 32.6989 93.3579 32.6732 93.3579 32.6464C93.3584 32.6198 93.3692 32.5944 93.3881 32.5755C93.4069 32.5567 93.4323 32.5459 93.459 32.5453H100.679C100.706 32.5453 100.732 32.556 100.751 32.5749C100.77 32.5939 100.78 32.6196 100.78 32.6464C100.78 32.6732 100.77 32.6989 100.751 32.7178C100.732 32.7368 100.706 32.7474 100.679 32.7474Z" fill="#2F2E41"/>
<path id="Vector_51" d="M98.9813 34.6107H93.459C93.4322 34.6107 93.4065 34.6 93.3875 34.5811C93.3686 34.5621 93.3579 34.5364 93.3579 34.5096C93.3579 34.4828 93.3686 34.4571 93.3875 34.4382C93.4065 34.4192 93.4322 34.4086 93.459 34.4086H98.9813C99.0081 34.4086 99.0338 34.4192 99.0528 34.4382C99.0717 34.4571 99.0824 34.4828 99.0824 34.5096C99.0824 34.5364 99.0717 34.5621 99.0528 34.5811C99.0338 34.6 99.0081 34.6107 98.9813 34.6107Z" fill="#2F2E41"/>
<path id="Vector_52" d="M90.6774 31.3834C90.6511 31.3831 90.6258 31.373 90.6066 31.3551L89.9254 30.7064C89.9147 30.6975 89.9059 30.6866 89.8996 30.6742C89.8933 30.6618 89.8897 30.6482 89.8888 30.6344C89.888 30.6205 89.8901 30.6066 89.8949 30.5935C89.8997 30.5805 89.9071 30.5686 89.9168 30.5585C89.9264 30.5485 89.938 30.5406 89.9508 30.5352C89.9636 30.5299 89.9774 30.5272 89.9913 30.5274C90.0052 30.5277 90.0189 30.5307 90.0316 30.5365C90.0443 30.5423 90.0556 30.5506 90.0649 30.5609L90.6713 31.1409L91.8295 29.9486C91.8483 29.9293 91.8739 29.9182 91.9009 29.9179C91.9278 29.9175 91.9537 29.9278 91.973 29.9466C91.9923 29.9653 92.0034 29.991 92.0038 30.0179C92.0041 30.0448 91.9938 30.0707 91.9751 30.09L90.7461 31.3531C90.7278 31.3714 90.7033 31.3823 90.6774 31.3834Z" fill="#2F2E41"/>
<path id="Vector_53" d="M90.7119 33.2951C90.6856 33.2948 90.6604 33.2847 90.6412 33.2668L89.96 32.61C89.9482 32.6016 89.9384 32.5908 89.9311 32.5783C89.9239 32.5658 89.9194 32.5519 89.918 32.5375C89.9166 32.5232 89.9182 32.5086 89.9229 32.495C89.9276 32.4813 89.9351 32.4688 89.9451 32.4583C89.955 32.4478 89.9671 32.4395 89.9804 32.4341C89.9938 32.4286 90.0082 32.4261 90.0227 32.4267C90.0371 32.4273 90.0513 32.431 90.0642 32.4375C90.0771 32.444 90.0884 32.4532 90.0975 32.4645L90.7039 33.0445L91.8641 31.8522C91.8734 31.8427 91.8845 31.835 91.8967 31.8297C91.909 31.8245 91.9221 31.8217 91.9354 31.8215C91.9488 31.8213 91.962 31.8237 91.9744 31.8287C91.9868 31.8336 91.9981 31.8409 92.0076 31.8502C92.0172 31.8595 92.0248 31.8706 92.0301 31.8828C92.0354 31.895 92.0382 31.9082 92.0384 31.9215C92.0385 31.9348 92.0361 31.9481 92.0312 31.9604C92.0263 31.9728 92.0189 31.9841 92.0096 31.9937L90.7908 33.2648C90.7805 33.2751 90.7682 33.2831 90.7546 33.2884C90.741 33.2936 90.7265 33.2959 90.7119 33.2951Z" fill="#2F2E41"/>
<path id="Vector_54" d="M90.643 35.1724C90.6173 35.1723 90.5926 35.1621 90.5743 35.1441L89.8911 34.4954C89.8816 34.4862 89.8742 34.4752 89.8691 34.4631C89.864 34.4509 89.8613 34.4379 89.8613 34.4247C89.8613 34.4115 89.864 34.3985 89.8691 34.3864C89.8742 34.3742 89.8816 34.3632 89.8911 34.354C89.9005 34.3445 89.9116 34.337 89.9239 34.3319C89.9363 34.3267 89.9495 34.3241 89.9628 34.3241C89.9762 34.3241 89.9894 34.3267 90.0017 34.3319C90.014 34.337 90.0252 34.3445 90.0346 34.354L90.641 34.934L91.7992 33.7417C91.8085 33.7321 91.8196 33.7245 91.8318 33.7192C91.8441 33.7139 91.8572 33.7111 91.8705 33.7109C91.8839 33.7108 91.8971 33.7132 91.9095 33.7181C91.9219 33.723 91.9332 33.7304 91.9427 33.7397C91.9523 33.7489 91.9599 33.76 91.9652 33.7723C91.9705 33.7845 91.9733 33.7977 91.9735 33.811C91.9736 33.8243 91.9712 33.8375 91.9663 33.8499C91.9614 33.8623 91.954 33.8736 91.9447 33.8831L90.7158 35.1461C90.6958 35.164 90.6697 35.1734 90.643 35.1724Z" fill="#2F2E41"/>
<path id="Vector_55" d="M100.794 42.9405H90.0005C89.9737 42.9405 89.948 42.9298 89.929 42.9109C89.9101 42.8919 89.8994 42.8662 89.8994 42.8394C89.8999 42.8128 89.9107 42.7874 89.9296 42.7686C89.9484 42.7497 89.9738 42.7389 90.0005 42.7384H100.794C100.821 42.7384 100.847 42.7491 100.866 42.768C100.885 42.7869 100.896 42.8126 100.896 42.8394C100.896 42.8662 100.885 42.8919 100.866 42.9109C100.847 42.9298 100.821 42.9405 100.794 42.9405Z" fill="#2F2E41"/>
<path id="Vector_56" d="M96.683 44.9977H90.1035C90.0769 44.9972 90.0515 44.9864 90.0326 44.9675C90.0138 44.9487 90.003 44.9233 90.0024 44.8966C90.0024 44.8698 90.0131 44.8441 90.032 44.8252C90.051 44.8062 90.0767 44.7956 90.1035 44.7956H96.683C96.7098 44.7956 96.7355 44.8062 96.7544 44.8252C96.7734 44.8441 96.7841 44.8698 96.7841 44.8966C96.7841 44.9234 96.7734 44.9491 96.7544 44.9681C96.7355 44.987 96.7098 44.9977 96.683 44.9977Z" fill="#2F2E41"/>
<path id="Vector_57" d="M136.289 16.0615H120.976V24.7349H136.289V16.0615Z" fill="#E6E7E8"/>
<path id="Vector_58" d="M136.39 24.8359H120.875V15.9604H136.39V24.8359ZM121.077 24.6338H136.188V16.1625H121.077V24.6338Z" fill="#2F2E41"/>
<path id="Vector_59" d="M134.047 18.5491H123.253C123.227 18.5491 123.201 18.5385 123.182 18.5195C123.163 18.5006 123.152 18.4749 123.152 18.4481C123.152 18.4213 123.163 18.3956 123.182 18.3766C123.201 18.3577 123.227 18.347 123.253 18.347H134.047C134.074 18.347 134.1 18.3577 134.119 18.3766C134.138 18.3956 134.148 18.4213 134.148 18.4481C134.148 18.4747 134.137 18.5001 134.118 18.519C134.099 18.5378 134.074 18.5486 134.047 18.5491Z" fill="#2F2E41"/>
<path id="Vector_60" d="M129.942 20.6043H123.365C123.338 20.6043 123.312 20.5937 123.293 20.5747C123.274 20.5558 123.264 20.5301 123.264 20.5033C123.264 20.4765 123.274 20.4508 123.293 20.4318C123.312 20.4129 123.338 20.4022 123.365 20.4022H129.942C129.969 20.4022 129.995 20.4129 130.014 20.4318C130.033 20.4508 130.043 20.4765 130.043 20.5033C130.043 20.5301 130.033 20.5558 130.014 20.5747C129.995 20.5937 129.969 20.6043 129.942 20.6043Z" fill="#2F2E41"/>
<path id="Vector_61" d="M51.609 113.859L20.9634 113.985L14.4264 114.011L9.02736 85.0484C9.02736 85.0484 7.51135 79.7256 14.1211 78.0543H14.1818L39.7538 77.9775L51.609 113.859Z" fill="#E6E7E8"/>
<path id="Vector_62" d="M14.3417 114.112L14.3275 114.029L8.92649 85.0666C8.59534 83.6933 8.7923 82.2457 9.47832 81.0108C10.3232 79.5457 11.8756 78.5171 14.0951 77.9573H14.1193H14.182L39.8207 77.8765L39.843 77.9472L51.7487 113.96L14.3417 114.112ZM14.1395 78.1553C11.9787 78.703 10.4728 79.6952 9.6562 81.1098C8.56669 82.9972 9.12863 84.9999 9.12863 85.0201L14.5135 113.918L51.4738 113.768L39.6732 78.0785L14.1395 78.1553Z" fill="#2F2E41"/>
<path id="Vector_63" d="M20.9634 113.985L14.4264 114.011L9.02736 85.0484C9.02736 85.0484 7.51135 79.7255 14.1211 78.0543H14.1818L20.9634 113.985Z" fill="#D1D3D4"/>
<path id="Vector_64" d="M14.3417 114.112L14.3275 114.029L8.92649 85.0665C8.59534 83.6932 8.7923 82.2457 9.47832 81.0107C10.3232 79.5456 11.8756 78.517 14.0951 77.9573H14.1193H14.2588L14.2729 78.0401L21.0829 114.088L14.3417 114.112ZM14.0951 78.1674C11.9605 78.7151 10.4668 79.7053 9.64811 81.1098C8.56669 82.9972 9.12863 84.9998 9.12863 85.0201L14.5135 113.918L20.8443 113.892L14.0951 78.1674Z" fill="#2F2E41"/>
<path id="Vector_65" d="M63.529 75.4515C63.529 75.5445 63.5149 75.6354 63.5048 75.7263C63.0661 80.2025 58.9204 83.3206 54.4552 82.773C48.6317 82.0576 43.9624 76.6175 43.9624 76.6175C52.1165 77.0823 51.1847 69.5143 51.1847 69.5143L52.7553 66.3699L58.1118 68.0007L58.417 71.0865C58.4602 71.5919 58.5794 72.0879 58.7708 72.5577C60.0503 75.6536 63.529 75.4515 63.529 75.4515Z" fill="white"/>
<path id="Vector_66" d="M55.4557 82.9286C55.1178 82.9287 54.7803 82.9078 54.445 82.8659C48.6498 82.1546 43.934 76.7307 43.8875 76.6761L43.7339 76.4963L43.9704 76.5104C46.4405 76.6499 48.3102 76.0618 49.5291 74.7604C51.4514 72.7113 51.0896 69.5527 51.0855 69.5204V69.4901L52.7026 66.2426L58.2067 67.9179L58.518 71.0704C58.5613 71.5657 58.6778 72.052 58.8637 72.5132C60.1007 75.498 63.4865 75.3424 63.5229 75.3424H63.6361V75.4576C63.6361 75.5505 63.6219 75.6415 63.6118 75.7344C63.5085 76.7819 63.195 77.7978 62.69 78.7215C62.185 79.6451 61.499 80.4574 60.6728 81.1098C59.1895 82.2884 57.3504 82.9295 55.4557 82.9286ZM44.2008 76.7226C45.07 77.6663 49.3472 82.0374 54.4672 82.6658C55.5441 82.7977 56.6363 82.7141 57.6805 82.4199C58.7247 82.1257 59.7 81.6268 60.5495 80.9522C61.3534 80.3151 62.0206 79.5225 62.5114 78.6219C63.0021 77.7212 63.3062 76.731 63.4056 75.7102C63.4056 75.6556 63.4157 75.6031 63.4198 75.5485C62.7992 75.5485 59.8379 75.3889 58.6777 72.59C58.4831 72.111 58.3612 71.6056 58.3159 71.0906L58.0187 68.0715L52.8077 66.4851L51.2877 69.5164C51.32 69.8558 51.5585 72.879 49.6706 74.8877C48.4537 76.2093 46.6163 76.8236 44.2008 76.7287V76.7226Z" fill="#2F2E41"/>
<path id="Vector_67" d="M98.5626 82.8153C98.0588 81.9968 97.7702 81.0643 97.7235 80.1043C97.6769 79.1444 97.8738 78.1883 98.2958 77.3248C99.0114 75.8536 100.006 73.1841 98.9629 71.2764C98.9629 71.2764 98.5424 69.9609 95.6054 68.7727C94.7575 68.4352 93.886 68.1603 92.9979 67.9502L85.3026 66.2628L85.147 66.2426C84.203 66.1395 79.2527 65.802 78.0419 69.9791C77.7384 70.8873 77.7034 71.8638 77.9411 72.7915C78.1788 73.7191 78.6792 74.5585 79.3821 75.209C79.3821 75.209 80.7223 76.4619 79.8147 78.4423C79.8147 78.4423 77.8257 81.1057 79.37 86.1841C79.6237 87.0055 79.6961 87.8721 79.5822 88.7242L79.0789 92.4001L72.6106 81.9646C72.6106 81.9646 68.1758 73.275 63.5145 75.4454C63.5145 75.5384 63.5004 75.6293 63.4903 75.7202C63.0516 80.1964 58.9059 83.3145 54.4407 82.7669C48.6172 82.0515 43.9479 76.6114 43.9479 76.6114C43.9479 76.6114 39.5232 73.9844 36.6124 78.9374C36.6124 78.9374 36.3194 79.2304 33.0003 87.3218L24.0437 107.504C24.0437 107.504 21.5797 112.622 25.5335 113.92H69.6352C69.6352 113.92 70.185 110.27 69.3906 106.55C69.0591 105 68.4951 103.438 67.5613 102.124L68.5335 96.4195L82.212 112.17H89.8001L97.7723 87.2793C98.3195 86.7761 98.706 86.1227 98.8837 85.401C99.0613 84.6792 99.022 83.9211 98.7708 83.2215C98.7289 83.0968 98.6711 82.978 98.599 82.8679L98.5626 82.8153ZM39.0441 103.434L41.1726 96.1366L43.5295 102.217L39.0441 103.434Z" fill="white"/>
<path id="Vector_68" d="M69.7221 114.027H25.5153C24.5269 113.702 23.8437 113.112 23.494 112.275C22.643 110.276 23.9185 107.583 23.973 107.469L32.9296 87.2915C35.901 80.0448 36.4508 79.0364 36.5458 78.897C37.4736 77.3208 38.65 76.3386 40.0448 75.9789C42.1369 75.4394 43.9439 76.4882 44.0207 76.5347L44.045 76.5549C44.0915 76.6094 48.7568 81.9747 54.4731 82.6759C55.5499 82.8078 56.6422 82.7241 57.6864 82.43C58.7306 82.1358 59.7059 81.6368 60.5554 80.9623C61.3593 80.3252 62.0265 79.5326 62.5173 78.632C63.008 77.7313 63.3121 76.741 63.4115 75.7203C63.4115 75.6313 63.4277 75.5404 63.4337 75.4495V75.3909L63.4863 75.3646C68.1778 73.174 72.5278 81.5705 72.7097 81.9282L79.0203 92.1172L79.4853 88.7202C79.5994 87.8835 79.5304 87.032 79.2831 86.2245C77.7873 81.3058 79.6065 78.5858 79.7359 78.4019C80.5929 76.5124 79.3741 75.3363 79.3316 75.2858C76.8454 72.9335 77.9551 69.9751 77.9652 69.9468C79.1962 65.703 84.1869 66.0365 85.1774 66.1476C85.2805 66.1577 85.337 66.1678 85.337 66.1678L93.0141 67.8512C93.9088 68.0631 94.787 68.3394 95.6419 68.6777C98.587 69.872 99.0397 71.1896 99.0559 71.2462C100.119 73.1862 99.0923 75.9163 98.3848 77.3693C97.9676 78.2163 97.7726 79.1556 97.8182 80.0987C97.8638 81.0419 98.1485 81.9579 98.6456 82.7608L98.682 82.8194C98.7586 82.9373 98.8204 83.0642 98.8659 83.1973C99.1167 83.9118 99.1548 84.6838 98.9754 85.4195C98.796 86.1552 98.4069 86.8231 97.8552 87.342L89.8729 112.277H82.1656L82.1352 112.241L68.5922 96.6519L67.6624 102.108C68.4952 103.294 69.1077 104.784 69.4816 106.538C70.2699 110.232 69.7323 113.906 69.7262 113.944L69.7221 114.027ZM25.5638 113.825H69.5463C69.6211 113.253 70.0051 109.923 69.2916 106.578C68.9197 104.834 68.3092 103.357 67.4724 102.189L67.4481 102.155V102.112L68.4588 96.1973L82.2464 112.075H89.7133L97.6733 87.2187L97.6976 87.1985C98.2255 86.7079 98.599 86.0741 98.7724 85.3746C98.9458 84.6751 98.9116 83.9403 98.6739 83.26C98.6338 83.1426 98.5795 83.0306 98.5122 82.9265L98.4738 82.8679C97.9589 82.0361 97.6639 81.0872 97.6165 80.1101C97.5691 79.1331 97.7709 78.16 98.2029 77.2824C98.8942 75.8678 99.8988 73.2023 98.872 71.325C98.8598 71.2947 98.4091 70.0175 95.5651 68.8656C94.7216 68.5303 93.8548 68.2568 92.9717 68.0472L85.2825 66.3578L85.1369 66.3396C84.1768 66.2325 79.3256 65.9112 78.139 70.0034C78.1249 70.0397 77.0677 72.8729 79.4509 75.1322C79.465 75.1443 80.8335 76.4558 79.9077 78.4868L79.8956 78.505C79.8774 78.5312 77.9571 81.1927 79.4671 86.1578C79.7262 86.9927 79.8 87.8741 79.6833 88.7404L79.1416 92.6952L72.5318 82.0192C72.4853 81.9262 68.1192 73.4953 63.6238 75.5141C63.6238 75.5869 63.6177 75.6596 63.6056 75.7324C63.5033 76.7798 63.1909 77.7958 62.6869 78.7198C62.183 79.6437 61.4979 80.4566 60.6726 81.1098C59.8025 81.8015 58.8033 82.313 57.7334 82.6145C56.6634 82.916 55.5441 83.0014 54.4408 82.8659C48.781 82.1728 44.1622 76.9934 43.8954 76.6903C43.7256 76.5953 42.0014 75.6697 40.0852 76.1648C38.745 76.5104 37.6111 77.4622 36.7116 78.994L36.6954 79.0142C36.6954 79.0263 36.2911 79.5962 33.1075 87.3642L24.1489 107.548C24.1348 107.579 22.8552 110.276 23.6719 112.196C24.0054 112.97 24.6401 113.518 25.5638 113.825ZM38.9047 103.579L41.1666 95.8214L43.6731 102.288L38.9047 103.579ZM41.1949 96.4499L39.1998 103.29L43.4022 102.149L41.1949 96.4499Z" fill="#2F2E41"/>
<path id="Vector_69" d="M39.0447 103.541C39.023 103.541 39.002 103.534 38.9845 103.522C38.967 103.509 38.9541 103.491 38.9476 103.47C38.94 103.444 38.9427 103.417 38.9551 103.393C38.9676 103.369 38.9888 103.351 39.0143 103.343C39.8471 103.084 59.3026 97.0783 62.187 101.245C62.6762 100.924 65.0816 99.572 67.6305 102.054C67.6412 102.063 67.6498 102.074 67.656 102.086C67.6621 102.099 67.6656 102.112 67.6663 102.126C67.6669 102.14 67.6647 102.154 67.6597 102.167C67.6547 102.18 67.6471 102.192 67.6373 102.202C67.6275 102.212 67.6158 102.219 67.6028 102.225C67.5899 102.23 67.5761 102.232 67.5621 102.232C67.5482 102.231 67.5345 102.228 67.522 102.222C67.5094 102.216 67.4982 102.208 67.489 102.197C64.7744 99.5457 62.3245 101.389 62.2214 101.457C62.2106 101.466 62.1979 101.473 62.1843 101.476C62.1706 101.48 62.1564 101.48 62.1426 101.478C62.1144 101.472 62.0897 101.455 62.0738 101.431C59.4845 97.2137 39.2791 103.452 39.075 103.527C39.066 103.534 39.0557 103.538 39.0447 103.541Z" fill="#2F2E41"/>
<path id="Vector_70" d="M68.5335 96.5267C68.5203 96.5266 68.5072 96.5239 68.4951 96.5187C68.4829 96.5135 68.4719 96.5059 68.4628 96.4964C68.4534 96.4871 68.4459 96.4761 68.4408 96.464C68.4357 96.4518 68.433 96.4388 68.433 96.4256C68.433 96.4125 68.4357 96.3994 68.4408 96.3873C68.4459 96.3751 68.4534 96.3641 68.4628 96.3549L69.9565 94.8373C70.2959 94.4906 70.5296 94.0546 70.6305 93.5802C70.7315 93.1057 70.6954 92.6124 70.5266 92.1577L67.5451 84.1613C67.536 84.1361 67.5372 84.1083 67.5486 84.084C67.56 84.0598 67.5805 84.041 67.6057 84.0319C67.618 84.0271 67.6312 84.0248 67.6444 84.0251C67.6577 84.0255 67.6707 84.0284 67.6828 84.0339C67.6948 84.0394 67.7057 84.0472 67.7147 84.0569C67.7237 84.0667 67.7306 84.0781 67.7351 84.0905L70.7186 92.0869C70.9007 92.5778 70.9394 93.1103 70.8303 93.6223C70.7211 94.1343 70.4686 94.6048 70.1021 94.9787L68.6103 96.4964C68.6003 96.5064 68.5883 96.5143 68.5751 96.5195C68.5619 96.5248 68.5477 96.5272 68.5335 96.5267Z" fill="#2F2E41"/>
<path id="Vector_71" d="M95.6059 68.7827C94.758 68.4453 93.8865 68.1704 92.9984 67.9603L85.3031 66.2729L85.1475 66.2527L87.1526 63.4599L94.5245 64.6946L95.6059 68.7827Z" fill="#030303"/>
<path id="Vector_72" d="M95.7553 68.9424L95.5674 68.8656C94.7239 68.5303 93.8571 68.2568 92.974 68.0472L85.2827 66.3578L85.1372 66.3396L84.9634 66.3214L87.108 63.3447L94.6072 64.6017L95.7553 68.9424ZM85.3333 66.1658L93.0144 67.8512C93.8427 68.0477 94.6571 68.2988 95.4521 68.6029L94.4415 64.7836L87.1949 63.5711L85.3333 66.1658Z" fill="#2F2E41"/>
<path id="Vector_73" d="M69.6352 113.926C69.6352 113.926 70.185 110.276 69.3906 106.556L72.7461 107.376L72.833 113.869L69.6352 113.926Z" fill="#2F2E41"/>
<path id="Vector_74" d="M69.5181 114.029L69.5363 113.912C69.5363 113.875 70.0719 110.234 69.2917 106.578L69.2573 106.421L72.8452 107.296L72.9362 113.964L69.5181 114.029ZM69.5181 106.693C70.1831 109.961 69.8294 113.174 69.7465 113.823L72.726 113.77L72.6411 107.455L69.5181 106.693Z" fill="#2F2E41"/>
<path id="Vector_75" d="M89.5801 87.6653L78.8589 113.894H116.725L127.294 87.7421L89.5801 87.6653Z" fill="black"/>
<path id="Vector_76" d="M116.793 113.995H78.709L78.7656 113.855L89.5131 87.5643H89.5778L127.442 87.6411L127.387 87.7806L116.793 113.995ZM79.0102 113.793H116.664L127.151 87.8432L89.6485 87.7785L79.0102 113.793Z" fill="#2F2E41"/>
<path id="Vector_77" d="M87.9831 87.2107H127.828L117.161 113.861L116.725 113.894L127.294 87.7422L89.58 87.6654L78.8587 113.894L77.1851 113.817L87.9831 87.2107Z" fill="#2F2E41"/>
<path id="Vector_78" d="M116.571 114.005L127.145 87.8432L89.6487 87.7785L78.9255 113.997L77.0396 113.912L77.0921 113.778L87.9144 87.1036H127.984L117.232 113.958L116.571 114.005ZM77.3326 113.722L78.7921 113.789L89.5052 87.5643H89.578L127.442 87.6411L127.387 87.7806L116.876 113.78L117.078 113.766L127.664 87.3117H88.0458L77.3326 113.722Z" fill="#2F2E41"/>
<path id="Vector_79" d="M72.8334 113.869L74.3979 113.847C74.7052 113.843 75.0103 113.9 75.2954 114.015L78.3274 115.227C78.6091 115.342 78.8524 115.534 79.0288 115.781L79.995 117.145C79.995 117.145 80.9188 119.101 82.2751 118.932C82.2871 118.93 82.298 118.924 82.3055 118.914C82.3131 118.905 82.3167 118.893 82.3155 118.881L82.2266 118.178C82.2255 118.173 82.2263 118.168 82.2288 118.163C82.2313 118.159 82.2354 118.156 82.2402 118.154C82.245 118.153 82.2503 118.153 82.2548 118.155C82.2594 118.157 82.263 118.161 82.265 118.166C82.4671 118.57 83.306 120.003 84.4763 119.625C84.4831 119.623 84.489 119.618 84.4927 119.612C84.4964 119.606 84.4978 119.599 84.4965 119.592L84.4278 119.253C84.4278 119.253 85.0666 119.962 85.9216 119.839C85.9256 119.838 85.9294 119.837 85.9327 119.834C85.936 119.832 85.9389 119.829 85.941 119.826C85.9431 119.822 85.9444 119.818 85.9449 119.814C85.9454 119.81 85.945 119.806 85.9438 119.803L85.6588 118.976C85.658 118.973 85.6582 118.969 85.6595 118.966C85.6608 118.963 85.6631 118.96 85.666 118.958C85.6689 118.956 85.6724 118.956 85.6758 118.956C85.6792 118.956 85.6825 118.958 85.6851 118.96C85.8215 119.116 85.9952 119.235 86.1899 119.305C86.3847 119.376 86.5942 119.396 86.7988 119.364C86.8023 119.363 86.8057 119.362 86.8086 119.36C86.8115 119.358 86.814 119.355 86.8159 119.352C86.8178 119.349 86.8191 119.346 86.8196 119.342C86.8201 119.339 86.82 119.335 86.8191 119.332C86.7423 119.049 86.0712 116.595 85.6285 114.28L85.301 113.552C85.301 113.552 87.3365 114.207 87.6983 113.297C87.6983 113.297 85.5193 112.317 82.6106 110.101C82.6106 110.101 81.0845 108.611 77.4137 108.538L72.7646 108.284L72.8334 113.869Z" fill="white"/>
<path id="Vector_80" d="M85.7133 119.956C85.2996 119.944 84.9016 119.796 84.5813 119.534V119.574C84.5873 119.606 84.5816 119.638 84.5652 119.666C84.5488 119.693 84.5229 119.714 84.4924 119.724C83.4918 120.047 82.7379 119.158 82.3619 118.564L82.4003 118.871C82.4029 118.89 82.4016 118.91 82.3964 118.929C82.3912 118.947 82.3822 118.965 82.37 118.98C82.3584 118.995 82.3438 119.008 82.3272 119.017C82.3105 119.027 82.292 119.033 82.273 119.035C80.858 119.214 79.9282 117.272 79.8878 117.192L78.9317 115.842C78.7672 115.609 78.539 115.43 78.2747 115.324L75.2427 114.112C74.9696 114.003 74.6777 113.949 74.3836 113.952L72.7181 113.974L72.6372 108.179L77.3975 108.439C81.0622 108.512 82.5964 109.969 82.653 110.03C85.5071 112.206 87.6902 113.198 87.7063 113.209L87.7953 113.249L87.7589 113.338C87.4355 114.146 85.9983 113.855 85.4485 113.712L85.6931 114.261C86.1378 116.593 86.8068 119.043 86.8837 119.313C86.8918 119.349 86.886 119.386 86.8675 119.417C86.8575 119.431 86.8447 119.444 86.8297 119.454C86.8148 119.463 86.7981 119.47 86.7806 119.473C86.6146 119.502 86.4445 119.497 86.2803 119.459C86.1162 119.421 85.9612 119.351 85.8245 119.253L86.0044 119.776C86.0109 119.794 86.0132 119.813 86.0111 119.832C86.009 119.851 86.0026 119.869 85.9922 119.885C85.9823 119.901 85.9691 119.915 85.9534 119.926C85.9377 119.936 85.9199 119.943 85.9013 119.946C85.8389 119.953 85.7761 119.956 85.7133 119.956ZM84.2519 118.915L84.4964 119.188C84.4964 119.188 85.0665 119.794 85.8123 119.752L85.5556 119.012C85.5471 118.986 85.5477 118.958 85.5572 118.932C85.5668 118.907 85.5847 118.885 85.6082 118.871C85.6314 118.857 85.6587 118.852 85.6853 118.857C85.7119 118.861 85.7361 118.875 85.7537 118.895C85.8698 119.028 86.0151 119.132 86.1782 119.199C86.3413 119.266 86.5178 119.294 86.6936 119.281C86.5521 118.764 85.9417 116.486 85.5253 114.308L85.1089 113.384L85.3252 113.455C85.8427 113.621 87.201 113.904 87.5487 113.344C85.7785 112.455 84.0995 111.395 82.5357 110.179C82.5115 110.157 80.9793 108.708 77.3975 108.637L72.8575 108.391L72.9323 113.768L74.3958 113.748C74.7172 113.741 75.0365 113.801 75.3337 113.924L78.3657 115.136C78.666 115.256 78.9251 115.46 79.1116 115.724L80.0778 117.08C80.0939 117.115 80.9773 118.929 82.2083 118.832L82.1254 118.184C82.1218 118.155 82.1283 118.127 82.1438 118.103C82.1594 118.079 82.1829 118.061 82.2103 118.052C82.2378 118.044 82.2673 118.046 82.2938 118.057C82.3203 118.068 82.3422 118.088 82.3558 118.113C82.558 118.517 83.3281 119.819 84.3772 119.54L84.2519 118.915Z" fill="#2F2E41"/>
<path id="Vector_81" d="M88.3854 63.6701C88.272 62.081 88.4285 60.4842 88.8483 58.9474C89.0487 58.2893 89.3355 57.6607 89.7013 57.0781C90.6352 55.5706 93.0608 51.5168 93.4812 49.4697C93.4812 49.4697 94.3484 49.9163 93.3175 54.0368C93.2852 54.1682 92.9921 55.1139 93.4166 55.5706L96.1252 52.503C96.1252 52.503 96.1252 51.7856 96.3273 51.4926C96.1158 50.7806 96.1046 50.024 96.295 49.306C96.295 49.306 96.0342 48.8817 96.4971 48.3926L98.1788 52.0564C98.3821 52.5008 98.4915 52.9824 98.5002 53.471L98.5488 56.191C98.5509 56.4015 98.4896 56.6078 98.3729 56.7831L93.2003 64.4764L88.3854 63.6701Z" fill="white"/>
<path id="Vector_82" d="M93.2346 64.5916L88.2925 63.757V63.6802C88.1792 62.0784 88.3364 60.4689 88.7574 58.9192C88.9597 58.2521 89.2507 57.6153 89.6225 57.0256C90.617 55.409 92.9759 51.4623 93.3883 49.4496L93.4166 49.3182L93.5338 49.3788C93.6308 49.4294 94.4434 49.9851 93.4226 54.0631L93.4125 54.0995C93.2104 54.8189 93.2973 55.2049 93.4287 55.413L96.0302 52.4646C96.0283 52.1269 96.0922 51.7919 96.2181 51.4785C96.0139 50.7735 96.0034 50.0266 96.1878 49.3162C96.1272 49.1869 95.9857 48.7766 96.4162 48.324L96.5193 48.2128L98.2577 52.01C98.4689 52.4678 98.5818 52.9648 98.5892 53.469L98.6377 56.189C98.639 56.4209 98.5684 56.6476 98.4356 56.8377L93.2346 64.5916ZM88.4804 63.5812L93.1396 64.3673L98.2698 56.7306C98.3746 56.5725 98.4295 56.3867 98.4275 56.1971L98.379 53.4771C98.3716 53.0009 98.2649 52.5315 98.0657 52.0989L96.4486 48.5806C96.3709 48.6726 96.3215 48.7851 96.3064 48.9045C96.2913 49.0239 96.3112 49.1452 96.3637 49.2536L96.3859 49.2919L96.3738 49.3344C96.1906 50.0326 96.2011 50.7676 96.4041 51.4603L96.4223 51.5068L96.394 51.5492C96.2464 51.7675 96.2141 52.3131 96.2141 52.503V52.5414L93.4186 55.7222L93.3418 55.6394C93.1396 55.4373 92.9597 54.9765 93.2124 54.0469V54.0126C93.9563 51.0379 93.6975 50.0154 93.5257 49.6921C93.0143 51.7877 90.7565 55.5666 89.7802 57.1307C89.4178 57.7052 89.1343 58.3257 88.9373 58.9757C88.5319 60.4759 88.3776 62.0327 88.4804 63.5832V63.5812Z" fill="#2F2E41"/>
<path id="Vector_83" d="M94.4451 59.3213C94.4238 59.3215 94.4031 59.3143 94.3865 59.3011C94.3757 59.2933 94.3666 59.2834 94.3596 59.2721C94.3527 59.2607 94.348 59.2481 94.346 59.235C94.3439 59.2218 94.3444 59.2084 94.3476 59.1955C94.3507 59.1826 94.3564 59.1704 94.3642 59.1596L96.8121 55.7849C96.1915 54.4653 96.0318 52.592 96.0238 52.5132C96.0226 52.4999 96.0242 52.4865 96.0283 52.4738C96.0323 52.4611 96.0389 52.4494 96.0475 52.4393C96.0562 52.4291 96.0667 52.4208 96.0786 52.4147C96.0905 52.4087 96.1034 52.4051 96.1167 52.404C96.1431 52.4023 96.1692 52.4108 96.1895 52.4277C96.2098 52.4446 96.2228 52.4687 96.2259 52.495C96.2259 52.5152 96.3937 54.4632 97.0203 55.7525C97.028 55.769 97.0312 55.7873 97.0294 55.8055C97.0276 55.8236 97.021 55.8409 97.0102 55.8556L94.528 59.2849C94.518 59.2971 94.5053 59.3068 94.4909 59.3131C94.4765 59.3195 94.4608 59.3223 94.4451 59.3213Z" fill="#2F2E41"/>
<path id="Vector_84" d="M98.5508 56.1768C98.5318 56.1771 98.5131 56.1719 98.497 56.1619C98.4809 56.1519 98.468 56.1374 98.4598 56.1203L96.2364 51.537C96.2305 51.5251 96.2271 51.5121 96.2263 51.4989C96.2254 51.4856 96.2272 51.4723 96.2316 51.4597C96.2359 51.4471 96.2426 51.4355 96.2514 51.4256C96.2602 51.4156 96.2709 51.4075 96.2828 51.4016C96.2948 51.3958 96.3078 51.3924 96.321 51.3916C96.3343 51.3907 96.3476 51.3925 96.3602 51.3968C96.3728 51.4012 96.3844 51.4079 96.3943 51.4167C96.4043 51.4255 96.4124 51.4362 96.4183 51.4481L98.6418 56.0313C98.6476 56.0433 98.6511 56.0563 98.6519 56.0695C98.6527 56.0828 98.651 56.0961 98.6466 56.1087C98.6423 56.1213 98.6356 56.1329 98.6267 56.1428C98.6179 56.1528 98.6072 56.1609 98.5953 56.1667C98.5816 56.1739 98.5663 56.1774 98.5508 56.1768Z" fill="#2F2E41"/>
<path id="Vector_85" d="M98.5104 54.0307C98.4915 54.0308 98.4729 54.0255 98.4568 54.0155C98.4407 54.0055 98.4278 53.9912 98.4194 53.9742L96.196 49.3445C96.1866 49.3207 96.1866 49.2942 96.196 49.2705C96.2054 49.2467 96.2234 49.2274 96.2465 49.2164C96.2695 49.2053 96.2959 49.2035 96.3203 49.2111C96.3447 49.2188 96.3652 49.2354 96.3779 49.2576L98.6014 53.8873C98.6072 53.8991 98.6106 53.9119 98.6114 53.925C98.6122 53.9381 98.6104 53.9513 98.6061 53.9637C98.6018 53.9761 98.595 53.9875 98.5862 53.9973C98.5774 54.0071 98.5668 54.015 98.5549 54.0206C98.5412 54.0278 98.5259 54.0313 98.5104 54.0307Z" fill="#2F2E41"/>
<path id="Vector_86" d="M94.506 56.2779C94.4826 56.2777 94.46 56.2699 94.4413 56.2557C94.4211 56.2381 94.4084 56.2135 94.4058 56.1868C94.4032 56.1601 94.4108 56.1334 94.4272 56.1122L96.21 53.9297C96.2185 53.9195 96.229 53.9111 96.2407 53.9049C96.2525 53.8987 96.2653 53.8949 96.2786 53.8937C96.2918 53.8925 96.3051 53.8939 96.3178 53.8978C96.3305 53.9017 96.3423 53.9081 96.3525 53.9166C96.3628 53.9251 96.3712 53.9355 96.3774 53.9473C96.3836 53.959 96.3874 53.9719 96.3886 53.9851C96.3898 53.9984 96.3884 54.0117 96.3845 54.0244C96.3806 54.0371 96.3742 54.0489 96.3657 54.0591L94.5849 56.2395C94.5756 56.2516 94.5636 56.2613 94.5499 56.2679C94.5363 56.2746 94.5212 56.278 94.506 56.2779Z" fill="#2F2E41"/>
<path id="Vector_87" d="M94.8453 57.2782C94.8262 57.2781 94.8075 57.2725 94.7914 57.2621C94.7753 57.2517 94.7625 57.237 94.7545 57.2197C94.7464 57.2023 94.7435 57.183 94.746 57.1641C94.7485 57.1451 94.7563 57.1272 94.7685 57.1125L96.5716 54.9906C96.5896 54.9736 96.6133 54.9638 96.6381 54.9631C96.6629 54.9623 96.6871 54.9708 96.7061 54.9868C96.7251 55.0028 96.7375 55.0252 96.7411 55.0497C96.7446 55.0743 96.7389 55.0993 96.7252 55.12L94.9222 57.2439C94.9126 57.2548 94.9007 57.2635 94.8875 57.2694C94.8742 57.2753 94.8599 57.2783 94.8453 57.2782Z" fill="#2F2E41"/>
<path id="Vector_88" d="M94.6312 57.6986C94.6138 57.6983 94.5968 57.6937 94.5816 57.6853C94.5665 57.6768 94.5536 57.6647 94.5443 57.6501L93.3315 55.6293C93.3179 55.6061 93.314 55.5786 93.3204 55.5526C93.3268 55.5265 93.3431 55.504 93.3658 55.4898C93.3892 55.4765 93.4169 55.4728 93.443 55.4796C93.4691 55.4864 93.4914 55.5031 93.5053 55.5262L94.7181 57.547C94.725 57.5583 94.7297 57.5708 94.7317 57.5838C94.7337 57.5969 94.7331 57.6102 94.7299 57.623C94.7267 57.6358 94.7209 57.6478 94.713 57.6584C94.7051 57.6689 94.6952 57.6778 94.6838 57.6844C94.668 57.6941 94.6497 57.699 94.6312 57.6986Z" fill="#2F2E41"/>
<path id="Vector_89" d="M91.0413 60.6207C91.0222 60.6208 91.0034 60.616 90.9867 60.6065C90.9642 60.5921 90.9484 60.5692 90.9427 60.5431C90.9371 60.517 90.942 60.4896 90.9564 60.4671C91.6925 59.3084 92.1862 58.0126 92.4077 56.6579C92.4107 56.6311 92.4242 56.6065 92.4452 56.5897C92.4662 56.5728 92.4931 56.565 92.5199 56.5679C92.5467 56.5709 92.5713 56.5844 92.5881 56.6054C92.605 56.6264 92.6128 56.6533 92.6099 56.6801C92.3836 58.0615 91.881 59.3832 91.1323 60.5661C91.124 60.5831 91.1111 60.5972 91.0949 60.6069C91.0787 60.6166 91.0601 60.6214 91.0413 60.6207Z" fill="#2F2E41"/>
<path id="Vector_90" d="M56.0211 54.4591C53.7904 52.331 50.2565 52.4136 48.1278 54.6437C45.9991 56.8738 46.0818 60.4068 48.3124 62.535L53.3941 67.3831C55.6247 69.5112 59.1587 69.4286 61.2874 67.1985C63.4161 64.9684 63.3334 61.4353 61.1028 59.3072L56.0211 54.4591Z" fill="white"/>
<path id="Vector_91" d="M57.2465 69.0354C55.7851 69.0382 54.3795 68.4747 53.3251 67.4632L48.2434 62.6132C47.6874 62.1021 47.2389 61.4853 46.9241 60.799C46.6093 60.1126 46.4344 59.3704 46.4098 58.6157C46.3851 57.861 46.5112 57.109 46.7805 56.4035C47.0499 55.6981 47.4572 55.0534 47.9786 54.5071C48.5001 53.9609 49.1252 53.524 49.8174 53.222C50.5097 52.92 51.2552 52.7589 52.0104 52.7482C52.7656 52.7376 53.5154 52.8775 54.2159 53.1598C54.9164 53.4421 55.5536 53.8612 56.0903 54.3925L61.174 59.2424C61.9869 60.0185 62.5515 61.0181 62.7962 62.1148C63.041 63.2116 62.9551 64.3563 62.5492 65.4042C62.1433 66.4521 61.4358 67.3562 60.5161 68.0022C59.5963 68.6481 58.5056 69.007 57.3819 69.0333L57.2465 69.0354ZM52.1689 53.0203C51.0736 53.0189 50.003 53.3457 49.0953 53.9587C48.1877 54.5716 47.4847 55.4425 47.0771 56.4589C46.6695 57.4753 46.5761 58.5905 46.8089 59.6605C47.0416 60.7306 47.5899 61.7062 48.3829 62.4616L53.4646 67.3116C54.5164 68.3148 55.9238 68.8592 57.3771 68.8251C58.8305 68.791 60.2108 68.1812 61.2144 67.1297C62.2176 66.0781 62.7622 64.6714 62.7285 63.2186C62.6947 61.7658 62.0854 60.3858 61.0345 59.3819L55.9508 54.5319C54.9325 53.559 53.5774 53.0174 52.1689 53.0203Z" fill="#2F2E41"/>
<path id="Vector_92" d="M42.0501 53.4286L41.0859 56.6821L43.3458 57.3793L44.7405 55.5201L42.0501 53.4286Z" fill="#565657"/>
<path id="Vector_93" d="M43.3841 57.4985L40.9585 56.7508L41.9934 53.2588L44.8779 55.5019L43.3841 57.4985ZM41.2112 56.6154L43.3073 57.262L44.5989 55.5403L42.1046 53.6003L41.2112 56.6154Z" fill="#2F2E41"/>
<path id="Vector_94" d="M25.8265 48.0289C24.5288 41.9907 19.3824 44.3167 19.3824 44.3167L13.9248 59.9295C13.9248 59.9295 18.7134 64.3592 24.5308 61.8089C24.5308 61.8089 26.5885 60.5115 28.9596 61.4047C28.9596 61.4047 32.9881 64.4481 35.0903 60.7803C35.0903 60.7803 37.239 54.247 41.2655 56.1708L41.9811 53.667C41.9811 53.667 39.61 49.0191 32.8082 51.921C32.8082 51.921 29.6165 53.768 28.3997 50.2639C28.3293 50.0527 28.2858 49.8334 28.2703 49.6112C28.1429 47.8955 27.1464 39.4121 20.0555 42.3928L19.7422 43.6053C19.7422 43.6053 23.2735 42.2857 25.2403 44.3914C25.6206 44.8089 25.8738 45.3263 25.97 45.8828C26.3359 47.847 27.7892 54.0772 31.4276 53.1335C31.4276 53.1335 27.9368 54.6996 26.1923 49.1525L25.8265 48.0289Z" fill="#030303"/>
<path id="Vector_95" d="M32.2083 62.692C30.571 62.692 29.0732 61.6149 28.9094 61.4957C26.6193 60.6389 24.602 61.8817 24.5817 61.8999C23.4073 62.4203 22.137 62.6895 20.8524 62.69C16.8258 62.69 13.8989 60.0387 13.8605 60.0043L13.812 59.9578L19.3081 44.2419L19.3465 44.2237C19.4354 44.1833 21.5699 43.2436 23.4559 44.1974C24.6869 44.8199 25.5196 46.1011 25.93 48.0047L26.2857 49.1181C26.9204 51.139 27.8482 52.4242 29.0469 52.9577C29.3209 53.0816 29.6118 53.164 29.91 53.2022C29.6706 53.1259 29.4423 53.0186 29.2308 52.8829C27.1307 51.5492 26.1847 47.552 25.8754 45.8949C25.7833 45.3568 25.5392 44.8561 25.172 44.4521C23.2719 42.4191 19.8174 43.6781 19.781 43.6922L19.5991 43.7589L19.9751 42.3161L20.0216 42.2958C22.0227 41.4532 23.7267 41.4471 25.0749 42.2756C27.7492 43.9125 28.2747 48.2957 28.3718 49.6011C28.3861 49.8145 28.4282 50.0251 28.4971 50.2276C28.8448 51.238 29.3946 51.8826 30.1263 52.1554C31.3694 52.6182 32.7439 51.8382 32.754 51.8301C39.5761 48.914 42.0522 53.568 42.0684 53.6165L42.0866 53.6529L41.3286 56.3143L41.2194 56.2638C40.8319 56.0587 40.4036 55.9423 39.9656 55.9231C39.5275 55.9039 39.0907 55.9823 38.6867 56.1526C36.4167 57.1186 35.2039 60.7743 35.1837 60.8106V60.8288C34.6117 61.8271 33.8456 62.4313 32.9036 62.6233C32.6748 62.6698 32.4418 62.6928 32.2083 62.692ZM14.0404 59.8912C14.5619 60.3398 19.11 64.0642 24.4867 61.7099C24.4867 61.7099 26.6031 60.4024 28.9943 61.3057L29.0186 61.3199C29.0388 61.334 31.0056 62.7971 32.8591 62.4192C33.7364 62.2394 34.456 61.6715 34.9977 60.7318C35.0847 60.4732 36.2975 56.9488 38.6079 55.9607C39.0197 55.7859 39.4643 55.7013 39.9115 55.7124C40.3588 55.7236 40.7986 55.8303 41.2012 56.0253L41.8743 53.6791C41.6399 53.275 39.1738 49.3121 32.8511 52.014C32.8026 52.0443 31.3917 52.8466 30.0596 52.3494C29.2672 52.0544 28.677 51.3653 28.3071 50.2983C28.2337 50.0785 28.1882 49.8504 28.1717 49.6193C28.0766 48.3401 27.5652 44.0378 24.9719 42.4515C23.6863 41.6654 22.0631 41.6714 20.1429 42.4676L19.8882 43.4477C20.6421 43.2133 23.5832 42.4616 25.3175 44.3187C25.7109 44.7501 25.9726 45.2852 26.0715 45.8606C26.3767 47.4914 27.3025 51.4259 29.338 52.7172C29.6389 52.9137 29.9784 53.0434 30.3337 53.0978C30.689 53.1522 31.0518 53.1299 31.3977 53.0325L31.4644 53.2224C31.0631 53.3765 30.6351 53.4491 30.2055 53.4359C29.7758 53.4228 29.3531 53.3241 28.962 53.1456C27.7088 52.5839 26.7385 51.2481 26.0917 49.1788L25.7319 48.0512C25.3276 46.2082 24.5393 44.9734 23.3629 44.3793C21.6932 43.5366 19.7649 44.2702 19.4677 44.3914L14.0404 59.8912Z" fill="#2F2E41"/>
<path id="Vector_96" d="M45.9413 67.0145C45.9413 67.0145 40.132 63.7307 42.6586 57.4662C42.6586 57.4662 43.6168 55.2938 46.6488 53.9297C46.6488 53.9297 51.8517 51.6583 52.0539 49.9406C52.0539 49.9406 55.5892 51.2036 53.8225 55.6474C53.8225 55.6474 52.4076 59.0828 50.2852 61.0006C50.2852 61.0006 53.4183 63.3245 52.7108 65.7475L45.9413 67.0145Z" fill="#0B0B0B"/>
<path id="Vector_97" d="M45.9169 67.1217L45.8846 67.1035C45.826 67.0691 40.0227 63.7044 42.5575 57.4318C42.5696 57.4076 43.5681 55.2089 46.6001 53.8428C46.6527 53.8186 51.7546 51.5734 51.9466 49.9325L51.9628 49.8073L52.082 49.8497C52.965 50.2098 53.6796 50.8896 54.0832 51.7533C54.5743 52.8405 54.5157 54.1641 53.9093 55.6899C53.8952 55.7242 52.4944 59.0707 50.4367 60.9986C50.9743 61.4229 53.4565 63.5327 52.8016 65.7798L52.7834 65.8405L52.7228 65.8526L45.9169 67.1217ZM52.1245 50.0861C51.698 51.818 46.8912 53.9257 46.683 54.0267C43.7278 55.3564 42.7535 57.4884 42.7434 57.5106C40.3784 63.371 45.5026 66.6367 45.9533 66.9095L52.6238 65.6647C53.2302 63.3569 50.2507 61.1097 50.2184 61.0855L50.1213 61.0127L50.2123 60.9299C52.2923 59.0485 53.7072 55.6474 53.7213 55.6131C54.3075 54.1419 54.3661 52.8728 53.8992 51.8382C53.5333 51.065 52.9073 50.4449 52.1305 50.0861H52.1245Z" fill="#2F2E41"/>
<path id="Vector_98" d="M53.9232 51.6058C53.9232 51.6058 55.4109 52.1514 56.274 54.6693C56.2746 54.6721 56.2743 54.675 56.2731 54.6776C56.272 54.6803 56.2701 54.6825 56.2677 54.684C56.2653 54.6855 56.2625 54.6863 56.2597 54.6862C56.2568 54.6861 56.2541 54.6852 56.2518 54.6835C55.4572 53.8359 54.4164 53.2591 53.2764 53.0345L53.9232 51.6058Z" fill="#2F2E41"/>
<path id="Vector_99" d="M52.6685 68.3301C53.4957 66.8977 52.6584 64.8661 50.7982 63.7924C48.9381 62.7188 46.7596 63.0096 45.9324 64.442C45.1052 65.8744 45.9425 67.906 47.8026 68.9797C49.6627 70.0533 51.8412 69.7625 52.6685 68.3301Z" fill="white"/>
<path id="Vector_100" d="M50.1152 69.7305C49.2831 69.7198 48.4684 69.4913 47.7523 69.0677C45.8461 67.9684 44.9891 65.8687 45.8441 64.3915C46.2605 63.6701 47.0124 63.2033 47.9645 63.078C48.9686 62.966 49.9818 63.1861 50.849 63.7044C52.7531 64.8058 53.6101 66.9034 52.7571 68.3806C52.3407 69.102 51.5867 69.5688 50.6367 69.6962C50.4637 69.7178 50.2896 69.7293 50.1152 69.7305ZM48.486 63.2457C48.3204 63.2452 48.1549 63.256 47.9908 63.278C47.1034 63.3952 46.402 63.8277 46.0179 64.4905C45.2215 65.8728 46.0442 67.8451 47.8533 68.8899C48.6809 69.3889 49.6498 69.6019 50.6104 69.4961C51.4978 69.3789 52.1972 68.9464 52.5812 68.2836C53.3797 66.9014 52.557 64.929 50.7479 63.8843C50.0626 63.4777 49.2828 63.2575 48.486 63.2457Z" fill="#2F2E41"/>
<path id="Vector_101" d="M82.2587 118.269C82.2413 118.268 82.2243 118.264 82.2091 118.255C82.194 118.247 82.1811 118.235 82.1718 118.22L80.4233 115.345C80.412 115.322 80.4095 115.296 80.4165 115.272C80.4235 115.247 80.4393 115.226 80.4609 115.213C80.4825 115.2 80.5083 115.195 80.5332 115.2C80.558 115.205 80.5801 115.219 80.5951 115.239L82.3456 118.115C82.3543 118.131 82.3589 118.148 82.3589 118.166C82.3589 118.184 82.3543 118.201 82.3455 118.216C82.3368 118.232 82.3242 118.245 82.309 118.254C82.2938 118.263 82.2764 118.268 82.2587 118.269Z" fill="#2F2E41"/>
<path id="Vector_102" d="M84.4214 119.356C84.4038 119.356 84.3865 119.351 84.3712 119.342C84.356 119.333 84.3433 119.321 84.3345 119.305L82.1757 115.573C82.1623 115.55 82.1586 115.522 82.1654 115.496C82.1722 115.47 82.189 115.447 82.2121 115.433C82.2357 115.42 82.2636 115.417 82.2897 115.424C82.3158 115.431 82.338 115.448 82.3515 115.472L84.5103 119.204C84.5234 119.228 84.5267 119.255 84.5195 119.281C84.5123 119.307 84.4952 119.329 84.4719 119.342C84.4568 119.351 84.4393 119.356 84.4214 119.356Z" fill="#2F2E41"/>
<path id="Vector_103" d="M85.6525 119.079C85.6333 119.079 85.6144 119.074 85.598 119.064C85.5815 119.054 85.5682 119.04 85.5596 119.022L83.8515 115.411C83.844 115.399 83.8392 115.386 83.8373 115.371C83.8354 115.357 83.8366 115.343 83.8407 115.329C83.8447 115.316 83.8517 115.303 83.861 115.292C83.8703 115.281 83.8818 115.273 83.8948 115.267C83.9077 115.261 83.9217 115.257 83.936 115.257C83.9503 115.257 83.9644 115.26 83.9775 115.265C83.9906 115.271 84.0024 115.279 84.012 115.29C84.0217 115.3 84.029 115.313 84.0334 115.326L85.7374 118.936C85.7432 118.948 85.7466 118.961 85.7473 118.974C85.748 118.987 85.746 119.001 85.7415 119.013C85.737 119.026 85.73 119.038 85.721 119.047C85.7119 119.057 85.7011 119.065 85.6889 119.071C85.6774 119.076 85.665 119.079 85.6525 119.079Z" fill="#2F2E41"/>
<path id="Vector_104" d="M132.847 96.9915H148.007V106.221C148.007 108.231 147.208 110.159 145.786 111.58C144.364 113.002 142.436 113.801 140.425 113.801C138.414 113.801 136.485 113.002 135.064 111.58C133.642 110.159 132.843 108.231 132.843 106.221V96.9915H132.847Z" fill="black"/>
<path id="Vector_105" d="M140.429 113.904C138.393 113.901 136.441 113.091 135.001 111.652C133.561 110.212 132.751 108.26 132.748 106.225V96.8904H148.11V106.223C148.108 108.259 147.298 110.211 145.858 111.651C144.418 113.091 142.466 113.901 140.429 113.904ZM132.95 97.0925V106.223C132.95 108.206 133.738 110.107 135.141 111.51C136.543 112.912 138.446 113.7 140.429 113.7C142.413 113.7 144.315 112.912 145.718 111.51C147.12 110.107 147.908 108.206 147.908 106.223V97.0925H132.95Z" fill="#2F2E41"/>
<path id="Vector_106" d="M147.995 99.5276H132.871C132.844 99.5276 132.819 99.5169 132.8 99.498C132.781 99.479 132.77 99.4533 132.77 99.4265C132.77 99.3997 132.781 99.374 132.8 99.3551C132.819 99.3361 132.844 99.3255 132.871 99.3255H147.995C148.022 99.3255 148.047 99.3361 148.066 99.3551C148.085 99.374 148.096 99.3997 148.096 99.4265C148.096 99.4533 148.085 99.479 148.066 99.498C148.047 99.5169 148.022 99.5276 147.995 99.5276Z" fill="#2F2E41"/>
<path id="Vector_107" d="M150.592 70.6137C148.49 70.6195 146.412 71.0584 144.488 71.903C144.422 71.9345 144.348 71.9456 144.276 71.9348C144.204 71.924 144.137 71.8918 144.083 71.8423C143.782 71.5392 144.314 70.939 144.314 70.939C145.838 68.9627 150.176 70.0963 150.176 70.0963C150.012 68.411 149.268 66.0446 149.268 66.0446C147.128 66.4669 146.675 65.9476 146.675 65.9476C145.636 64.9109 148.522 63.1609 148.522 63.1609C148.164 62.1505 146.933 59.2061 146.933 59.2061C143.526 60.5358 139.707 63.9591 139.707 63.9591C140.588 65.6849 140.718 66.7498 140.681 67.3399C140.673 67.4554 140.63 67.5656 140.558 67.656C140.485 67.7465 140.387 67.8128 140.276 67.8463C140.166 67.8798 140.047 67.8789 139.937 67.8437C139.827 67.8085 139.73 67.7406 139.659 67.6491C139.052 66.8549 138.947 64.9715 138.947 64.9715C136.724 67.439 135.024 70.7915 135.024 70.7915C137.247 72.6102 138.122 73.7621 138.414 74.4755C138.472 74.6125 138.491 74.7628 138.469 74.91C138.447 75.0571 138.384 75.1953 138.289 75.3094C138.193 75.4235 138.068 75.509 137.927 75.5566C137.786 75.6041 137.635 75.6118 137.49 75.5788C135.859 75.203 134.328 72.3738 134.328 72.3738C133.821 76.6438 135.541 79.19 137.36 80.6693C138.268 81.3823 139.307 81.9088 140.419 82.2185C141.531 82.5282 142.693 82.615 143.839 82.4739C154.117 81.3119 150.592 70.6137 150.592 70.6137ZM148.526 78.02C147.809 79.5376 145.953 79.9963 145.189 80.1237C145.138 80.1321 145.086 80.1282 145.037 80.1125C144.988 80.0968 144.944 80.0697 144.908 80.0333C144.871 79.9969 144.844 79.9525 144.828 79.9035C144.813 79.8545 144.809 79.8025 144.817 79.7518C144.867 79.5275 144.953 79.313 145.074 79.1173C145.334 78.6856 145.678 78.3099 146.085 78.0119C146.988 77.3309 147.73 77.2864 148.191 77.3652C148.261 77.3779 148.327 77.4065 148.384 77.4489C148.441 77.4913 148.488 77.5463 148.521 77.6096C148.553 77.673 148.57 77.743 148.571 77.8141C148.572 77.8853 148.557 77.9557 148.526 78.02Z" fill="#E67E22"/>
<path id="Vector_108" d="M142.814 82.6315C140.817 82.647 138.875 81.9828 137.306 80.7481C135.612 79.382 133.704 76.8196 134.231 72.3617L134.27 72.0444L134.422 72.3253C134.436 72.3536 135.95 75.1181 137.518 75.4798C137.643 75.5096 137.773 75.5035 137.894 75.4624C138.016 75.4213 138.123 75.3468 138.203 75.2474C138.29 75.1479 138.346 75.0265 138.368 74.8967C138.389 74.7669 138.374 74.6337 138.325 74.5118C138.072 73.8955 137.284 72.7618 134.963 70.8743L134.901 70.8218L134.939 70.749C134.955 70.7167 136.677 67.3561 138.877 64.9068L139.038 64.727L139.052 64.9695C139.052 64.9877 139.162 66.8327 139.744 67.5966C139.802 67.6726 139.882 67.7291 139.973 67.7584C140.064 67.7877 140.162 67.7884 140.253 67.7605C140.345 67.7325 140.426 67.6773 140.485 67.6021C140.544 67.5269 140.579 67.4354 140.585 67.3399C140.627 66.764 140.492 65.7232 139.62 64.0136L139.586 63.9429L139.643 63.8924C139.681 63.858 143.511 60.4408 146.893 59.1212L146.984 59.0828L147.023 59.1738C147.035 59.2041 148.26 62.1363 148.613 63.1326L148.64 63.2114L148.571 63.2538C148.551 63.2639 146.665 64.4198 146.55 65.3555C146.536 65.4522 146.547 65.5506 146.58 65.6425C146.613 65.7343 146.668 65.8168 146.74 65.8829C146.74 65.8829 147.219 66.3497 149.242 65.9516L149.331 65.9334L149.357 66.0203C149.357 66.0446 150.109 68.417 150.271 70.0923L150.283 70.2357L150.144 70.1994C150.101 70.1893 145.846 69.1041 144.383 71.0077C144.383 71.0198 143.916 71.5493 144.144 71.7797C144.184 71.8158 144.234 71.839 144.287 71.8462C144.341 71.8534 144.395 71.8443 144.443 71.8201C146.38 70.9669 148.473 70.5244 150.59 70.5207H150.663L150.687 70.5914C150.703 70.6419 152.333 75.7081 150.065 79.2446C148.852 81.132 146.766 82.2536 143.857 82.581C143.511 82.6178 143.162 82.6347 142.814 82.6315ZM134.399 72.6931C133.995 76.8701 135.814 79.289 137.431 80.5904C139.245 82.0093 141.548 82.6504 143.835 82.3728C146.679 82.0515 148.716 80.9582 149.899 79.1274C151.973 75.8941 150.707 71.3331 150.522 70.7167C148.459 70.7291 146.421 71.1644 144.534 71.9959C144.448 72.0377 144.352 72.0521 144.257 72.0373C144.163 72.0225 144.076 71.9791 144.007 71.913C143.643 71.5473 144.209 70.9026 144.231 70.8723C145.636 69.0536 149.284 69.7831 150.061 69.9629C149.895 68.5039 149.327 66.5861 149.198 66.1618C147.138 66.5498 146.649 66.0708 146.598 66.0142C146.506 65.9265 146.437 65.8184 146.395 65.6987C146.352 65.5789 146.339 65.451 146.356 65.3252C146.467 64.3915 148.039 63.3468 148.399 63.1184C148.055 62.1706 147.083 59.8285 146.879 59.3375C143.78 60.5782 140.328 63.5549 139.841 63.9853C140.7 65.6909 140.833 66.7539 140.791 67.35C140.784 67.488 140.734 67.6205 140.649 67.7291C140.563 67.8377 140.446 67.9171 140.314 67.9563C140.184 67.9977 140.044 67.9976 139.914 67.956C139.784 67.9143 139.67 67.8332 139.588 67.7239C139.091 67.0772 138.923 65.7697 138.873 65.2281C136.944 67.4369 135.416 70.2802 135.159 70.7773C137.011 72.2929 138.141 73.5297 138.517 74.4492C138.58 74.6053 138.599 74.7757 138.571 74.9418C138.544 75.1079 138.471 75.2633 138.361 75.3909C138.256 75.5185 138.118 75.6142 137.961 75.667C137.805 75.7199 137.637 75.7278 137.476 75.6899C136.101 75.3606 134.834 73.4307 134.399 72.6931ZM145.137 80.2287C145.022 80.2277 144.913 80.182 144.831 80.1014C144.783 80.0543 144.748 79.9961 144.728 79.9318C144.708 79.8676 144.705 79.7995 144.718 79.7336C144.769 79.4975 144.86 79.2719 144.987 79.0667C145.252 78.6231 145.603 78.2369 146.02 77.931C146.95 77.2298 147.722 77.1833 148.205 77.2662C148.29 77.2819 148.37 77.3169 148.439 77.3686C148.509 77.4204 148.565 77.4873 148.604 77.5644C148.643 77.6414 148.664 77.7264 148.665 77.8128C148.666 77.8991 148.647 77.9846 148.609 78.0624C147.872 79.6225 145.982 80.0933 145.197 80.2227C145.177 80.2262 145.157 80.2282 145.137 80.2287ZM147.843 77.438C147.409 77.438 146.833 77.5774 146.141 78.0927C145.746 78.3825 145.413 78.7479 145.161 79.1678C145.046 79.3547 144.963 79.5596 144.916 79.774C144.91 79.8079 144.912 79.843 144.922 79.8759C144.933 79.9088 144.952 79.9384 144.977 79.962C145.002 79.9894 145.034 80.0097 145.069 80.0211C145.105 80.0324 145.143 80.0343 145.179 80.0266C145.927 79.9034 147.744 79.4527 148.442 77.9795C148.466 77.9297 148.479 77.8746 148.479 77.8189C148.479 77.7631 148.466 77.7081 148.442 77.6582C148.416 77.6089 148.379 77.5662 148.335 77.5336C148.29 77.5009 148.238 77.4793 148.183 77.4703C148.071 77.4487 147.957 77.4378 147.843 77.438Z" fill="#2F2E41"/>
<path id="Vector_109" d="M138.293 96.9268C138.27 96.9271 138.248 96.9199 138.23 96.9064C138.212 96.8928 138.199 96.8737 138.193 96.852L134.434 82.3021C134.427 82.2753 134.431 82.2469 134.446 82.2232C134.46 82.1995 134.483 82.1825 134.51 82.1758C134.536 82.1691 134.565 82.1733 134.588 82.1875C134.612 82.2017 134.629 82.2248 134.636 82.2516L138.396 96.8015C138.399 96.8144 138.4 96.8278 138.398 96.8409C138.396 96.8541 138.392 96.8668 138.385 96.8782C138.378 96.8897 138.369 96.8997 138.358 96.9077C138.348 96.9156 138.336 96.9215 138.323 96.9248L138.293 96.9268Z" fill="#2F2E41"/>
<path id="Vector_110" d="M141.597 97.0319H141.573C141.56 97.0286 141.548 97.0228 141.537 97.0148C141.527 97.0068 141.518 96.9968 141.511 96.9853C141.504 96.9739 141.5 96.9612 141.498 96.948C141.496 96.9349 141.497 96.9215 141.5 96.9086L144.128 86.4226C144.131 86.4097 144.137 86.3976 144.145 86.3869C144.153 86.3763 144.163 86.3673 144.175 86.3606C144.186 86.3538 144.199 86.3494 144.212 86.3475C144.225 86.3457 144.238 86.3465 144.251 86.3498C144.264 86.3529 144.276 86.3585 144.287 86.3662C144.297 86.374 144.306 86.3839 144.313 86.3952C144.32 86.4064 144.324 86.419 144.326 86.432C144.328 86.445 144.327 86.4583 144.324 86.471L141.696 96.9591C141.69 96.9803 141.677 96.9988 141.659 97.0119C141.641 97.025 141.619 97.032 141.597 97.0319Z" fill="#2F2E41"/>
<path id="Vector_111" d="M142.376 75.8739C142.356 75.8739 142.337 75.8684 142.321 75.858C142.304 75.8476 142.291 75.8328 142.283 75.8153L139.354 69.1728C139.348 69.1607 139.345 69.1475 139.345 69.1341C139.344 69.1207 139.347 69.1074 139.352 69.0949C139.357 69.0824 139.364 69.0711 139.373 69.0615C139.383 69.052 139.394 69.0445 139.406 69.0395C139.418 69.0338 139.431 69.0306 139.444 69.0301C139.458 69.0296 139.471 69.0318 139.483 69.0365C139.495 69.0412 139.507 69.0484 139.516 69.0576C139.525 69.0668 139.533 69.0778 139.538 69.09L142.469 75.7324C142.474 75.7446 142.477 75.7578 142.477 75.7711C142.478 75.7844 142.475 75.7976 142.47 75.81C142.465 75.8224 142.458 75.8337 142.449 75.8433C142.44 75.8529 142.428 75.8605 142.416 75.8658C142.404 75.8714 142.39 75.8741 142.376 75.8739Z" fill="#2F2E41"/>
<path id="Vector_112" d="M142.161 77.5168C142.143 77.517 142.125 77.5123 142.109 77.503C142.094 77.4937 142.081 77.4803 142.072 77.4642C142.06 77.4405 142.057 77.413 142.065 77.3873C142.072 77.3617 142.089 77.34 142.113 77.3268L149.042 73.6125C149.054 73.6062 149.067 73.6023 149.08 73.601C149.093 73.5997 149.107 73.6011 149.12 73.605C149.132 73.609 149.144 73.6154 149.154 73.624C149.165 73.6326 149.173 73.6431 149.179 73.655C149.192 73.6786 149.194 73.7062 149.187 73.7318C149.179 73.7575 149.162 73.7792 149.139 73.7924L142.208 77.5046C142.194 77.5135 142.178 77.5178 142.161 77.5168Z" fill="#2F2E41"/>
<path id="Vector_113" d="M140.295 96.9187C140.282 96.9187 140.269 96.916 140.256 96.9108C140.244 96.9056 140.233 96.898 140.223 96.8884C140.214 96.8788 140.206 96.8674 140.201 96.8549C140.197 96.8424 140.194 96.8291 140.194 96.8156C140.451 74.0713 146.711 59.3294 146.774 59.1839C146.779 59.1717 146.787 59.1606 146.796 59.1514C146.806 59.1421 146.817 59.1349 146.83 59.13C146.842 59.1251 146.855 59.1227 146.869 59.1229C146.882 59.1232 146.895 59.126 146.907 59.1313C146.919 59.1366 146.931 59.1443 146.94 59.1539C146.949 59.1634 146.956 59.1747 146.961 59.1871C146.966 59.1995 146.968 59.2127 146.968 59.2261C146.968 59.2394 146.965 59.2525 146.96 59.2647C146.895 59.4102 140.653 74.1178 140.396 96.8197C140.396 96.8329 140.394 96.8459 140.389 96.8581C140.384 96.8702 140.376 96.8812 140.367 96.8904C140.357 96.8997 140.346 96.9069 140.334 96.9118C140.322 96.9166 140.309 96.919 140.295 96.9187Z" fill="#2F2E41"/>
</g>
</svg>
