<svg width="152" height="139" viewBox="0 0 152 139" fill="none" xmlns="http://www.w3.org/2000/svg">
<g id="image">
<path id="Vector" d="M136.072 34.7285V36.8818L117.039 36.7781L115.193 40.1792L136.072 43.1033L138.589 43.4489C139.106 43.5213 139.634 43.4972 140.142 43.378C140.649 43.2587 141.127 43.0467 141.547 42.7541C141.966 42.4615 142.32 42.094 142.588 41.6729C142.856 41.2518 143.032 40.7853 143.106 40.3002L143.627 36.9215L143.964 34.7319L136.072 34.7285ZM150.731 134.352L148.853 130.667L148.436 122.367C147.997 122.568 147.516 122.673 147.028 122.673H138.231L139.842 130.774L122.865 135.648C121.453 136.052 121.757 138.002 123.234 138L148.277 137.988C148.736 137.99 149.189 137.883 149.592 137.677C149.995 137.47 150.335 137.171 150.581 136.807C150.826 136.444 150.969 136.027 150.995 135.598C151.022 135.168 150.931 134.739 150.731 134.352Z" fill="white" stroke="black" stroke-width="0.429688" stroke-miterlimit="10"/>
<path id="Vector_2" d="M146.095 23.4402C146.254 22.158 146.126 20.8582 145.718 19.6265C145.31 18.3948 144.631 17.2592 143.727 16.2944C142.823 15.3296 141.714 14.5576 140.473 14.0293C139.232 13.5009 137.887 13.2282 136.526 13.2291H135.206V13.2515C135.024 13.2429 134.861 13.2291 134.686 13.2291H132.835V10.053C132.303 10.5019 131.616 10.7499 130.904 10.7499C130.192 10.7499 129.505 10.5019 128.973 10.053V13.2291H124.838C122.806 13.2287 120.812 13.7468 119.063 14.7292L114.226 17.6829L117.646 33.9773C118.361 34.5218 118.867 35.2743 119.087 36.1188L136.267 36.2188V34.0738H144.025L143.693 36.2567L143.181 39.6277C143.108 40.1116 142.935 40.5771 142.672 40.9973C142.409 41.4175 142.061 41.7842 141.648 42.0764C141.235 42.3685 140.765 42.5802 140.265 42.6995C139.766 42.8187 139.247 42.843 138.737 42.771L136.267 42.4262L118.907 39.9657L120.302 46.6093H145.82L144.623 34.0738H144.788L146.095 23.4402Z" fill="white" stroke="black" stroke-width="0.429688" stroke-miterlimit="10"/>
<path id="Vector_3" d="M150.028 119.266L145.636 48.91H145.602L145.551 46.6093H119.643L120.519 50.762C120.601 51.1478 120.591 51.5458 120.489 51.9274C120.388 52.309 120.198 52.6646 119.934 52.9687C119.669 53.2728 119.336 53.5177 118.959 53.6858C118.582 53.854 118.17 53.9411 117.752 53.941H111.082L110.034 62.8952L108.97 72.0129C108.304 77.6863 108.242 83.4084 108.786 89.0935L111.425 116.483C111.542 117.683 112.123 118.801 113.057 119.624C113.991 120.446 115.213 120.917 116.491 120.945L125.481 121.145C125.874 121.154 126.265 121.087 126.63 120.947C126.994 120.808 127.324 120.599 127.599 120.334C127.875 120.07 128.089 119.754 128.23 119.408C128.37 119.062 128.434 118.692 128.416 118.321L126.684 81.7357L127.422 79.8958L132.249 118.975C132.368 119.937 132.858 120.824 133.625 121.467C134.393 122.111 135.385 122.465 136.412 122.464H146.82C147.257 122.463 147.689 122.379 148.09 122.215C148.491 122.052 148.853 121.814 149.153 121.515C149.453 121.215 149.685 120.862 149.836 120.475C149.986 120.088 150.051 119.677 150.028 119.266Z" fill="black"/>
<path id="Vector_4" d="M122.877 135.559L139.232 130.689C139.604 131.664 140.255 132.516 141.109 133.144C141.962 133.772 142.982 134.15 144.049 134.234C145.116 134.319 146.186 134.105 147.132 133.619C148.079 133.133 148.863 132.394 149.392 131.49L150.735 134.223C150.932 134.624 151.022 135.067 150.995 135.51C150.969 135.954 150.827 136.384 150.583 136.76C150.34 137.135 150.002 137.445 149.601 137.66C149.201 137.875 148.751 137.987 148.294 137.987L123.254 138C121.779 138 121.466 135.978 122.877 135.559Z" fill="#E67E22" stroke="black" stroke-width="0.429688" stroke-miterlimit="10"/>
<path id="Vector_5" d="M134.548 26.5033L136.484 34.7285" stroke="black" stroke-width="0.429688" stroke-miterlimit="10"/>
<path id="Vector_6" d="M132.685 5.64024C132.165 5.43118 131.583 5.43118 131.063 5.64024C130.715 5.78219 130.413 6.01285 130.07 6.17255C129.476 6.43729 128.801 6.4615 128.189 6.23997C128.05 6.18899 127.916 6.12543 127.789 6.05012C127.789 6.14238 127.774 6.2382 127.774 6.33401V8.10838C127.774 8.8665 128.08 9.59358 128.625 10.1297C129.169 10.6657 129.908 10.9669 130.678 10.9669C131.448 10.9669 132.186 10.6657 132.731 10.1297C133.275 9.59358 133.581 8.8665 133.581 8.10838V6.33401C133.581 6.26127 133.581 6.19207 133.57 6.12109C133.273 5.96672 132.993 5.76622 132.685 5.64024Z" fill="white" stroke="black" stroke-width="0.429688" stroke-miterlimit="10"/>
<path id="Vector_7" d="M135.292 1.23827C135.18 0.81501 134.99 0.367367 134.578 0.151384C134.259 -0.0227962 133.869 -0.00885968 133.501 0.0120419C131.106 0.151386 128.628 0.781916 126.928 2.33734C126.491 2.7066 126.161 3.16909 125.966 3.68375C125.828 4.20598 125.802 4.74795 125.89 5.27924C126.004 6.32432 125.854 6.84686 126.118 7.87278C126.307 8.4737 126.837 8.88303 127.474 9.13907C127.365 8.84772 127.308 8.54165 127.307 8.23334V6.49154C127.307 6.39748 127.307 6.30342 127.323 6.21285C127.456 6.28678 127.597 6.34917 127.744 6.39922C128.388 6.61669 129.099 6.59291 129.725 6.33303C130.085 6.1815 130.404 5.95506 130.77 5.81049C131.317 5.60527 131.931 5.60527 132.478 5.81049C132.802 5.9359 133.096 6.13098 133.411 6.27381C133.411 6.34348 133.423 6.41141 133.423 6.48283V8.22463C133.422 8.34584 133.412 8.46687 133.394 8.58692C133.678 8.42202 133.929 8.21479 134.138 7.97381C134.443 7.57402 134.669 7.12836 134.806 6.65701C135.415 4.91695 135.775 3.02535 135.292 1.23827Z" fill="black"/>
<path id="Vector_8" d="M116.161 28.3311L117.129 21.0199" stroke="black" stroke-width="0.429688" stroke-miterlimit="10"/>
<path id="Vector_9" d="M130.194 18.2781C130.461 18.2781 130.678 18.0736 130.678 17.8212C130.678 17.5688 130.461 17.3642 130.194 17.3642C129.927 17.3642 129.71 17.5688 129.71 17.8212C129.71 18.0736 129.927 18.2781 130.194 18.2781Z" fill="black"/>
<path id="Vector_10" d="M130.194 20.106C130.461 20.106 130.678 19.9014 130.678 19.649C130.678 19.3966 130.461 19.1921 130.194 19.1921C129.927 19.1921 129.71 19.3966 129.71 19.649C129.71 19.9014 129.927 20.106 130.194 20.106Z" fill="black"/>
<path id="Vector_11" d="M130.727 10.7517C129.996 10.7523 129.291 10.5039 128.742 10.053C129.72 11.7859 132.715 11.2758 132.715 11.2758V10.053C132.166 10.5048 131.458 10.7533 130.727 10.7517ZM136.243 36.5563C137.925 34.8985 144.226 34.3867 144.226 34.3867H136.243V36.5563Z" fill="black"/>
<path id="Vector_12" d="M130.678 16.4503C131.448 16.4503 132.186 16.1359 132.731 15.5761C133.275 15.0164 133.581 14.2572 133.581 13.4656H132.593V10.053C132.065 10.5353 131.384 10.8018 130.678 10.8018C129.971 10.8018 129.29 10.5353 128.762 10.053V13.4656H127.774C127.774 14.2572 128.08 15.0164 128.625 15.5761C129.169 16.1359 129.908 16.4503 130.678 16.4503Z" stroke="black" stroke-width="0.429688" stroke-miterlimit="10"/>
<path id="Vector_13" d="M126.128 120.973L117.134 120.755C116.807 120.746 116.481 120.706 116.161 120.636L116.466 122.339C116.466 122.339 123.913 122.368 126.986 124.938L127.006 120.859C126.721 120.944 126.425 120.982 126.128 120.973ZM149.064 126.119L148.88 122.08L148.797 122.114C148.709 122.157 148.619 122.194 148.527 122.228C148.468 122.248 148.407 122.265 148.343 122.282C148.254 122.309 148.164 122.331 148.073 122.349C148.022 122.36 147.97 122.37 147.916 122.377C147.768 122.401 147.618 122.413 147.468 122.413H138.677C144.618 122.862 148.142 125.375 149.064 126.119Z" fill="black"/>
<path id="Vector_14" d="M123.069 135.383L128.742 133.745C128.707 133.64 128.663 133.536 128.612 133.436L126.736 129.725L126.786 120.837C126.499 120.917 126.2 120.954 125.9 120.947L116.866 120.746C116.537 120.738 116.21 120.701 115.889 120.636L117.683 129.797L100.627 134.687C99.209 135.094 99.5149 137.063 100.998 137.065L122.298 137.086C122.212 136.929 122.164 136.756 122.158 136.579C122.151 136.403 122.186 136.227 122.259 136.064C122.333 135.902 122.444 135.756 122.584 135.639C122.724 135.521 122.889 135.434 123.069 135.383Z" fill="white" stroke="black" stroke-width="0.429688" stroke-miterlimit="10"/>
<path id="Vector_15" d="M123.071 135.499L128.742 133.98C128.707 133.882 128.663 133.786 128.612 133.693L127.298 131.28C125.718 132.415 123.705 132.984 121.663 132.875C119.621 132.765 117.703 131.984 116.293 130.689L100.627 134.861C99.2092 135.238 99.515 137.065 100.998 137.067L122.291 137.086C122.203 136.939 122.155 136.778 122.148 136.612C122.141 136.447 122.176 136.283 122.25 136.131C122.325 135.979 122.437 135.844 122.579 135.734C122.721 135.625 122.889 135.545 123.071 135.499Z" fill="#E67E22" stroke="black" stroke-width="0.429688" stroke-miterlimit="10"/>
<path id="Vector_16" d="M120.032 48.4371H146.161" stroke="white" stroke-width="1.19167" stroke-miterlimit="10" stroke-dasharray="19.06 19.06"/>
<path id="Vector_17" d="M113 116.914L126.5 116.914" stroke="white" stroke-width="1.19167" stroke-miterlimit="10" stroke-dasharray="19.06 19.06"/>
<path id="Vector_18" d="M115 119.914L130.484 119" stroke="white" stroke-width="1.19167" stroke-miterlimit="10" stroke-dasharray="19.06 19.06"/>
<path id="Vector_19" d="M150.032 118.808L132.613 117.894" stroke="white" stroke-width="1.19167" stroke-miterlimit="10" stroke-dasharray="19.06 19.06"/>
<path id="Vector_20" d="M150.032 120.636L132.613 119.722" stroke="white" stroke-width="1.19167" stroke-miterlimit="10" stroke-dasharray="19.06 19.06"/>
<path id="Vector_21" d="M127.774 81.3377C127.55 79.8231 127.346 78.305 127.164 76.7834C126.976 75.263 126.808 73.7408 126.644 72.2187C126.479 70.6965 126.327 69.1709 126.196 67.6452C126.065 66.1196 125.937 64.5905 125.839 63.0596C126.063 64.5673 126.267 66.0848 126.451 67.6122C126.637 69.1326 126.805 70.6548 126.969 72.1769C127.134 73.6991 127.286 75.2247 127.417 76.7504C127.548 78.276 127.676 79.8051 127.774 81.3377Z" fill="white"/>
<g id="Vector_22">
<path d="M48.7455 90.4768H1L7.66564 39.298H28.4646H46.9053H96.915L103.581 90.4768H93.5979" fill="white"/>
<path d="M48.7455 90.4768H1L7.66564 39.298H28.4646H46.9053H96.915L103.581 90.4768H93.5979" stroke="black" stroke-width="0.429688" stroke-miterlimit="10"/>
</g>
<path id="Vector_23" d="M27.1287 90.4768L20.3545 39.298" stroke="black" stroke-width="0.429688" stroke-miterlimit="10"/>
<g id="Vector_24">
<path d="M86.1615 58.6758L85.0144 51.1788H38.7422L42.9405 78.596H48.2934" fill="white"/>
<path d="M86.1615 58.6758L85.0144 51.1788H38.7422L42.9405 78.596H48.2934" stroke="black" stroke-width="0.429688" stroke-miterlimit="10"/>
</g>
<path id="Vector_25" d="M22.0297 109.863V90.4768H10.8878V109.861C10.8878 114.311 9.47216 118.635 6.96619 122.41C6.22709 123.523 5.83643 124.808 5.83888 126.119H27.0786C27.0813 124.743 26.6512 123.398 25.8423 122.25C23.2661 118.593 22.0297 114.247 22.0297 109.863ZM92.7273 109.863V96.7364H81.5835V109.861C81.5835 114.311 80.1679 118.635 77.6619 122.41C76.9228 123.523 76.5321 124.808 76.5346 126.119H97.7743C97.777 124.743 97.3469 123.398 96.538 122.25C93.9618 118.593 92.7273 114.247 92.7273 109.863Z" fill="white" stroke="black" stroke-width="0.429688" stroke-miterlimit="10"/>
<path id="Vector_26" d="M40.6777 58.4901H86.1616" stroke="black" stroke-width="0.429688" stroke-miterlimit="10"/>
<path id="Vector_27" d="M84.7464 58.4901H40.6777C41.7535 58.4898 42.8187 58.695 43.8127 59.0938C44.8066 59.4926 45.7097 60.0773 46.4703 60.8145C47.231 61.5516 47.8343 62.4267 48.2459 63.3899C48.6575 64.353 48.8692 65.3853 48.8689 66.4278V96.8742H92.9358V66.4278C92.9353 64.3227 92.0722 62.304 90.5361 60.8155C89.0001 59.327 86.9169 58.4905 84.7446 58.4901H84.7464Z" fill="white" stroke="black" stroke-width="0.429688" stroke-miterlimit="10"/>
<path id="Vector_28" d="M47.4516 45.6954H32.0897L30.0322 30.1589H45.3941L47.4516 45.6954Z" fill="white" stroke="black" stroke-width="0.429688" stroke-miterlimit="10"/>
<path id="Vector_29" d="M31.9676 45.6954H29.1189L27.1289 30.1589H29.9776L31.9676 45.6954Z" fill="white" stroke="black" stroke-width="0.429688" stroke-miterlimit="10"/>
<path id="Vector_30" d="M45.5162 42.0397L45.2646 40.2119H32.9355L33.1872 42.0397H45.5162Z" fill="white" stroke="black" stroke-width="0.429688" stroke-miterlimit="10"/>
<path id="Vector_31" d="M44.5484 33.8146L44.3226 31.9868H31.9678L32.1936 33.8146H44.5484Z" fill="white" stroke="black" stroke-width="0.429688" stroke-miterlimit="10"/>
<path id="Vector_32" d="M32.9355 37.4702L33.1872 39.298H45.5162L45.2664 37.4702H32.9355Z" fill="white" stroke="black" stroke-width="0.429688" stroke-miterlimit="10"/>
<path id="Vector_33" d="M33.9033 42.9536L33.9876 43.8676H45.5162L45.4319 42.9536H33.9033Z" fill="white" stroke="black" stroke-width="0.429688" stroke-miterlimit="10"/>
<path id="Vector_34" d="M31.9678 34.7285L32.2194 36.5563H44.5484L44.2968 34.7285H31.9678Z" fill="white" stroke="black" stroke-width="0.429688" stroke-miterlimit="10"/>
<path id="Vector_35" d="M82.2904 22.8477C84.4283 22.8477 86.1614 21.0064 86.1614 18.7351C86.1614 16.4638 84.4283 14.6225 82.2904 14.6225C80.1525 14.6225 78.4194 16.4638 78.4194 18.7351C78.4194 21.0064 80.1525 22.8477 82.2904 22.8477Z" fill="white" stroke="black" stroke-width="0.429688" stroke-miterlimit="10"/>
<path id="Vector_36" d="M114.709 41.1258C117.114 41.1258 119.064 39.2846 119.064 37.0133C119.064 34.7419 117.114 32.9007 114.709 32.9007C112.304 32.9007 110.354 34.7419 110.354 37.0133C110.354 39.2846 112.304 41.1258 114.709 41.1258Z" fill="white" stroke="black" stroke-width="0.429688" stroke-miterlimit="10"/>
<path id="Vector_37" d="M120.945 50.779L118.419 39.0772C117.996 39.7884 117.347 40.3624 116.559 40.7212C115.771 41.08 114.883 41.2063 114.015 41.0829C113.146 40.9595 112.34 40.5925 111.705 40.0316C111.071 39.4707 110.638 38.7431 110.467 37.9475C110.295 37.1519 110.393 36.3269 110.747 35.5844C111.101 34.8419 111.693 34.2179 112.444 33.797C113.196 33.3762 114.069 33.1789 114.945 33.2319C115.822 33.2849 116.66 33.5857 117.345 34.0934L113.008 13.9946C112.879 13.3987 112.53 12.8624 112.021 12.477C111.512 12.0916 110.874 11.8809 110.216 11.8808H85.1235C84.7101 11.882 84.3018 11.9664 83.9274 12.1283C83.5529 12.2901 83.2211 12.5254 82.9553 12.8179C82.6895 13.1103 82.4959 13.4527 82.3882 13.8213C82.2805 14.1899 82.2611 14.5757 82.3315 14.9519C83.2233 15.0556 84.0571 15.4159 84.7148 15.9816C85.3724 16.5473 85.8205 17.2898 85.9955 18.1038C86.1706 18.9178 86.0637 19.7621 85.69 20.5168C85.3164 21.2716 84.6949 21.8987 83.9137 22.3091L90.2627 51.805C90.3907 52.4016 90.7391 52.9386 91.2483 53.3245C91.7575 53.7103 92.3959 53.921 93.0546 53.9205H118.147C118.569 53.9214 118.985 53.8359 119.366 53.6701C119.748 53.5042 120.084 53.2623 120.352 52.9617C120.62 52.6611 120.812 52.3093 120.914 51.9319C121.017 51.5544 121.027 51.1606 120.945 50.779Z" fill="black"/>
</g>
</svg>
