<svg width="151" height="140" viewBox="0 0 151 140" fill="none" xmlns="http://www.w3.org/2000/svg">
<path d="M9.57351 127.384H0" stroke="black" stroke-width="0.429688" stroke-miterlimit="10"/>
<path d="M43.9413 127.384H18.123" stroke="black" stroke-width="0.429688" stroke-miterlimit="10"/>
<path d="M147.036 127.384H52.9727" stroke="black" stroke-width="0.429688" stroke-miterlimit="10"/>
<path d="M133.931 118.363H99.1152V127.382H133.931V118.363Z" fill="white" stroke="black" stroke-width="0.429688" stroke-miterlimit="10"/>
<path d="M128.589 109.337H93.7729V118.356H128.589V109.337Z" fill="white" stroke="black" stroke-width="0.429688" stroke-miterlimit="10"/>
<path d="M137.862 100.31H103.046V109.329H137.862V100.31Z" fill="#E67E22" stroke="black" stroke-width="0.429688" stroke-miterlimit="10"/>
<path d="M150 41.542C150 19.1511 131.785 1 109.315 1C101.25 0.999335 93.3658 3.38756 86.6654 7.86131C79.965 12.3351 74.7503 18.6924 71.6836 26.1258C68.6169 33.5593 67.8366 41.7333 69.442 49.6095C71.0473 57.4858 74.9658 64.7088 80.6996 70.3611C85.7494 75.3381 88.5164 82.1756 88.5164 89.2526V97.6925C88.5162 98.0366 88.5841 98.3773 88.7163 98.6952C88.8484 99.0131 89.0422 99.3019 89.2865 99.545C89.5308 99.7882 89.8208 99.9809 90.14 100.112C90.4592 100.243 90.8012 100.311 91.1465 100.31H127.492C128.188 100.31 128.857 100.034 129.349 99.5434C129.842 99.0525 130.119 98.3867 130.119 97.6925V89.251C130.123 85.7158 130.827 82.2163 132.19 78.9526C133.554 75.689 135.55 72.7253 138.064 70.2313C141.854 66.4701 144.86 61.9988 146.909 57.075C148.957 52.1512 150.008 46.8722 150 41.542Z" fill="white" stroke="black" stroke-width="0.429688" stroke-miterlimit="10"/>
<path d="M116.053 100.31V52.8839" stroke="black" stroke-width="0.429688" stroke-miterlimit="10"/>
<path d="M97.9561 50.6558C101.262 52.6126 105.024 53.6723 108.869 53.7292C112.713 53.7861 116.506 52.8384 119.868 50.9803M109.315 5.53111C129.07 5.53111 145.084 21.489 145.084 41.1743M116.059 52.6427C119.573 51.4894 122.738 49.472 125.262 46.777C128.171 43.6736 123.666 39.1808 120.612 42.1411C119.197 43.5075 118.068 45.1384 117.286 46.9403C116.505 48.7423 116.088 50.68 116.059 52.6427Z" stroke="black" stroke-width="0.429688" stroke-miterlimit="10"/>
<path d="M92.2402 87.953V96.3729" stroke="black" stroke-width="0.429688" stroke-miterlimit="10"/>
<path d="M110.211 105.663H133.931" stroke="black" stroke-width="0.429688" stroke-miterlimit="10"/>
<path d="M98.3516 115.626H122.071" stroke="black" stroke-width="0.429688" stroke-miterlimit="10"/>
<path d="M108.012 124.821H131.731" stroke="black" stroke-width="0.429688" stroke-miterlimit="10"/>
<path d="M102.577 100.31V52.8839" stroke="black" stroke-width="0.429688" stroke-miterlimit="10"/>
<path d="M93.2154 46.8685C95.7824 49.5796 99.001 51.5933 102.567 52.7192C102.547 50.7301 102.129 48.7649 101.337 46.9389C100.545 45.113 99.3952 43.4631 97.9545 42.0862C94.8101 39.0693 90.2146 43.7036 93.2154 46.8685Z" stroke="black" stroke-width="0.429688" stroke-miterlimit="10"/>
<path d="M52.4347 117.092L44.8183 67.108L42.4537 51.5261H10.5053L10.4736 52.6726L7.28575 119.671C7.26876 120.027 7.3902 120.375 7.62476 120.644C7.85932 120.913 8.18891 121.081 8.54485 121.114L18.8297 122.069C20.0327 122.18 21.2314 121.816 22.1682 121.056C23.105 120.296 23.7051 119.2 23.8394 118.003L27.7921 82.8062L36.9297 117.436C37.1957 118.442 37.8304 119.312 38.7086 119.875C39.5869 120.438 40.6448 120.652 41.6739 120.476L51.1405 118.869C51.5467 118.8 51.9096 118.576 52.1515 118.243C52.3935 117.911 52.4951 117.498 52.4347 117.092Z" fill="white" stroke="black" stroke-width="0.429688" stroke-miterlimit="10"/>
<path d="M68.8831 136.722L53.6203 132.063L51.76 118.631C51.5744 118.759 51.363 118.845 51.1405 118.884L41.6922 120.476L45.3911 131.843L43.646 135.481C43.4683 135.853 43.388 136.264 43.4125 136.675C43.437 137.087 43.5656 137.486 43.7862 137.834C44.0068 138.183 44.3124 138.47 44.6744 138.67C45.0365 138.869 45.4433 138.974 45.857 138.975L68.5392 138.987C69.8784 138.99 70.1606 137.116 68.8831 136.722ZM17.432 131.266L19.0668 122.079C18.9884 122.079 18.9099 122.079 18.8297 122.069L9.64529 121.217L9.53007 130.775L6.95008 136.161C6.80405 136.462 6.73706 136.794 6.75541 137.128C6.77375 137.461 6.87683 137.784 7.05497 138.067C7.2331 138.35 7.48044 138.583 7.77376 138.744C8.06709 138.906 8.39677 138.99 8.73185 138.99L18.5458 139C18.895 139.001 19.2381 138.909 19.5402 138.735C19.8424 138.56 20.0928 138.309 20.266 138.007C20.4392 137.705 20.529 137.363 20.5264 137.015C20.5237 136.667 20.4286 136.326 20.2508 136.026L17.432 131.266ZM56.5243 4.16163H18.7512C18.1085 4.16152 17.4826 4.366 16.9648 4.74525C16.4469 5.12451 16.0641 5.6587 15.8723 6.26993L10.6205 22.9966L9.92751 27.3563L12.7146 23.6689C13.7287 22.3269 15.0397 21.236 16.5457 20.4811C18.0518 19.7261 19.7122 19.3273 21.398 19.3158H30.4488C31.7412 19.3145 33.0113 19.6508 34.1326 20.291C35.2539 20.9313 36.1872 21.8533 36.8395 22.965L43.297 33.9658L43.2352 34.0956H45.508L52.4748 24.7771C51.9744 24.2405 51.6422 23.5701 51.5187 22.848C51.3953 22.126 51.486 21.3837 51.7798 20.7124C52.0736 20.041 52.5577 19.4696 53.1727 19.0684C53.7876 18.6672 54.5067 18.4536 55.2418 18.4538C55.5342 18.4549 55.8256 18.4896 56.1101 18.557L59.4031 8.06541C59.5447 7.61531 59.5779 7.13834 59.5001 6.67308C59.4224 6.20782 59.2358 5.76733 58.9555 5.38725C58.6752 5.00717 58.3091 4.69817 57.8867 4.48525C57.4643 4.27233 56.9976 4.16147 56.5243 4.16163Z" fill="white" stroke="black" stroke-width="0.429688" stroke-miterlimit="10"/>
<path d="M43.2971 33.9608L36.8396 22.965C36.1876 21.8551 35.2554 20.9346 34.1357 20.295C33.0161 19.6554 31.7479 19.3189 30.4573 19.3191H21.4048L21.4248 19.3441C19.6035 19.4739 17.8818 20.2219 16.5468 21.4634C15.2119 22.7049 14.3444 24.3649 14.089 26.1665L10.5054 51.5261H42.4538L40.4149 40.0444C41.4251 37.8945 42.6542 35.2903 43.2971 33.9608ZM28.5352 12.0907C28.5219 12.0241 28.5052 11.9592 28.4885 11.8943C28.4838 11.879 28.4799 11.8634 28.4768 11.8477C28.4584 11.7861 28.4367 11.7262 28.415 11.6663C28.4099 11.6499 28.4037 11.6338 28.3966 11.6181C28.3732 11.5582 28.3482 11.5016 28.3215 11.4433L28.2981 11.3984C28.2697 11.3418 28.2396 11.2869 28.2079 11.232L28.1962 11.2121C27.912 11.9178 27.5273 12.5791 27.054 13.1756L26.4863 12.5416C26.3876 12.424 26.2662 12.3273 26.1293 12.2573C25.9924 12.1874 25.8428 12.1456 25.6893 12.1345C25.5359 12.1233 25.3817 12.1431 25.2361 12.1925C25.0904 12.2419 24.9563 12.32 24.8415 12.4222C24.7268 12.5243 24.6339 12.6484 24.5683 12.7871C24.5027 12.9258 24.4657 13.0762 24.4596 13.2294C24.4535 13.3826 24.4784 13.5354 24.5328 13.6788C24.5872 13.8223 24.67 13.9533 24.7763 14.0642L25.3975 14.7564C24.8545 15.1513 24.2699 15.4861 23.6541 15.7548C23.8997 16.1219 24.2324 16.4229 24.6228 16.631C25.0131 16.8392 25.449 16.948 25.8918 16.9479C26.6059 16.9479 27.2907 16.6654 27.7958 16.1624C28.3009 15.6594 28.5849 14.9771 28.5853 14.2655V12.6015C28.5852 12.43 28.5684 12.2589 28.5352 12.0907Z" stroke="black" stroke-width="0.429688" stroke-miterlimit="10"/>
<path d="M24.7764 14.0642C24.6701 13.9533 24.5873 13.8223 24.5329 13.6788C24.4785 13.5354 24.4536 13.3826 24.4597 13.2294C24.4658 13.0762 24.5027 12.9258 24.5683 12.7871C24.6339 12.6484 24.7269 12.5243 24.8416 12.4222C24.9563 12.32 25.0905 12.2419 25.2362 12.1925C25.3818 12.1431 25.5359 12.1233 25.6894 12.1345C25.8428 12.1456 25.9925 12.1874 26.1294 12.2573C26.2663 12.3273 26.3877 12.4239 26.4863 12.5416L27.0541 13.1756C27.5262 12.5786 27.9093 11.9166 28.1913 11.2104C28.3542 11.4817 28.4673 11.7798 28.5253 12.0906C28.5353 11.8935 28.5185 11.6959 28.4752 11.5032C28.4276 11.3148 28.3645 11.1306 28.2865 10.9525C28.1233 10.6227 28.0107 10.2705 27.9525 9.90746C27.9258 9.61626 27.9809 9.32339 27.9809 9.03052C27.991 8.88434 27.9707 8.73765 27.9212 8.59965C27.8718 8.46164 27.7943 8.33528 27.6937 8.22847C27.4098 7.97388 26.9823 8.00383 26.5999 7.99218C26.2492 7.98053 25.8768 7.91065 25.6247 7.6677C25.4844 7.53458 25.3909 7.35819 25.2473 7.23006C25.1184 7.12786 24.9672 7.05729 24.8059 7.02405C24.6447 6.99081 24.4778 6.99583 24.3188 7.0387C24.0023 7.12912 23.7075 7.28252 23.4521 7.48965C23.1699 7.69765 22.866 7.93893 22.5153 7.91564C22.311 7.87785 22.1104 7.82216 21.9158 7.74923C21.6814 7.69668 21.4363 7.71978 21.216 7.81521C20.9957 7.91063 20.8115 8.07343 20.6901 8.28006C20.4764 8.66611 20.4864 9.18694 20.1441 9.46816C19.957 9.62291 19.6965 9.67117 19.5179 9.83591C19.2356 10.0955 19.259 10.5548 19.4093 10.9075C19.5596 11.2603 19.8101 11.5731 19.9337 11.9309C20.1925 12.6947 19.8518 13.5949 20.2159 14.3138C20.3249 14.5142 20.4665 14.6953 20.635 14.8496C20.989 15.1957 21.6987 15.7947 22.4185 15.7215C22.828 15.7012 23.2385 15.7146 23.6458 15.7615C24.2627 15.4927 24.8483 15.158 25.3926 14.7631L24.7764 14.0642ZM25.8918 16.9479C25.2378 16.9502 24.6056 16.7134 24.1151 16.2823V19.3208H27.6686V16.2773C27.1788 16.7102 26.5466 16.9488 25.8918 16.9479Z" stroke="black" stroke-width="0.429688" stroke-miterlimit="10"/>
<path d="M26.959 16.7283C27.2494 17.0252 27.4891 17.3676 27.6687 17.7416V16.2806C27.4573 16.4662 27.2178 16.6173 26.959 16.7283Z" fill="black"/>
<path d="M14.0891 26.1615C14.3579 24.2621 15.3062 22.5233 16.7593 21.2652C18.2124 20.007 20.0727 19.3142 21.9977 19.3141H21.4767C19.7775 19.3139 18.1015 19.7072 16.5809 20.4629C15.0604 21.2187 13.7368 22.3162 12.7148 23.6689L7.81863 30.1469L5.49414 34.1139L10.0029 43.0879L12.0535 40.517L14.0891 26.1615Z" stroke="black" stroke-width="0.429688" stroke-miterlimit="10"/>
<path d="M68.8832 136.722L53.9744 132.169C53.5776 132.992 52.9628 133.69 52.1964 134.19C51.4301 134.689 50.5414 134.97 49.6263 135.003C48.7112 135.036 47.8046 134.819 47.0043 134.375C46.204 133.932 45.5405 133.279 45.0856 132.487L43.6495 135.482C43.4718 135.855 43.3914 136.266 43.4159 136.677C43.4404 137.089 43.569 137.487 43.7896 137.836C44.0103 138.185 44.3158 138.472 44.6779 138.672C45.0399 138.871 45.4467 138.976 45.8604 138.977L68.5426 138.988C69.8785 138.99 70.1607 137.116 68.8832 136.722Z" fill="black"/>
<path d="M10.4269 23.6156L12.4943 17.0161C12.0195 16.6065 11.4499 16.3211 10.8368 16.1855C10.2237 16.05 9.58635 16.0687 8.98229 16.2399C8.37824 16.4111 7.82644 16.7294 7.37665 17.1661C6.92685 17.6028 6.59321 18.1443 6.40581 18.7415C6.2184 19.3388 6.18313 19.9732 6.30316 20.5874C6.42319 21.2017 6.69476 21.7765 7.09337 22.2601C7.49199 22.7437 8.00513 23.1208 8.58651 23.3574C9.16788 23.5941 9.79922 23.6828 10.4236 23.6156H10.4269Z" fill="white" stroke="black" stroke-width="0.429688" stroke-miterlimit="10"/>
<path d="M20.2508 136.018L17.7025 131.722C17.141 132.283 16.4682 132.723 15.727 133.011C14.9858 133.3 14.1924 133.431 13.3974 133.397C12.6024 133.364 11.8231 133.165 11.1093 132.815C10.3954 132.464 9.76265 131.97 9.2512 131.362L6.95008 136.161C6.80405 136.462 6.73706 136.794 6.75541 137.128C6.77375 137.461 6.87683 137.784 7.05497 138.067C7.2331 138.35 7.48044 138.583 7.77376 138.744C8.06709 138.906 8.39677 138.99 8.73185 138.99L18.5458 139C18.8962 139.001 19.2407 138.91 19.5441 138.735C19.8474 138.56 20.0987 138.309 20.2721 138.005C20.4456 137.702 20.535 137.358 20.5313 137.009C20.5275 136.66 20.4307 136.318 20.2508 136.018ZM41.6922 120.476L42.7376 123.679C42.7376 123.679 45.9572 120.41 50.0384 119.06L41.6922 120.476Z" fill="black"/>
<path d="M55.2437 18.4522C54.5086 18.452 53.7895 18.6656 53.1746 19.0668C52.5596 19.468 52.0755 20.0393 51.7817 20.7107C51.4879 21.3821 51.3972 22.1243 51.5206 22.8464C51.6441 23.5684 51.9763 24.2388 52.4766 24.7754L43.4091 36.8961L42.5742 35.4734C41.5038 37.7215 39.9791 40.9646 39.2344 42.5421L40.6972 44.3725C41.0125 44.77 41.4219 45.0832 41.8886 45.2841C42.3553 45.485 42.8648 45.5673 43.3713 45.5236C43.8779 45.4799 44.3656 45.3115 44.7907 45.0337C45.2158 44.7558 45.5651 44.3771 45.8071 43.9316L46.642 42.4023L55.616 25.9602C56.5676 25.8483 57.441 25.3805 58.0597 24.6515C58.6784 23.9224 58.9963 22.9865 58.949 22.0329C58.9017 21.0793 58.4928 20.1791 57.8049 19.5144C57.1171 18.8497 56.2017 18.47 55.2437 18.4522Z" fill="white" stroke="black" stroke-width="0.429688" stroke-miterlimit="10"/>
<path d="M42.5726 35.4767C41.589 37.5417 40.2247 40.4488 39.4365 42.1328C40.1412 40.9596 42.3254 37.4253 43.4075 36.9044L42.5726 35.4767Z" fill="black"/>
<path d="M5.95147 35.0174L0.804849 43.7751C-0.15033 46.8552 3.87746 48.9752 5.89135 46.4509L7.13208 44.895L9.45323 41.9863L5.95147 35.0174Z" fill="white" stroke="black" stroke-width="0.429688" stroke-miterlimit="10"/>
<path d="M5.95117 35.0174C5.95117 35.0174 8.30906 40.4821 8.58626 43.0813L9.45962 41.9863L5.95117 35.0174ZM9.47799 121.2L19.0649 122.09L18.4687 125.437C18.4687 125.437 14.6012 121.716 9.47799 121.2ZM27.7917 82.8063C27.5546 82.0175 27.3325 81.2254 27.1021 80.4334L26.4341 78.0555C25.9949 76.468 25.5758 74.8756 25.1466 73.2864C24.7175 71.6973 24.3117 70.0998 23.9142 68.5024L23.3164 66.1062C23.1277 65.3042 22.929 64.5054 22.747 63.7017C22.9841 64.4905 23.2062 65.2842 23.435 66.0746L24.1029 68.4541C24.5421 70.0399 24.9613 71.6324 25.3921 73.2232C25.8229 74.814 26.227 76.4081 26.6228 78.0056L27.2206 80.4034C27.4093 81.2055 27.608 82.0042 27.7917 82.8063Z" fill="black"/>
<path d="M5.49376 34.1139L7.81825 30.1469L9.92565 27.3563L10.6187 22.9966L10.425 23.6156C9.87114 23.6754 9.31093 23.6112 8.78515 23.4278C8.25938 23.2445 7.78128 22.9465 7.38574 22.5556L0.804688 43.7751L5.94463 35.0174L5.49376 34.1139Z" fill="white" stroke="black" stroke-width="0.429688" stroke-miterlimit="10"/>
<g style="mix-blend-mode:darken">
<path d="M40.7039 44.3775L39.241 42.5471C39.5333 41.9214 39.9524 41.0312 40.41 40.0511L40.5502 39.7549C40.769 39.2889 40.9961 38.8064 41.2182 38.3238L41.2883 38.1741C41.3284 38.0875 41.3702 38.0077 41.4102 37.9128C41.4503 37.818 41.4804 37.768 41.5138 37.6948L41.6724 37.362C41.6841 37.3371 41.6958 37.3138 41.7058 37.2888L41.8728 36.956L41.958 36.7763L42.0682 36.54L42.1634 36.342C42.297 36.0574 42.4272 35.7829 42.5524 35.5216L42.5658 35.495C42.8464 34.9043 43.0952 34.3818 43.2905 33.9791L36.8397 22.965C36.1877 21.8551 35.2555 20.9346 34.1359 20.295C33.0162 19.6554 31.748 19.3189 30.4574 19.3191H21.4066C19.7208 19.3307 18.0603 19.7294 16.5543 20.4844C15.0483 21.2394 13.7373 22.3302 12.7231 23.6722L7.81863 30.1469L5.49414 34.1139L10.0029 43.0879L12.0535 40.517L10.4971 51.5328H42.4539L41.285 44.9449C41.0665 44.7827 40.8711 44.5918 40.7039 44.3775Z" fill="black"/>
</g>
<path d="M29.6041 30.3416C30.0249 30.8408 30.439 31.34 30.8515 31.8392C31.264 32.3384 31.6864 32.8376 32.0889 33.3368C32.9055 34.3435 33.7321 35.3419 34.5403 36.3553L36.965 39.3938C37.7765 40.4039 38.5647 41.4322 39.3663 42.4506L39.0974 42.4822L40.1228 40.3406L41.1698 38.209C41.5188 37.5001 41.8645 36.7879 42.2235 36.0824C42.5825 35.3769 42.9332 34.6663 43.2972 33.9641C42.9866 34.6913 42.6627 35.4135 42.3437 36.139C42.0248 36.8645 41.6958 37.5817 41.3685 38.3022L40.3883 40.4654L39.3863 42.6153L39.2778 42.8483L39.1108 42.6469C38.3059 41.6302 37.4877 40.6268 36.6945 39.6018L34.2998 36.54C33.5016 35.5183 32.7218 34.4833 31.9319 33.4566C31.5362 32.9424 31.1504 32.4232 30.763 31.9057C30.3756 31.3882 29.9865 30.8657 29.6041 30.3416ZM10.5055 51.5261C10.6825 49.9952 10.8812 48.466 11.0683 46.9351L11.6677 42.3491C12.0719 39.2923 12.5027 36.2388 12.9218 33.1837L13.5898 28.606L13.9238 26.3163C13.9471 26.1266 13.9906 25.9336 14.0273 25.7406L14.0824 25.451C14.1008 25.3545 14.1342 25.263 14.1609 25.1681C14.2193 24.9801 14.2644 24.7887 14.3362 24.6057L14.5533 24.0599C15.1983 22.6238 16.2492 21.406 17.5775 20.5555L17.8246 20.3991C17.9081 20.3475 17.9916 20.3076 18.0835 20.261L18.344 20.1262C18.429 20.0786 18.5171 20.0369 18.6078 20.0014L19.1472 19.7801L19.7049 19.6137C20.4544 19.4087 21.229 19.3101 22.0061 19.3208C21.2344 19.3478 20.4697 19.476 19.7317 19.7019L19.1739 19.8832L18.6496 20.1195C18.5616 20.1577 18.4762 20.2016 18.3941 20.251L18.1436 20.3924C18.0601 20.4407 17.9766 20.4823 17.8948 20.5355L17.6577 20.7019C16.3835 21.5563 15.3857 22.761 14.7854 24.1697C14.5019 24.8745 14.3078 25.6118 14.2077 26.3646L13.892 28.6542L13.2608 33.2369C12.815 36.2871 12.3858 39.3422 11.9249 42.389L11.2302 46.9617C10.9914 48.481 10.7593 50.0052 10.5055 51.5261ZM5.49414 34.1139C5.93499 34.8294 6.34579 35.5616 6.74489 36.2971C7.144 37.0326 7.52807 37.778 7.91382 38.5235C8.29956 39.269 8.65692 40.0211 9.0076 40.7849C9.35827 41.5487 9.70394 42.3075 10.0095 43.0879C9.56868 42.3724 9.15789 41.6419 8.75878 40.9047C8.35968 40.1676 7.9756 39.4254 7.58986 38.6783C7.20411 37.9311 6.84675 37.1807 6.49441 36.4185C6.14206 35.6564 5.81476 34.8876 5.49414 34.1139Z" fill="white"/>
<g clip-path="url(#clip0_21672_127027)">
<path d="M27.1943 34.858L27.1919 34.8555C27.0142 34.6785 26.7261 34.6785 26.5484 34.8555L25.6716 35.7293C25.4939 35.9063 25.4939 36.1934 25.6716 36.3705L25.674 36.3729C25.8517 36.55 26.1398 36.55 26.3175 36.3729L27.1943 35.4992C27.372 35.3221 27.372 35.0351 27.1943 34.858Z" fill="white"/>
</g>
<path d="M33.1536 27.3103C32.9309 27.1933 32.6551 27.2784 32.5377 27.5003C32.4204 27.7223 32.5058 27.997 32.7285 28.114L33.8246 28.6897C34.0474 28.8066 34.3231 28.7215 34.4405 28.4996C34.5579 28.2776 34.4725 28.0029 34.2497 27.8859L33.1536 27.3103Z" fill="white"/>
<path d="M27.3303 21.8628C27.1076 21.7459 26.8319 21.831 26.7145 22.0529C26.5971 22.2749 26.6825 22.5496 26.9053 22.6666L28.0014 23.2422C28.2241 23.3592 28.4999 23.2741 28.6173 23.0522C28.7346 22.8302 28.6492 22.5555 28.4265 22.4385L27.3303 21.8628Z" fill="white"/>
<path d="M6.16189 33.1092C5.93916 32.9922 5.66343 33.0773 5.54605 33.2993C5.42866 33.5212 5.51406 33.796 5.7368 33.9129L6.83295 34.4886C7.05569 34.6056 7.33141 34.5205 7.4488 34.2985C7.56619 34.0766 7.48078 33.8018 7.25804 33.6848L6.16189 33.1092Z" fill="white"/>
<path d="M17.2093 39.8941C16.9865 39.7771 16.7108 39.8622 16.5934 40.0842C16.476 40.3061 16.5614 40.5809 16.7842 40.6979L17.8803 41.2735C18.103 41.3905 18.3788 41.3054 18.4962 41.0834C18.6135 40.8615 18.5281 40.5867 18.3054 40.4698L17.2093 39.8941Z" fill="white"/>
<path d="M27.7185 42.4443C27.4958 42.3273 27.2201 42.4124 27.1027 42.6343C26.9853 42.8563 27.0707 43.131 27.2934 43.248L28.3896 43.8237C28.6123 43.9406 28.8881 43.8555 29.0054 43.6336C29.1228 43.4116 29.0374 43.1369 28.8147 43.0199L27.7185 42.4443Z" fill="white"/>
<path d="M36.3946 52.0369C36.6439 52.0721 36.8747 51.8993 36.91 51.6509C36.9454 51.4025 36.772 51.1726 36.5228 51.1373L35.296 50.9638C35.0467 50.9285 34.816 51.1013 34.7806 51.3497C34.7452 51.5981 34.9186 51.828 35.1679 51.8633L36.3946 52.0369Z" fill="white"/>
<path d="M39.1075 25.8467C39.2855 25.6693 39.2855 25.3817 39.1075 25.2042C38.9295 25.0268 38.6408 25.0268 38.4628 25.2042L37.5867 26.0773C37.4086 26.2547 37.4086 26.5423 37.5866 26.7198C37.7647 26.8972 38.0533 26.8972 38.2314 26.7197L39.1075 25.8467Z" fill="white"/>
<path d="M34.0028 19.042C33.947 18.7973 33.7028 18.6441 33.4572 18.6996C33.2117 18.7552 33.0579 18.9986 33.1137 19.2433L33.3882 20.4473C33.444 20.6919 33.6882 20.8452 33.9338 20.7896C34.1793 20.734 34.3331 20.4906 34.2773 20.246L34.0028 19.042Z" fill="white"/>
<path d="M22.6893 26.5709C22.6335 26.3262 22.3893 26.173 22.1438 26.2285C21.8982 26.2841 21.7444 26.5275 21.8002 26.7722L22.0747 27.9762C22.1305 28.2208 22.3748 28.3741 22.6203 28.3185C22.8658 28.2629 23.0196 28.0195 22.9638 27.7749L22.6893 26.5709Z" fill="white"/>
<path d="M39.5809 37.24C39.5251 36.9954 39.2809 36.8421 39.0354 36.8977C38.7899 36.9533 38.636 37.1966 38.6918 37.4413L38.9663 38.6453C39.0221 38.89 39.2664 39.0432 39.5119 38.9877C39.7574 38.9321 39.9112 38.6887 39.8554 38.444L39.5809 37.24Z" fill="white"/>
<path d="M24.6883 49.9887C24.6326 49.744 24.3883 49.5908 24.1428 49.6463C23.8973 49.7019 23.7435 49.9453 23.7992 50.19L24.0738 51.394C24.1295 51.6386 24.3738 51.7919 24.6193 51.7363C24.8648 51.6807 25.0186 51.4373 24.9629 51.1927L24.6883 49.9887Z" fill="white"/>
<path d="M16.0328 26.2817C16.2108 26.1042 16.2108 25.8166 16.0328 25.6392C15.8548 25.4618 15.5661 25.4618 15.3881 25.6392L14.5119 26.5123C14.3339 26.6897 14.3339 26.9773 14.5119 27.1547C14.69 27.3321 14.9786 27.3321 15.1567 27.1547L16.0328 26.2817Z" fill="white"/>
<path d="M37.6905 43.4576C37.8686 43.2802 37.8686 42.9926 37.6905 42.8152C37.5125 42.6378 37.2238 42.6378 37.0458 42.8152L36.1697 43.6882C35.9916 43.8656 35.9916 44.1533 36.1697 44.3307C36.3477 44.5081 36.6363 44.5081 36.8144 44.3307L37.6905 43.4576Z" fill="white"/>
<path d="M16.2203 47.6468C16.3983 47.4694 16.3983 47.1818 16.2203 47.0044C16.0423 46.8269 15.7536 46.827 15.5756 47.0044L14.6994 47.8774C14.5214 48.0548 14.5214 48.3425 14.6994 48.5199C14.8775 48.6973 15.1661 48.6973 15.3441 48.5199L16.2203 47.6468Z" fill="white"/>
<path d="M13.9854 33.7278L13.0385 33.593L12.9116 34.4933L13.8568 34.6281C13.9161 34.6365 13.9765 34.6332 14.0345 34.6183C14.0926 34.6035 14.1471 34.5774 14.195 34.5415C14.2429 34.5057 14.2833 34.4608 14.3138 34.4094C14.3443 34.358 14.3643 34.3011 14.3728 34.242C14.3812 34.1829 14.3779 34.1227 14.363 34.0649C14.3481 34.007 14.3219 33.9527 14.2859 33.905C14.25 33.8572 14.2049 33.817 14.1533 33.7866C14.1018 33.7562 14.0447 33.7362 13.9854 33.7278ZM19.0067 19.9165C18.973 19.8582 18.9265 19.8081 18.8707 19.7701C18.8149 19.7321 18.7513 19.7071 18.6844 19.6969L17.4587 19.5305C17.3389 19.5135 17.2173 19.5446 17.1205 19.617C17.0237 19.6894 16.9598 19.7971 16.9427 19.9165C16.9257 20.0359 16.9569 20.1571 17.0296 20.2536C17.1022 20.35 17.2104 20.4137 17.3302 20.4307L17.8996 20.5106L19.0067 19.9165Z" fill="white"/>
<defs>
<clipPath id="clip0_21672_127027">
<rect width="0.911892" height="2.14624" fill="white" transform="matrix(0.708353 0.705858 -0.708353 0.705858 26.8701 34.5349)"/>
</clipPath>
</defs>
</svg>
