<svg width="180" height="138" viewBox="0 0 180 138" fill="none" xmlns="http://www.w3.org/2000/svg">
<g id="Image">
<path id="Vector" d="M158.517 132.61L156.758 128.939L156.805 120.146C156.535 120.224 156.254 120.261 155.973 120.255L147.494 120.054C147.185 120.047 146.878 120.011 146.576 119.947L148.262 129.009L132.247 133.856C130.92 134.259 131.208 136.207 132.599 136.209L156.21 136.233C156.641 136.234 157.065 136.126 157.443 135.92C157.821 135.714 158.14 135.416 158.37 135.054C158.601 134.692 158.735 134.278 158.761 133.85C158.786 133.423 158.703 132.996 158.517 132.61Z" fill="white" stroke="black" stroke-width="0.272135" stroke-miterlimit="10"/>
<path id="Vector_2" d="M164.733 33.6555H152.741C151.472 34.1815 150.278 34.8707 149.19 35.7055L165.762 35.8034V33.6555H164.733Z" fill="black"/>
<path id="Vector_3" d="M157.283 130.036C155.799 131.246 153.91 131.854 151.993 131.737C150.077 131.62 148.277 130.787 146.953 129.406L132.247 133.856C130.92 134.259 131.208 136.207 132.599 136.207L156.21 136.233C156.641 136.234 157.065 136.126 157.443 135.92C157.821 135.714 158.14 135.416 158.37 135.054C158.601 134.692 158.735 134.278 158.761 133.851C158.786 133.423 158.703 132.996 158.517 132.61L157.283 130.036Z" stroke="black" stroke-width="0.272135" stroke-miterlimit="10"/>
<path id="Vector_4" d="M178.138 48.4853H178.124C178.124 48.3197 178.138 48.154 178.138 47.9865C178.14 45.7761 177.665 43.5909 176.746 41.5778C175.827 39.5647 174.484 37.7703 172.809 36.3154L172.386 39.2181C172.316 39.7037 172.15 40.1708 171.898 40.5924C171.645 41.014 171.311 41.3818 170.915 41.6746C170.519 41.9674 170.068 42.1794 169.589 42.2983C169.109 42.4172 168.611 42.4407 168.123 42.3674L165.757 42.0079L146.083 39.0901H145.943C144.479 41.1627 143.551 43.5611 143.24 46.0739H143.225L140.41 71.4436C139.785 77.0801 139.73 82.7645 140.245 88.4119L142.721 115.611C142.83 116.804 143.377 117.916 144.258 118.734C145.139 119.552 146.292 120.02 147.498 120.048L155.977 120.25C156.348 120.258 156.717 120.191 157.06 120.052C157.404 119.914 157.715 119.706 157.974 119.443C158.234 119.18 158.436 118.866 158.569 118.522C158.701 118.178 158.761 117.811 158.745 117.443L157.797 79.1145L162.369 118.092C162.482 119.047 162.943 119.927 163.666 120.566C164.389 121.205 165.324 121.558 166.291 121.558H177.722C177.933 121.555 178.142 121.512 178.336 121.429C178.53 121.346 178.706 121.226 178.853 121.076C179 120.926 179.116 120.748 179.194 120.554C179.272 120.359 179.31 120.151 179.307 119.941L178.138 48.4853Z" fill="black"/>
<path id="Vector_5" d="M176.06 118.482L174.869 48.4854C174.869 48.3197 175.248 38.996 172.809 36.3173" stroke="white" stroke-width="1.09427" stroke-miterlimit="10"/>
<path id="Vector_6" d="M155.973 120.255L147.494 120.054C147.185 120.047 146.878 120.011 146.576 119.947L146.697 120.602C146.697 120.602 153.848 120.905 156.784 123.87L156.805 120.146C156.535 120.224 156.254 120.261 155.973 120.255Z" fill="black"/>
<path id="Vector_7" d="M146.76 39.1993C145.65 41.2359 144.942 43.4646 144.675 45.7652L141.843 71.1274C141.378 77.3582 141.16 82.4484 141.676 88.0957L144.153 115.299" stroke="white" stroke-width="1.09427" stroke-miterlimit="10"/>
<path id="Vector_8" d="M152.589 33.5237C151.361 34.1299 150.656 34.9205 149.689 35.8636" stroke="white" stroke-width="0.547135" stroke-miterlimit="10"/>
<path id="Vector_9" d="M142.688 115.299L158.732 117.053" stroke="white" stroke-width="1.09427" stroke-miterlimit="10"/>
<path id="Vector_10" d="M162.358 118.098L179.292 118.574" stroke="white" stroke-width="1.09427" stroke-miterlimit="10"/>
<path id="Vector_11" d="M179.584 133.248L177.817 129.581L177.848 121.55C177.802 121.55 177.758 121.564 177.711 121.564H167.801L169.317 129.658L153.312 134.53C151.985 134.936 152.277 136.883 153.666 136.883L177.279 136.87C177.71 136.87 178.133 136.762 178.511 136.555C178.888 136.349 179.206 136.051 179.437 135.69C179.667 135.328 179.801 134.915 179.827 134.488C179.852 134.061 179.769 133.634 179.584 133.248Z" fill="white" stroke="black" stroke-width="0.272135" stroke-miterlimit="10"/>
<path id="Vector_12" d="M153.316 134.536L168.737 129.843C169.09 130.78 169.705 131.599 170.509 132.202C171.314 132.806 172.274 133.169 173.279 133.25C174.284 133.331 175.292 133.126 176.184 132.66C177.075 132.193 177.815 131.483 178.316 130.614L179.584 133.25C179.771 133.636 179.857 134.064 179.833 134.492C179.808 134.92 179.675 135.335 179.445 135.698C179.215 136.061 178.896 136.36 178.518 136.568C178.14 136.775 177.715 136.883 177.283 136.883L153.67 136.896C152.28 136.883 151.987 134.94 153.316 134.536Z" stroke="black" stroke-width="0.272135" stroke-miterlimit="10"/>
<path id="Vector_13" d="M177.711 121.564H167.8C174.382 122.049 177.834 125.14 177.834 125.14L177.847 121.545C177.802 121.554 177.758 121.564 177.711 121.564Z" fill="black"/>
<path id="Vector_14" d="M162.677 5.11209C162.019 4.28193 160.938 3.85462 160.316 2.99811C159.863 3.72097 159.135 4.22546 158.538 4.83725C158.254 5.12176 158.017 5.44892 157.835 5.80671V7.49149C157.835 8.22939 158.13 8.93706 158.656 9.45884C159.181 9.98061 159.894 10.2737 160.637 10.2737C161.38 10.2737 162.093 9.98061 162.618 9.45884C163.143 8.93706 163.439 8.22939 163.439 7.49149V6.955C163.342 6.28751 163.08 5.65425 162.677 5.11209Z" fill="white" stroke="black" stroke-width="0.272135" stroke-miterlimit="10"/>
<path id="Vector_15" d="M160.627 10.285C159.945 10.2844 159.288 10.0367 158.777 9.5885V11.8041H162.477V9.5885C161.966 10.0367 161.309 10.2844 160.627 10.285ZM137.843 22.2837L135.632 23.4L117.267 17.3762L117.1 11.8625C117.096 11.7222 117.049 11.5867 116.964 11.4743C116.879 11.362 116.762 11.2784 116.627 11.2351C116.493 11.1918 116.348 11.1909 116.214 11.2324C116.079 11.274 115.96 11.356 115.874 11.4672L114.272 13.5379C114.19 13.6435 114.078 13.7227 113.95 13.7656C113.823 13.8085 113.685 13.8131 113.555 13.7788L105.552 11.6629C105.398 11.6223 105.235 11.6361 105.091 11.7019C104.946 11.7677 104.829 11.8814 104.76 12.0234C104.691 12.1655 104.673 12.3271 104.711 12.4805C104.748 12.6338 104.839 12.7694 104.966 12.8639L114.484 19.9438C114.548 19.9905 114.619 20.0256 114.695 20.0473L128.63 26.9352L131.593 28.3997C132.852 29.0223 134.224 29.391 135.628 29.4843C137.032 29.5777 138.441 29.394 139.773 28.9438L144.58 27.3192L137.843 22.2837Z" fill="white" stroke="black" stroke-width="0.272135" stroke-miterlimit="10"/>
<path id="Vector_16" d="M166.011 12.7698H162.478V11.8041H158.777V12.7698H154.819C152.872 12.7713 150.961 13.2913 149.286 14.2758L137.343 21.911L145.439 27.963L150.484 26.3742C151.644 28.6492 152.363 31.1204 152.605 33.6593H173.916L175.179 23.0065C175.331 21.7213 175.208 20.4184 174.817 19.1839C174.426 17.9493 173.776 16.811 172.91 15.8439C172.044 14.8769 170.981 14.1029 169.792 13.573C168.603 13.0432 167.314 12.7694 166.011 12.7698Z" stroke="black" stroke-width="0.272135" stroke-miterlimit="10"/>
<path id="Vector_17" d="M160.627 10.285C159.946 10.2853 159.289 10.0382 158.779 9.59039C159.689 11.3034 162.479 10.797 162.479 10.797V9.59228C161.968 10.0401 161.309 10.2866 160.627 10.285Z" fill="black"/>
<path id="Vector_18" d="M178.672 14.7558C177.899 13.5624 176.687 12.7096 175.402 12.0903C174.545 11.6761 173.637 11.3467 172.862 10.797C172.123 10.2737 171.535 9.57157 170.953 8.87695C170.295 8.08821 169.626 7.27123 169.325 6.2886C169.18 5.80669 169.135 5.3022 169.008 4.81653C168.439 2.58772 166.299 1.05165 164.079 0.383383C162.477 -0.100404 160.667 -0.21335 159.19 0.560333C157.128 1.63521 156.423 3.62494 156.474 5.93846C156.534 8.33481 155.558 10.5486 154.578 12.7774C154.656 12.7774 154.732 12.7774 154.809 12.7774H158.767V9.59605C158.469 9.33494 158.23 9.01369 158.067 8.65371C157.903 8.29373 157.819 7.90329 157.82 7.50842V5.82363C158.001 5.46585 158.239 5.13869 158.523 4.85418C159.12 4.24239 159.85 3.73789 160.301 3.01503C160.923 3.87154 162.007 4.29886 162.661 5.12901C163.064 5.67209 163.324 6.30601 163.419 6.97381V7.5103C163.42 7.90518 163.336 8.29561 163.172 8.65559C163.009 9.01557 162.77 9.33682 162.472 9.59793V12.7793H166.005C166.17 12.7793 166.335 12.7793 166.498 12.7924L166.659 12.8056C166.767 12.8056 166.875 12.8207 166.981 12.832C167.046 12.832 167.108 12.847 167.171 12.8546C167.268 12.8658 167.361 12.879 167.459 12.8941C167.558 12.9091 167.592 12.9167 167.649 12.928L167.922 12.9807L168.111 13.024L168.375 13.0899L168.564 13.1444L168.822 13.2216L169.012 13.2856C169.095 13.3139 169.18 13.3459 169.264 13.3779L169.453 13.4475C169.539 13.4814 169.622 13.5191 169.707 13.5548L169.878 13.6301L170.147 13.7619L170.289 13.8334C170.424 13.9031 170.557 13.9765 170.686 14.0537L170.769 14.1045C170.871 14.1666 170.974 14.2287 171.072 14.2927C171.124 14.3247 171.171 14.3605 171.222 14.3944L171.446 14.5506L171.605 14.673C171.671 14.7238 171.74 14.7746 171.795 14.8273C171.85 14.8801 171.903 14.9158 171.956 14.961L172.145 15.121L172.303 15.266C172.36 15.3187 172.418 15.3733 172.473 15.4297C172.528 15.4862 172.578 15.5314 172.627 15.5841C172.676 15.6368 172.735 15.697 172.788 15.7535L172.936 15.9154C172.987 15.9738 173.036 16.034 173.086 16.0923C173.135 16.1507 173.18 16.2053 173.226 16.2636L173.366 16.4519C173.412 16.5121 173.455 16.5686 173.499 16.6288C173.542 16.6891 173.588 16.7587 173.633 16.8171C173.679 16.8754 173.715 16.9338 173.753 16.994C173.791 17.0543 173.853 17.154 173.903 17.235C173.952 17.3159 174.03 17.4515 174.092 17.5625C174.128 17.6265 174.164 17.6924 174.198 17.7508C174.232 17.8091 174.268 17.892 174.303 17.9616C174.337 18.0313 174.367 18.0915 174.397 18.1593C174.428 18.227 174.46 18.3042 174.492 18.3776L174.574 18.5659C174.604 18.6412 174.632 18.7165 174.659 18.7918C174.684 18.8577 174.708 18.9254 174.731 18.9932C174.754 19.061 174.782 19.1457 174.807 19.2247C174.831 19.3038 174.849 19.3603 174.867 19.428C174.886 19.4958 174.911 19.5862 174.932 19.6652C174.953 19.7443 174.966 19.8045 174.981 19.8742C174.996 19.9438 175.017 20.0342 175.034 20.1151C175.051 20.1961 175.061 20.2544 175.074 20.326C175.087 20.3975 175.103 20.4897 175.116 20.5707C175.129 20.6516 175.133 20.7119 175.142 20.7834C175.152 20.8549 175.163 20.9509 175.173 21.0356C175.182 21.1203 175.173 21.1768 175.188 21.2465C175.203 21.3161 175.201 21.4178 175.205 21.5044C175.48 21.4328 175.753 21.3538 176.02 21.2578C177.29 20.8022 178.526 20.0154 179.093 18.7974C179.717 17.5211 179.446 15.9474 178.672 14.7558ZM152.603 33.6555C152.452 32.49 152.217 31.3368 151.899 30.205C151.581 29.0755 151.166 27.9752 150.658 26.9164C150.408 26.3874 150.136 25.866 149.835 25.3634C149.689 25.1074 149.526 24.8645 149.371 24.6104C149.207 24.3617 149.06 24.1026 148.931 23.8348C148.671 23.3003 148.475 22.7374 148.347 22.1576C148.222 21.5794 148.168 20.9885 148.186 20.3975C148.219 21.5728 148.517 22.7259 149.056 23.7727C149.321 24.2904 149.672 24.7647 149.975 25.2787C150.279 25.7926 150.563 26.3065 150.821 26.8392C151.328 27.9088 151.733 29.023 152.032 30.1674C152.182 30.7321 152.299 31.3175 152.4 31.8992C152.5 32.4809 152.563 33.0682 152.603 33.6555Z" fill="black"/>
<path id="Vector_19" d="M157.886 80.02C157.389 77.0081 157.002 73.9962 156.642 70.9636C156.468 69.4577 156.297 67.9385 156.149 66.4213C156.001 64.9041 155.865 63.3887 155.757 61.8677C156.01 63.3736 156.234 64.8796 156.43 66.3855C156.635 67.8915 156.82 69.4069 156.998 70.9185C157.355 73.9492 157.677 76.978 157.886 80.02Z" fill="white"/>
<path id="Vector_20" d="M137.845 28.8551L135.633 29.9714C140.797 30.8185 144.478 33.9245 144.478 33.9245L144.533 33.8549L137.845 28.8551Z" fill="black"/>
<path id="Vector_21" d="M78.7581 116.748C104.988 116.748 126.252 95.6322 126.252 69.585C126.252 43.5377 104.988 22.4223 78.7581 22.4223C52.5276 22.4223 31.2637 43.5377 31.2637 69.585C31.2637 95.6322 52.5276 116.748 78.7581 116.748Z" stroke="black" stroke-width="0.366667" stroke-miterlimit="10"/>
<g id="Clip path group">
<mask id="mask0_21676_129497" style="mask-type:luminance" maskUnits="userSpaceOnUse" x="31" y="22" width="96" height="95">
<g id="b">
<path id="Vector_22" d="M78.7581 116.748C104.988 116.748 126.252 95.6322 126.252 69.585C126.252 43.5377 104.988 22.4223 78.7581 22.4223C52.5276 22.4223 31.2637 43.5377 31.2637 69.585C31.2637 95.6322 52.5276 116.748 78.7581 116.748Z" fill="white"/>
</g>
</mask>
<g mask="url(#mask0_21676_129497)">
<g id="Group">
<path id="Vector_23" d="M65.3537 21.6806L63.7197 22.6613L53.4489 20.1426L51.7883 21.1366L49.4016 20.5511L47.3581 21.7766L32.3424 18.0945L29.7927 19.6231L28.2875 19.2541L26.0639 20.5869L24.4658 20.1953L23.2734 24.988L27.9235 26.1288L29.6619 25.0859L34.0163 26.1533L32.0637 34.003L30.0619 35.204L29.1008 39.0649L30.2476 40.9493L29.4117 44.3075L30.6211 46.2954L30.1415 48.2268L32.8466 52.675L36.1015 53.4731L37.0399 55.0167L40.1886 55.7885L42.3137 59.2823L44.9031 59.9186L44.2681 62.4674L42.2663 63.6684L40.6587 70.1327L44.0975 75.7857L41.3203 86.9504L43.0075 89.7233L41.9118 94.132L44.8558 98.9717L49.1874 100.035L46.4747 95.572L47.9287 89.7289L50.685 90.4047L51.3333 87.8013L53.284 86.6323L53.7313 84.8271L60.3472 80.8608L61.1453 77.6493L63.2931 76.3617L64.3907 71.9436L63.0979 69.8184L59.098 68.8376L55.7806 63.0642L52.9276 62.2754L51.9304 60.5172L48.7173 59.7285L48.2054 57.8216L46.5145 57.4074L45.197 58.1981L42.6189 57.5656L43.3904 54.4558L41.362 53.9588L42.1658 50.7304L39.9516 52.0575L37.9232 51.5606L36.3953 49.0475L38.5564 47.7524L39.2142 45.1076L46.6946 46.9411L45.9647 49.8796L44.0141 51.0486L46.2548 51.5982L48.0727 50.5083L49.0168 46.7095L57.807 41.4387L60.8818 42.1935L64.1822 40.2132L67.0295 40.9116L68.0589 36.7721L65.8315 33.1089L70.0475 30.5808L66.9272 25.4511L67.2835 24.0242L72.8625 25.3928L72.5289 26.7349L75.5715 27.4804L74.6957 31.0081L72.9554 32.051L74.4208 34.4567L76.9989 35.0892L79.7135 33.4628L81.5087 33.9033L82.866 33.0882L84.9911 33.6096L84.2575 36.5575L87.2166 37.2841L90.4298 35.3565L87.0062 34.5151L87.81 31.2848L89.971 29.9878L91.6203 30.3925L94.3122 28.7793L65.3537 21.6806Z" stroke="black" stroke-width="0.366667" stroke-miterlimit="10"/>
<path id="Vector_24" d="M85.7987 53.8289L78.7771 58.0399L76.6104 66.7537L78.5003 69.8635L82.3296 70.8029L83.8462 69.8936L86.1816 70.4659L89.0176 75.1287L86.3333 85.9207L87.628 88.0479L86.7503 91.5812L88.1986 93.9625L87.3456 97.3923L91.6052 98.4352L96.6647 95.4007L97.3908 92.4792L100.871 90.3934L102.987 81.881L107.004 79.4715L107.311 78.2366L111.47 75.7424L111.974 73.715L110.217 70.8273L113.857 71.7196L116.577 70.0894L117.066 68.1241L112.145 66.9175L112.896 63.8943L116.346 64.7395L116.145 65.5471L120.203 66.541L122.992 71.1266L122.323 73.811L124.292 77.0488L123.489 80.2809L125.999 80.8965L127.447 75.0685L131.631 72.5592L135.674 79.208L134.247 84.9494L135.775 87.4625L135.299 89.3769L136.902 92.0142L140.658 92.9347L144.957 90.3558L148.51 91.2254L151.298 95.8111L154.017 94.179L155.89 97.2568L161.417 98.614L160.216 96.6356L157.958 96.0821L156.364 93.458L152.292 92.4603L151.228 90.7097L145.539 89.3148L146.815 84.1832L145.107 85.2073L144.544 87.4737L141.247 86.6662L140.696 88.8818L138.87 88.4338L137.456 86.1109L138.095 83.5413L136.929 81.625L137.45 79.5355L139.657 80.0758L139.255 81.689L141.386 82.2104L142.038 79.592L141.28 78.3439L149.693 73.299L150.407 70.4207L148.523 69.9595L149.276 66.9363L150.39 67.2093L152.644 70.9158L155.029 71.5012L157.463 70.0405L158.949 64.0712L154.889 57.398L151.935 56.6733L152.307 55.1748L157.177 56.3683L159.453 55.0035L158.803 57.622L160.752 60.8259L162.729 61.3097L161.45 59.207L161.944 57.2173L168.443 53.3187L165.338 52.5564L165.753 50.8829L151.145 47.3006L151.495 45.8888L144.798 44.2473L144.322 46.1617L141.685 45.5141L142.161 43.5997L136.379 42.1822L136.779 40.5709L128.764 38.6056L126.361 40.0475L125.961 41.6589L122.41 40.7873L121.263 38.903L119.438 38.4569L116.084 40.4673L108.831 38.6884L107.703 36.8342L101.084 35.2115L95.2487 38.711L94.7956 40.537L96.1757 42.8053L93.6525 44.3188L91.4213 43.771L92.2971 40.2452L89.355 39.5242L86.193 41.4198L85.3665 44.7442L87.0897 45.1678L87.6925 42.7507L89.8232 43.2722L89.046 46.3951L90.3066 48.4677L89.0555 49.2188L85.0367 48.2324L84.4698 50.5101L85.7987 53.8289Z" stroke="black" stroke-width="0.366667" stroke-miterlimit="10"/>
<path id="Vector_25" d="M88.502 52.1404L91.2715 50.4801L91.7 48.7557L97.6752 50.2222L97.1861 52.1855L99.6201 52.7823L100.748 54.6365L102.139 53.8007L103.484 54.1301L102.812 56.8258L105.755 57.5467L105.205 59.7643L95.4648 57.3754L94.1283 55.1767L94.5169 53.6162L88.502 52.1404Z" stroke="black" stroke-width="0.366667" stroke-miterlimit="10"/>
<path id="Vector_26" d="M104.088 50.3878L108.666 51.5116L110.259 54.1301L109.936 55.4233L104.983 54.2092L103.646 52.1724L104.088 50.3878Z" stroke="black" stroke-width="0.366667" stroke-miterlimit="10"/>
<path id="Vector_27" d="M112.433 52.434L115.735 53.2454L114.962 56.3514L116.469 56.7203L115.825 59.3106L112.001 58.3731L112.996 54.3729L112.01 54.132L112.433 52.434Z" stroke="black" stroke-width="0.366667" stroke-miterlimit="10"/>
<path id="Vector_28" d="M107.14 61.7578L104.67 61.1535L103.912 64.2012L105.304 64.5438L104.445 67.9962L105.95 68.3651L107.609 71.0909L108.21 68.6739L106.733 68.3124L107.504 65.2045L106.354 64.924L107.14 61.7578Z" stroke="black" stroke-width="0.366667" stroke-miterlimit="10"/>
<path id="Vector_29" d="M99.785 30.1215L106.97 31.8816L103.709 33.8393L100.993 33.1729L99.0078 29.9088L99.785 30.1215Z" stroke="black" stroke-width="0.366667" stroke-miterlimit="10"/>
<path id="Vector_30" d="M114.501 37.0714L115.978 37.4328L117.339 36.6177L119.434 37.1316L115.914 39.2437L113.561 38.6658L114.501 37.0714Z" stroke="black" stroke-width="0.366667" stroke-miterlimit="10"/>
<path id="Vector_31" d="M103.256 89.3336L106.628 87.3119L104.949 94.0623L101.529 96.1123L103.256 89.3336Z" stroke="black" stroke-width="0.366667" stroke-miterlimit="10"/>
</g>
</g>
</g>
<path id="Vector_32" d="M139.932 8.66425H108.738V40.3325H139.932V8.66425Z" fill="black"/>
<path id="Vector_33" d="M120.469 38.4343H111.681V40.7874H120.469V38.4343Z" fill="white"/>
<path id="Vector_34" d="M134.2 36.8795H125.412V39.2325H134.2V36.8795Z" fill="white"/>
<path id="Vector_35" d="M141.069 40.3325H153.92V8.66422H141.069V40.3325Z" fill="black"/>
<path id="Vector_36" d="M87.8537 60.4665C88.3845 60.4665 88.8148 60.0392 88.8148 59.5121C88.8148 58.985 88.3845 58.5577 87.8537 58.5577C87.3229 58.5577 86.8926 58.985 86.8926 59.5121C86.8926 60.0392 87.3229 60.4665 87.8537 60.4665Z" stroke="black" stroke-width="0.366667" stroke-miterlimit="10"/>
<path id="Vector_37" d="M90.2728 59.512C90.2728 60.8298 87.8539 64.7113 87.8539 64.7113C87.8539 64.7113 85.4351 60.8392 85.4351 59.512C85.4351 58.875 85.6899 58.264 86.1435 57.8136C86.5972 57.3631 87.2124 57.11 87.8539 57.11C88.4955 57.11 89.1107 57.3631 89.5644 57.8136C90.018 58.264 90.2728 58.875 90.2728 59.512Z" fill="#E67E22" stroke="black" stroke-width="0.366667" stroke-miterlimit="10"/>
<path id="Vector_38" d="M95.8595 80.874C96.3904 80.874 96.8207 80.4467 96.8207 79.9196C96.8207 79.3925 96.3904 78.9652 95.8595 78.9652C95.3287 78.9652 94.8984 79.3925 94.8984 79.9196C94.8984 80.4467 95.3287 80.874 95.8595 80.874Z" stroke="black" stroke-width="0.366667" stroke-miterlimit="10"/>
<path id="Vector_39" d="M98.278 79.9196C98.278 81.2467 95.8591 85.1207 95.8591 85.1207C95.8591 85.1207 93.4326 81.2467 93.4326 79.9196C93.4503 79.2939 93.7129 78.6997 94.1648 78.2634C94.6167 77.8271 95.2222 77.5829 95.8525 77.5829C96.4828 77.5829 97.0882 77.8271 97.5401 78.2634C97.992 78.6997 98.2547 79.2939 98.2723 79.9196H98.278Z" fill="#E67E22" stroke="black" stroke-width="0.366667" stroke-miterlimit="10"/>
<path id="Vector_40" d="M101.308 42.7207C101.839 42.7207 102.269 42.2934 102.269 41.7663C102.269 41.2392 101.839 40.8119 101.308 40.8119C100.777 40.8119 100.347 41.2392 100.347 41.7663C100.347 42.2934 100.777 42.7207 101.308 42.7207Z" stroke="black" stroke-width="0.366667" stroke-miterlimit="10"/>
<path id="Vector_41" d="M103.728 41.7662C103.728 43.0934 101.308 46.9674 101.308 46.9674C101.308 46.9674 98.8887 43.0934 98.8887 41.7662C98.9063 41.1406 99.169 40.5464 99.6209 40.1101C100.073 39.6737 100.678 39.4296 101.308 39.4296C101.939 39.4296 102.544 39.6737 102.996 40.1101C103.448 40.5464 103.711 41.1406 103.728 41.7662Z" stroke="black" stroke-width="0.366667" stroke-miterlimit="10"/>
<path id="Vector_42" d="M55.2956 76.4107C55.8264 76.4107 56.2567 75.9834 56.2567 75.4563C56.2567 74.9292 55.8264 74.5019 55.2956 74.5019C54.7648 74.5019 54.3345 74.9292 54.3345 75.4563C54.3345 75.9834 54.7648 76.4107 55.2956 76.4107Z" stroke="black" stroke-width="0.366667" stroke-miterlimit="10"/>
<path id="Vector_43" d="M57.7147 75.4563C57.7147 76.7834 55.2958 80.6575 55.2958 80.6575C55.2958 80.6575 52.875 76.7834 52.875 75.4563C52.8926 74.8306 53.1553 74.2365 53.6072 73.8002C54.0591 73.3638 54.6645 73.1197 55.2948 73.1197C55.9251 73.1197 56.5306 73.3638 56.9825 73.8002C57.4344 74.2365 57.697 74.8306 57.7147 75.4563Z" stroke="black" stroke-width="0.366667" stroke-miterlimit="10"/>
<path id="Vector_44" d="M49.1232 66.174C49.654 66.174 50.0843 65.7467 50.0843 65.2196C50.0843 64.6925 49.654 64.2652 49.1232 64.2652C48.5924 64.2652 48.1621 64.6925 48.1621 65.2196C48.1621 65.7467 48.5924 66.174 49.1232 66.174Z" stroke="black" stroke-width="0.366667" stroke-miterlimit="10"/>
<path id="Vector_45" d="M51.538 65.2196C51.538 66.5467 49.1191 70.4189 49.1191 70.4189C49.1191 70.4189 46.7002 66.5467 46.7002 65.2196C46.7002 64.5826 46.9551 63.9716 47.4087 63.5212C47.8623 63.0707 48.4776 62.8176 49.1191 62.8176C49.7606 62.8176 50.3759 63.0707 50.8295 63.5212C51.2831 63.9716 51.538 64.5826 51.538 65.2196Z" stroke="black" stroke-width="0.366667" stroke-miterlimit="10"/>
<path id="Vector_46" d="M56.2551 34.1104C56.7859 34.1104 57.2162 33.6831 57.2162 33.156C57.2162 32.6289 56.7859 32.2016 56.2551 32.2016C55.7243 32.2016 55.2939 32.6289 55.2939 33.156C55.2939 33.6831 55.7243 34.1104 56.2551 34.1104Z" stroke="black" stroke-width="0.366667" stroke-miterlimit="10"/>
<path id="Vector_47" d="M20.5935 110.165C20.2143 110.138 19.8352 110.109 19.4561 110.078M58.6758 33.156C58.6758 34.4737 56.255 38.3553 56.255 38.3553C56.255 38.3553 53.8361 34.4812 53.8361 33.156C53.8271 32.8347 53.883 32.515 54.0005 32.2156C54.118 31.9162 54.2948 31.6432 54.5204 31.4128C54.746 31.1825 55.0158 30.9993 55.3139 30.8743C55.612 30.7492 55.9323 30.6848 56.2559 30.6848C56.5795 30.6848 56.8999 30.7492 57.198 30.8743C57.4961 30.9993 57.7659 31.1825 57.9915 31.4128C58.2171 31.6432 58.3939 31.9162 58.5114 32.2156C58.6289 32.515 58.6848 32.8347 58.6758 33.156Z" stroke="black" stroke-width="0.366667" stroke-miterlimit="10"/>
<path id="Vector_48" d="M17.2437 109.852C8.49321 108.794 2.70759 106.038 1.31995 101.579C-1.08756 93.8609 10.2733 82.956 29.2699 73.0186" stroke="black" stroke-width="0.366667" stroke-miterlimit="10" stroke-dasharray="3.37 3.37"/>
<path id="Vector_49" d="M30.252 52.7941C30.5869 52.621 30.9243 52.449 31.2642 52.2784M139.396 46.904C139.207 47.2202 139.005 47.5384 138.789 47.8584" stroke="black" stroke-width="0.366667" stroke-miterlimit="10"/>
<path id="Vector_50" d="M137.447 69.3779C128.746 80.1172 106.016 92.7201 77.7764 101.398C64.2508 105.558 51.2578 108.269 39.9292 109.528" stroke="black" stroke-width="0.366667" stroke-miterlimit="10" stroke-dasharray="3.41 3.41"/>
<path id="Vector_51" d="M168.501 33.6555H165.758V35.7959L147.821 35.6904L144.157 31.0408C144.07 30.9306 143.951 30.8498 143.816 30.8094C143.681 30.769 143.537 30.771 143.403 30.8151C143.269 30.8592 143.152 30.9432 143.068 31.0557C142.985 31.1682 142.938 31.3037 142.934 31.4437L142.874 34.0471C142.87 34.1806 142.827 34.3102 142.75 34.4197C142.673 34.5291 142.565 34.6136 142.44 34.6626L134.739 37.6745C134.588 37.7297 134.46 37.8364 134.38 37.9757C134.3 38.1151 134.272 38.2781 134.301 38.4359C134.331 38.5937 134.415 38.7362 134.54 38.838C134.665 38.9398 134.822 38.9945 134.984 38.9923L146.079 39.092L165.756 42.0079L168.128 42.3599C168.616 42.4324 169.113 42.4084 169.592 42.2892C170.07 42.17 170.52 41.9581 170.916 41.6656C171.312 41.3731 171.645 41.0057 171.897 40.5847C172.15 40.1637 172.316 39.6974 172.386 39.2125L172.877 35.8373L173.195 33.648L168.501 33.6555Z" fill="white" stroke="black" stroke-width="0.272135" stroke-miterlimit="10"/>
<path id="Vector_52" d="M168.502 33.6555H165.753V35.8034C167.323 34.1638 173.186 33.6555 173.186 33.6555H168.502ZM164.53 25.7003C164.672 26.3573 164.794 27.018 164.909 27.6788C165.025 28.3395 165.131 28.9965 165.245 29.6647C165.359 30.333 165.448 30.9919 165.539 31.6564C165.63 32.3209 165.717 32.9872 165.783 33.6555C165.641 32.9985 165.52 32.3378 165.404 31.6771C165.289 31.0163 165.18 30.3594 165.071 29.693C164.961 29.0266 164.866 28.3659 164.777 27.6995C164.688 27.0331 164.599 26.3686 164.53 25.7003Z" fill="black"/>
</g>
</svg>
