<svg width="122" height="140" viewBox="0 0 122 140" fill="none" xmlns="http://www.w3.org/2000/svg">
<g id="Image">
<path id="Vector" d="M40.3184 98.0528V91.3348" stroke="black" stroke-width="0.43" stroke-miterlimit="10"/>
<path id="Vector_2" d="M40.3184 85.6556V5.8566H114.508V130.778H40.3184V101.037" fill="white"/>
<path id="Vector_3" d="M40.3184 85.6556V5.8566H114.508V130.778H40.3184V101.037" stroke="black" stroke-width="0.43" stroke-miterlimit="10"/>
<path id="Vector_4" d="M110.035 130.778V11.1192H44.207V85.471" stroke="black" stroke-width="0.43" stroke-miterlimit="10"/>
<path id="Vector_5" d="M103.027 71.1333C103.636 71.1333 104.23 70.9526 104.736 70.6143C105.243 70.2759 105.637 69.7949 105.87 69.2322C106.103 68.6695 106.164 68.0503 106.045 67.4529C105.926 66.8556 105.633 66.3068 105.203 65.8762C104.772 65.4455 104.224 65.1522 103.627 65.0334C103.03 64.9145 102.412 64.9755 101.849 65.2086C101.287 65.4417 100.806 65.8364 100.468 66.3428C100.13 66.8492 99.9497 67.4446 99.9497 68.0537C99.9511 68.87 100.276 69.6525 100.853 70.2297C101.429 70.807 102.211 71.1319 103.027 71.1333Z" fill="#E67E22" stroke="black" stroke-width="0.43" stroke-miterlimit="10"/>
<path id="Vector_6" d="M73.6094 37.6644H95.8453V18.2327H73.6094V37.6644Z" stroke="black" stroke-width="0.43" stroke-miterlimit="10"/>
<path id="Vector_7" d="M49.5239 37.6644H71.7335V18.2327H49.5239V37.6644Z" stroke="black" stroke-width="0.43" stroke-miterlimit="10"/>
<path id="Vector_8" d="M73.6094 121.877H95.8453V102.445H73.6094V121.877Z" stroke="black" stroke-width="0.43" stroke-miterlimit="10"/>
<path id="Vector_9" d="M49.5239 121.877H71.7335V102.445H49.5239V121.877Z" stroke="black" stroke-width="0.43" stroke-miterlimit="10"/>
<path id="Vector_10" d="M73.6094 95.179H95.8453V39.4942H73.6094V95.179Z" stroke="black" stroke-width="0.43" stroke-miterlimit="10"/>
<path id="Vector_11" d="M49.5239 95.179H71.7335V39.4942H49.5239V95.179Z" stroke="black" stroke-width="0.43" stroke-miterlimit="10"/>
<path id="Vector_12" d="M5.74238 113.646H37.252C37.9256 113.646 38.5716 113.378 39.0479 112.901C39.5242 112.425 39.7917 111.778 39.7917 111.104V108.678C39.7917 108.004 39.5242 107.358 39.0479 106.881C38.5716 106.404 37.9256 106.137 37.252 106.137H5.74238C5.0688 106.137 4.4228 106.404 3.94651 106.881C3.47022 107.358 3.20264 108.004 3.20264 108.678V111.104C3.20264 111.778 3.47022 112.425 3.94651 112.901C4.4228 113.378 5.0688 113.646 5.74238 113.646Z" fill="white" stroke="black" stroke-width="0.43" stroke-miterlimit="10"/>
<path id="Vector_13" d="M15.4796 130.425H27.4881C28.5769 130.398 29.6256 130.008 30.4683 129.318C31.311 128.627 31.8995 127.675 32.1407 126.612L35.4076 113.64H7.56006L10.8322 126.612C11.0698 127.676 11.6566 128.63 12.499 129.321C13.3413 130.012 14.3907 130.4 15.4796 130.425Z" fill="white" stroke="black" stroke-width="0.43" stroke-miterlimit="10"/>
<path id="Vector_14" d="M21.4707 106.137C21.4707 106.137 20.5644 85.9878 24.1527 74.4132" stroke="black" stroke-width="0.43" stroke-miterlimit="10"/>
<path id="Vector_15" d="M22.377 83.4303L19.3262 77.4927" stroke="black" stroke-width="0.43" stroke-miterlimit="10"/>
<path id="Vector_16" d="M22.1133 85.2496L27.0979 80.0977" stroke="black" stroke-width="0.43" stroke-miterlimit="10"/>
<path id="Vector_17" d="M21.5497 92.8746L18.3882 86.4255" stroke="black" stroke-width="0.43" stroke-miterlimit="10"/>
<path id="Vector_18" d="M21.4761 94.5198L26.819 87.7648" stroke="black" stroke-width="0.43" stroke-miterlimit="10"/>
<path id="Vector_19" d="M21.376 102.245L29.09 94.4987" stroke="black" stroke-width="0.43" stroke-miterlimit="10"/>
<path id="Vector_20" d="M14.7788 92.0994L21.3758 101.064" stroke="black" stroke-width="0.43" stroke-miterlimit="10"/>
<path id="Vector_21" d="M21.4443 105.182C23.8892 105.061 25.9706 102.287 27.3405 100.231C28.7706 98.1769 29.3382 95.6434 28.9213 93.1752C28.3575 90.3698 26.2867 87.9547 26.1919 85.1019C26.1286 82.9927 27.1614 81.0152 27.1192 78.927C27.1183 78.1616 26.9444 77.4064 26.6104 76.7178C26.2764 76.0292 25.7911 75.4253 25.1907 74.9511C24.5764 74.4934 23.8383 74.2319 23.073 74.2008C22.3078 74.1698 21.551 74.3706 20.9016 74.777C19.5053 75.7368 19.0732 77.614 19.0785 79.3067C19.0838 80.9994 19.421 82.7184 19.0785 84.3848C18.3777 88.076 14.7051 90.6124 13.9042 94.2772C13.2982 97.014 14.4574 99.8879 16.2173 102.06C17.6874 103.827 19.1786 105.361 21.4443 105.182Z" stroke="black" stroke-width="0.43" stroke-miterlimit="10"/>
<path id="Vector_22" d="M19.2366 83.4303C17.6137 76.3221 12.2391 71.1016 5.21533 69.082C7.30725 71.7087 9.16723 74.5122 10.7743 77.4611C12.3816 80.4194 13.2493 83.723 13.3035 87.0899C13.2455 92.11 10.8059 96.8242 10.3475 101.823C10.2664 103.295 10.4999 104.767 11.0325 106.142M28.289 91.1713C31.3767 89.0199 35.081 86.8737 38.7325 85.9984C42.384 85.123 46.3728 85.2443 49.7978 86.8632C48.4172 86.7999 47.1105 87.4432 45.888 88.0971C41.3987 90.4911 37.0727 93.2753 33.4633 96.8558C30.726 99.5061 28.5239 102.659 26.977 106.142M40.4766 100.995C37.1201 101.523 33.0155 103.969 30.402 106.131" stroke="black" stroke-width="0.43" stroke-miterlimit="10"/>
<path id="Vector_23" d="M40.3396 98.0528C40.9382 98.1253 41.5327 98.2291 42.1205 98.3639C45.2267 99.0214 48.0654 100.593 50.2719 102.878C47.3323 101.11 43.8614 100.443 40.4766 100.995M32.2725 98.0528C34.828 97.9157 37.705 97.7312 40.3343 98.0528" stroke="black" stroke-width="0.43" stroke-miterlimit="10"/>
<path id="Vector_24" d="M44.207 88.983V99.002" stroke="black" stroke-width="0.43" stroke-miterlimit="10"/>
<path id="Vector_25" d="M44.207 100.995V130.778" stroke="black" stroke-width="0.43" stroke-miterlimit="10"/>
<path id="Vector_26" d="M77.3291 16.5401C76.7723 16.0675 76.2672 15.5372 75.8221 14.9581H75.7589C75.232 15.6858 74.2941 16.0602 73.7355 16.7721C73.385 17.252 73.1604 17.8122 73.0822 18.4015V18.9288C73.0724 19.253 73.1279 19.5758 73.2455 19.878C73.4255 20.3331 73.738 20.7235 74.1425 20.9986C74.547 21.2738 75.0248 21.4209 75.5139 21.4209C76.0029 21.4209 76.4807 21.2738 76.8852 20.9986C77.2897 20.7235 77.6022 20.3331 77.7823 19.878C77.8998 19.5758 77.9554 19.253 77.9456 18.9288V17.3838C77.7856 17.0719 77.5776 16.7871 77.3291 16.5401Z" fill="white" stroke="black" stroke-width="0.43" stroke-miterlimit="10"/>
<path id="Vector_27" d="M75.5058 21.3334C74.9151 21.3343 74.3441 21.1207 73.8988 20.7322V22.6675H77.1129V20.727C76.6689 21.1182 76.0975 21.3338 75.5058 21.3334ZM120.589 136.816L109.898 125.79L108.022 118.65C107.832 118.714 107.632 118.748 107.432 118.75H99.0063L102.221 125.848L102.173 125.885C101.868 126.103 101.624 126.395 101.462 126.734C101.301 127.071 101.229 127.444 101.251 127.818C101.273 128.191 101.389 128.553 101.588 128.869C101.789 129.186 102.066 129.447 102.394 129.629L119.071 138.82C119.34 138.98 119.658 139.036 119.966 138.977C120.273 138.918 120.548 138.748 120.738 138.499C120.928 138.25 121.02 137.94 120.996 137.628C120.973 137.316 120.835 137.023 120.61 136.805L120.589 136.816ZM82.3241 128.969L80.7908 125.753V118.724H80.6696H72.0967L73.414 125.816L59.4876 130.082C59.2478 130.157 59.0424 130.314 58.9085 130.527C58.7746 130.739 58.7209 130.993 58.7571 131.242C58.7933 131.49 58.9171 131.718 59.1061 131.883C59.295 132.049 59.5368 132.141 59.7879 132.144H80.2955C80.6639 132.14 81.0256 132.045 81.3494 131.87C81.6776 131.688 81.9549 131.427 82.1555 131.11C82.3547 130.793 82.4706 130.43 82.4928 130.056C82.5149 129.682 82.4424 129.308 82.282 128.969H82.3241Z" fill="white" stroke="black" stroke-width="0.43" stroke-miterlimit="10"/>
<path id="Vector_28" d="M86.2765 28.6894C86.0074 27.2317 85.2354 25.9147 84.0953 24.9684C82.9551 24.022 81.5191 23.5063 80.0378 23.5112H77.0976V22.6622H73.8834V23.5112H71.3595C70.8268 23.5092 70.2958 23.573 69.7787 23.701L52.2061 28.3572L54.7458 35.1544L65.7162 33.6937L65.7952 33.8308C67.336 36.2064 68.278 38.9206 68.5405 41.7406H80.1326L80.3276 42.2679L88.8584 42.5684L86.2765 28.6894Z" stroke="black" stroke-width="0.43" stroke-miterlimit="10"/>
<path id="Vector_29" d="M86.2765 28.6894C86.0074 27.2317 85.2354 25.9147 84.0953 24.9684C82.9551 24.022 81.5191 23.5063 80.0378 23.5112H77.0976V22.6622H73.8834V23.5112H71.3595C70.8268 23.5092 70.2958 23.573 69.7787 23.701L52.2061 28.3572L54.7458 35.1544L65.7162 33.6937L65.7952 33.8308C67.336 36.2064 68.278 38.9206 68.5405 41.7406H80.1326L80.3276 42.2679L88.8584 42.5684L86.2765 28.6894Z" stroke="black" stroke-width="0.43" stroke-miterlimit="10"/>
<path id="Vector_30" d="M75.506 21.3334C74.9236 21.3323 74.3615 21.1185 73.9253 20.7322C74.7157 22.2298 77.1395 21.7869 77.1395 21.7869V20.7322C76.6884 21.1285 76.1062 21.3428 75.506 21.3334Z" fill="black"/>
<path id="Vector_31" d="M59.4876 130.082L72.9029 125.974C73.2065 126.797 73.7386 127.516 74.4367 128.047C75.1349 128.577 75.9699 128.897 76.8435 128.968C77.7171 129.04 78.593 128.86 79.3679 128.45C80.1428 128.04 80.7846 127.417 81.2177 126.655L82.3189 128.959C82.4824 129.295 82.5551 129.667 82.5297 130.04C82.5088 130.414 82.3927 130.777 82.1925 131.095C81.9924 131.41 81.7172 131.671 81.3916 131.854C81.0683 132.031 80.7063 132.125 80.3377 132.128H59.8301C59.5837 132.124 59.3465 132.034 59.1596 131.873C58.9728 131.712 58.8482 131.491 58.8075 131.248C58.7667 131.005 58.8125 130.755 58.9368 130.542C59.061 130.329 59.2559 130.166 59.4876 130.082ZM102.073 125.974C102.394 126.834 102.952 127.585 103.681 128.141C104.411 128.697 105.282 129.035 106.196 129.117C107.109 129.198 108.027 129.02 108.843 128.602C109.659 128.184 110.341 127.544 110.809 126.755L120.61 136.805C120.826 137.023 120.956 137.311 120.977 137.617C120.997 137.923 120.906 138.227 120.72 138.471C120.535 138.715 120.267 138.884 119.967 138.946C119.667 139.008 119.354 138.96 119.087 138.809L102.41 129.618C102.09 129.443 101.818 129.191 101.62 128.885C101.319 128.424 101.201 127.868 101.289 127.325C101.377 126.781 101.664 126.29 102.094 125.948L102.073 125.974Z" stroke="black" stroke-width="0.43" stroke-miterlimit="10"/>
<path id="Vector_32" d="M109.218 116.345L90.4495 51.6541C90.059 49.7134 89.2497 47.8814 88.0784 46.286C87.8212 46.8778 87.4035 47.3855 86.8726 47.7518C86.3418 48.1181 85.719 48.3282 85.0749 48.3584L67.0333 49.181L60.4205 52.5242C60.3406 53.1256 60.3001 53.7315 60.2993 54.3382C60.2993 56.0994 67.3653 115.702 67.3653 115.702C67.4622 116.537 67.8626 117.308 68.4902 117.867C69.1178 118.426 69.9289 118.735 70.7692 118.734H80.6963C80.8814 118.734 81.0647 118.697 81.2355 118.626C81.4063 118.554 81.5612 118.45 81.6911 118.318C81.8211 118.186 81.9235 118.029 81.9924 117.857C82.0613 117.685 82.0954 117.501 82.0926 117.316L81.5341 85.2917L92.7837 115.655C93.1189 116.556 93.7214 117.334 94.5106 117.884C95.2998 118.433 96.2379 118.728 97.1993 118.729H107.437C107.726 118.73 108.012 118.663 108.271 118.534C108.53 118.405 108.755 118.217 108.928 117.985C109.1 117.752 109.217 117.484 109.271 117.2C109.32 116.915 109.302 116.622 109.218 116.345Z" fill="black"/>
<path id="Vector_33" d="M107.021 116.345L88.2524 51.6541C87.8624 49.7123 87.0512 47.8798 85.876 46.286" stroke="white" stroke-width="1.19" stroke-miterlimit="10"/>
<path id="Vector_34" d="M107.437 118.729H99.0065L100.25 121.482C101.52 119.931 105.951 119.008 107.495 118.729H107.437ZM80.7015 118.729H72.0969C77.8087 119.156 80.8069 121.893 80.8069 121.893V118.729H80.7015ZM80.3274 42.3259C79.7425 41.0392 79.2261 39.7315 78.7466 38.4132C78.2671 37.0949 77.7665 35.7766 77.3503 34.4267C77.9351 35.7081 78.4515 37.0211 78.9574 38.3341C79.4632 39.6471 79.9058 40.976 80.3221 42.3259H80.3274ZM68.4454 41.7406C68.3355 40.7257 68.1326 39.7231 67.8394 38.7454C67.5516 37.7705 67.1995 36.8157 66.7856 35.8873C66.5748 35.4233 66.3483 34.9698 66.1006 34.5269C65.9794 34.3054 65.8424 34.0945 65.7054 33.8783C65.5673 33.6573 65.4424 33.4284 65.3313 33.1928C64.8843 32.2563 64.6761 31.2237 64.7253 30.187C64.7768 31.2049 65.0425 32.2004 65.5052 33.1084C65.6212 33.3316 65.7497 33.5481 65.8898 33.757C66.0268 33.9732 66.1691 34.1947 66.2903 34.4161C66.5377 34.8655 66.7593 35.3285 66.9542 35.803C67.3744 36.7411 67.7146 37.713 67.9712 38.7085C68.2444 39.6978 68.4035 40.7151 68.4454 41.7406Z" fill="black"/>
<path id="Vector_35" d="M81.708 85.7611C81.023 84.0947 80.3573 82.4179 79.711 80.7304C79.0628 79.0483 78.4305 77.3609 77.7982 75.6682C77.1659 73.9755 76.5547 72.2828 75.9488 70.5849C75.3428 68.8869 74.7579 67.1784 74.1836 65.4646C74.8861 67.1344 75.5518 68.8131 76.1806 70.5005C76.8287 72.1826 77.461 73.87 78.0933 75.5575C78.7256 77.2449 79.3368 78.9481 79.9428 80.6461C80.5488 82.344 81.1389 84.0473 81.708 85.7611Z" fill="white"/>
<path id="Vector_36" d="M80.3219 42.3259L80.1269 41.7986H68.656C66.8937 42.5371 65.3053 43.6364 63.9928 45.0257L66.7538 46.2966L81.7182 43.4438L81.3283 42.3892L80.3219 42.3259ZM52.2056 28.3572C52.174 29.3855 52.6324 33.1031 53.8285 34.0312L54.308 33.9784L52.2056 28.3572Z" fill="black"/>
<path id="Vector_37" d="M52.2269 28.4205L51.5841 28.584L33.2369 26.7331L22.8092 25.0193C22.6729 24.9986 22.5336 25.0246 22.414 25.0931C22.295 25.1619 22.2037 25.2701 22.1558 25.399C22.1108 25.5288 22.1108 25.6699 22.1558 25.7997C22.1988 25.9309 22.2865 26.0429 22.4034 26.1161L28.5368 29.8812C28.6369 29.9397 28.7162 30.0282 28.7633 30.1343C28.8172 30.24 28.8339 30.3607 28.8108 30.477L28.4683 32.734C28.4529 32.8549 28.473 32.9776 28.5262 33.0873C28.5802 33.1986 28.669 33.2893 28.7791 33.3457C28.8863 33.4037 29.009 33.4267 29.1299 33.4116C29.2508 33.3965 29.364 33.3439 29.4536 33.2613L33.3528 29.7546L50.0033 33.8782C51.0882 34.1475 52.2124 34.2207 53.3229 34.0944L54.3293 33.9784L52.2269 28.4205ZM87.973 42.5948L81.3127 42.3575L81.7027 43.4122L66.7382 46.2702L61.7272 43.9658C61.6155 43.9136 61.4904 43.897 61.3689 43.9184C61.2483 43.9429 61.1381 44.0036 61.0528 44.0924C60.9671 44.1785 60.9101 44.289 60.8895 44.4088C60.8723 44.5309 60.8906 44.6554 60.9421 44.7674L61.9433 46.8186C61.9922 46.9239 62.0105 47.0409 61.996 47.1561C61.981 47.2734 61.9314 47.3835 61.8537 47.4725L57.1115 52.8881C57.0218 52.9928 56.9699 53.1247 56.9639 53.2624C56.958 53.4019 57.0029 53.5387 57.0904 53.6474C57.1742 53.7575 57.2942 53.8344 57.4293 53.8643C57.5644 53.8943 57.7056 53.8753 57.8281 53.8109L67.0122 49.1705L85.0539 48.3478C85.5494 48.3252 86.0343 48.196 86.4755 47.9688C86.9167 47.7417 87.3037 47.4221 87.6103 47.0317C87.9168 46.6414 88.1357 46.1894 88.2519 45.7068C88.3681 45.2241 88.379 44.722 88.2838 44.2348L87.973 42.5948Z" fill="white" stroke="black" stroke-width="0.43" stroke-miterlimit="10"/>
<path id="Vector_38" d="M81.3286 42.3575C81.3286 42.3575 85.1856 43.8393 88.226 43.834L87.9888 42.5895L81.3286 42.3575Z" fill="black"/>
<path id="Vector_39" d="M68.9247 41.7406C64.3247 43.7655 61.5479 48.6379 61.5479 54.3224C61.5479 54.6388 68.6138 115.686 68.6138 115.686" stroke="white" stroke-width="1.19" stroke-miterlimit="10"/>
<path id="Vector_40" d="M67.3916 115.697L82.0926 115.997" stroke="white" stroke-width="1.19" stroke-miterlimit="10"/>
<path id="Vector_41" d="M93.105 116.345H109.218" stroke="white" stroke-width="1.19" stroke-miterlimit="10"/>
<path id="Vector_42" d="M67.3284 28.4205H40.2344V56.1522H67.3284V28.4205Z" fill="black"/>
<path id="Vector_43" d="M50.4251 31.479H42.79V33.5355H50.4251V31.479Z" fill="white"/>
<path id="Vector_44" d="M65.0413 51.1532H57.4062V53.2045H65.0413V51.1532Z" fill="white"/>
<path id="Vector_45" d="M68.0503 56.1469H79.2157V28.4205H68.0503V56.1469Z" fill="black"/>
<path id="Vector_46" d="M68.05 28.4205H67.3281V56.1522H68.05V28.4205Z" fill="white"/>
<path id="Vector_47" d="M89.3641 25.2566C88.6471 24.2355 87.6651 23.4296 86.524 22.9259C85.7598 22.6095 85.0231 22.2303 84.3215 21.7921C83.701 21.3016 83.1466 20.7327 82.6723 20.0995C82.0554 19.4473 81.5753 18.6781 81.2601 17.8373C81.1337 17.4154 81.0968 16.9725 80.9861 16.5453C80.4592 14.5943 78.6308 13.2549 76.7076 12.6696C75.3261 12.167 73.8038 12.2199 72.4606 12.8172C70.6691 13.7611 70.0579 15.5012 70.1053 17.5261C70.1633 19.8411 69.12 21.9609 68.2031 24.1176L69.826 23.6905C70.3432 23.5628 70.8741 23.499 71.4068 23.5007H73.9307V20.727C73.6716 20.4966 73.4634 20.2146 73.3195 19.8991C73.1765 19.5845 73.1028 19.2428 73.1034 18.8972V18.4015C73.1733 17.8187 73.383 17.2615 73.7147 16.7774C74.2785 16.0602 75.1953 15.6858 75.738 14.9634H75.8013C76.2554 15.5364 76.7616 16.066 77.3135 16.5453C77.5617 16.7947 77.7696 17.0811 77.93 17.3943V18.9288C77.9295 19.2743 77.8559 19.6158 77.714 19.9307C77.5731 20.2466 77.3644 20.5274 77.1027 20.7533V23.5165H80.0377C81.5163 23.5153 82.9485 24.0327 84.0854 24.9787C85.2223 25.9248 85.992 27.2397 86.2606 28.6947L86.6979 31.0782L87.0667 30.9569C88.2064 30.6184 89.1665 29.8434 89.7382 28.8002C89.9764 28.2252 90.0669 27.5998 90.0016 26.9808C89.9362 26.3618 89.7171 25.7691 89.3641 25.2566Z" fill="black"/>
<path id="Vector_48" d="M16.2808 26.3112H21.023" stroke="black" stroke-width="0.429688" stroke-miterlimit="10"/>
<path id="Vector_49" d="M22.0765 24.7293H14.6997V26.8386H22.0765V24.7293Z" fill="#E67E22" stroke="black" stroke-width="0.429688" stroke-miterlimit="10"/>
<path id="Vector_50" d="M17.9667 34.9593C27.3372 34.9593 34.9334 27.3572 34.9334 17.9796C34.9334 8.60204 27.3372 1 17.9667 1C8.59626 1 1 8.60204 1 17.9796C1 27.3572 8.59626 34.9593 17.9667 34.9593Z" stroke="black" stroke-width="0.43" stroke-miterlimit="10"/>
<path id="Vector_51" d="M15.7923 16.6321C16.1853 17.1245 16.678 17.4903 17.2238 17.6949C17.2208 17.3335 17.1569 16.9766 17.0356 16.6449C16.9144 16.3132 16.7383 16.0135 16.5178 15.7633C16.0365 15.2153 15.333 16.0571 15.7923 16.6321Z" stroke="black" stroke-width="0.429688" stroke-miterlimit="10"/>
<path id="Vector_52" d="M17.2236 24.55V17.6949" stroke="black" stroke-width="0.429688" stroke-miterlimit="10"/>
<path id="Vector_53" d="M15.6431 22.968V24.0227" stroke="black" stroke-width="0.429688" stroke-miterlimit="10"/>
<path id="Vector_54" d="M16.1699 17.2238C16.6874 17.5235 17.2763 17.6858 17.8781 17.6945C18.4799 17.7032 19.0735 17.5581 19.5998 17.2735M17.9479 10.3124C21.0401 10.3124 23.5468 12.7566 23.5468 15.7716M19.0036 17.5281C19.5536 17.3515 20.049 17.0425 20.4441 16.6297C20.8994 16.1544 20.1942 15.4663 19.7161 15.9197C19.4948 16.129 19.3179 16.3787 19.1957 16.6547C19.0734 16.9307 19.0081 17.2275 19.0036 17.5281Z" stroke="black" stroke-width="0.429688" stroke-miterlimit="10"/>
<path id="Vector_55" d="M19.3315 24.55V17.6949" stroke="black" stroke-width="0.429688" stroke-miterlimit="10"/>
<path id="Vector_56" d="M24.0737 15.8127C24.0737 12.4837 21.3608 9.78513 18.0143 9.78513C16.813 9.78503 15.6389 10.1401 14.641 10.8052C13.6431 11.4704 12.8664 12.4155 12.4097 13.5207C11.9529 14.6259 11.8367 15.8411 12.0758 17.0121C12.3149 18.1831 12.8985 19.257 13.7525 20.0974C14.5046 20.8373 14.9167 21.8539 14.9167 22.9061V24.1609C14.9166 24.212 14.9267 24.2627 14.9464 24.3099C14.9661 24.3572 14.995 24.4001 15.0313 24.4363C15.0677 24.4724 15.1109 24.5011 15.1585 24.5206C15.206 24.5401 15.2569 24.5501 15.3084 24.55H20.7214C20.8252 24.55 20.9247 24.509 20.998 24.436C21.0714 24.3631 21.1126 24.2641 21.1126 24.1609V22.9058C21.1133 22.3802 21.2181 21.8599 21.4212 21.3747C21.6242 20.8895 21.9215 20.4489 22.2959 20.0781C22.8604 19.5189 23.3081 18.8541 23.6132 18.1221C23.9183 17.39 24.0748 16.6052 24.0737 15.8127Z" stroke="black" stroke-width="0.429688" stroke-miterlimit="10"/>
</g>
</svg>
