<svg width="202" height="138" viewBox="0 0 202 138" fill="none" xmlns="http://www.w3.org/2000/svg">
<g id="Image">
<path id="Vector" d="M138.528 128.756L140.259 123.702H130.536L129.606 128.748L116.05 129.534C115.786 129.55 115.535 129.67 115.344 129.873C115.152 130.075 115.033 130.348 115.007 130.639C114.981 130.931 115.051 131.224 115.203 131.464C115.356 131.704 115.58 131.875 115.837 131.947L136.753 137.788C137.135 137.893 137.534 137.89 137.915 137.78C138.296 137.67 138.645 137.457 138.932 137.159C139.216 136.856 139.428 136.481 139.55 136.066C139.67 135.65 139.692 135.206 139.614 134.777L138.528 128.756ZM198.629 117.673L196.67 116.682L194.739 113.058C194.441 113.46 194.044 113.757 193.597 113.915L185.293 116.839L189.367 121.43L180.985 135.736C180.854 135.981 180.805 136.269 180.847 136.55C180.888 136.831 181.017 137.087 181.211 137.274C181.404 137.461 181.651 137.566 181.908 137.573C182.165 137.579 182.416 137.485 182.617 137.308L199.154 121.972C199.61 121.549 199.903 120.949 199.974 120.295C200.045 119.641 199.889 118.982 199.537 118.451C199.296 118.113 198.984 117.846 198.629 117.673ZM170.828 17.7256C170.665 15.9187 169.901 14.2435 168.685 13.0249C167.469 11.8063 165.888 11.1312 164.249 11.1306H161.609V10.2895H158.223V11.1306H155.924C154.148 11.1323 152.429 11.8216 151.064 13.0791C149.699 14.3367 148.775 16.0832 148.45 18.0164L145.717 34.3428L154.831 30.9785L160.246 33.8004L159.444 35.3725C159.267 35.7057 159.024 35.9905 158.734 36.2058C158.451 36.4254 158.13 36.5755 157.79 36.646L144.887 39.3028L143.908 45.2297H173.298L170.828 17.7256Z" fill="white" stroke="black" stroke-width="0.43" stroke-miterlimit="10"/>
<path id="Vector_2" d="M154.071 30.5697L160.232 13.8975C160.532 13.0781 161.046 12.3768 161.709 11.8838C162.372 11.3907 163.152 11.1284 163.951 11.1306C164.9 11.1308 165.832 11.408 166.654 11.9342C167.475 12.4604 168.157 13.2171 168.63 14.128C169.104 15.0389 169.352 16.0719 169.351 17.123C169.349 18.1741 169.097 19.2061 168.621 20.1152L161.211 34.2642L154.071 30.5697ZM154.838 30.9706L137.804 37.2591L132.254 35.4118C132.131 35.3685 132 35.3685 131.877 35.4118C131.758 35.4612 131.652 35.5453 131.572 35.6555C131.501 35.7715 131.463 35.9084 131.463 36.0485C131.463 36.1887 131.501 36.3256 131.572 36.4416L132.907 38.6347C132.979 38.7502 133.017 38.8873 133.017 39.0277C133.017 39.1681 132.979 39.3052 132.907 39.4207L128.769 46.4245C128.689 46.5592 128.657 46.7211 128.677 46.8804C128.691 47.0394 128.756 47.1874 128.861 47.297C128.962 47.4127 129.099 47.4827 129.244 47.4935C129.387 47.5062 129.53 47.4647 129.649 47.3756L138.535 40.5605L157.861 36.5516C158.185 36.49 158.494 36.3563 158.77 36.1586C159.056 35.9387 159.298 35.6549 159.479 35.3254L160.253 33.8004L154.838 30.9706ZM162.155 2.99487C160.716 3.28824 159.249 3.37017 157.79 3.23855C157.806 4.00818 157.698 4.77476 157.471 5.50239V5.91114C157.505 6.63688 157.79 7.32029 158.266 7.82048C158.742 8.32067 159.373 8.5995 160.029 8.5995C160.686 8.5995 161.317 8.32067 161.793 7.82048C162.269 7.32029 162.554 6.63688 162.588 5.91114V5.84826C162.37 4.91265 162.225 3.958 162.155 2.99487Z" fill="white" stroke="black" stroke-width="0.43" stroke-miterlimit="10"/>
<path id="Vector_3" d="M162.666 2.81409C163.781 -0.746743 157.144 -0.888233 156.747 2.16166C156.627 3.37003 156.877 4.58787 157.457 5.62031V5.5024C157.679 4.77632 157.787 4.01315 157.776 3.24642C159.232 3.37808 160.697 3.29615 162.134 3.00274C162.204 3.96587 162.349 4.92052 162.567 5.85613C162.669 5.77412 162.766 5.68485 162.858 5.58887C163.411 5.03077 163.113 2.93986 162.666 2.81409Z" fill="black"/>
<path id="Vector_4" d="M160.026 8.74095C159.358 8.74829 158.714 8.46623 158.23 7.9549V10.3131H161.609V8.13569C161.158 8.52915 160.6 8.74243 160.026 8.74095Z" fill="white" stroke="black" stroke-width="0.43" stroke-miterlimit="10"/>
<path id="Vector_5" d="M160.026 8.74096C159.406 8.73954 158.808 8.48803 158.344 8.03351H158.223C159.054 9.77855 161.602 9.25976 161.602 9.25976V8.12783C161.154 8.52354 160.599 8.73966 160.026 8.74096Z" fill="black"/>
<path id="Vector_6" d="M198.628 117.673L197.983 117.35C197.097 119.512 195.669 121.345 193.868 122.632C192.067 123.918 189.969 124.603 187.826 124.606H187.521L180.984 135.752C180.86 135.998 180.816 136.284 180.86 136.562C180.904 136.84 181.033 137.093 181.226 137.277C181.419 137.462 181.663 137.568 181.917 137.576C182.172 137.585 182.422 137.496 182.624 137.324L199.161 121.972C199.616 121.549 199.91 120.949 199.981 120.295C200.052 119.641 199.896 118.982 199.544 118.451C199.301 118.112 198.987 117.845 198.628 117.673ZM138.698 129.699C138.049 130.58 137.219 131.275 136.276 131.725C135.334 132.175 134.307 132.367 133.284 132.284C132.26 132.202 131.27 131.847 130.396 131.251C129.522 130.655 128.791 129.834 128.265 128.858L116.057 129.534C115.793 129.55 115.542 129.67 115.351 129.873C115.159 130.075 115.04 130.348 115.014 130.639C114.988 130.931 115.058 131.224 115.21 131.464C115.362 131.704 115.587 131.875 115.844 131.947L136.76 137.788C137.142 137.898 137.543 137.898 137.924 137.788C138.303 137.676 138.652 137.463 138.939 137.167C139.225 136.87 139.44 136.499 139.564 136.087C139.688 135.676 139.717 135.236 139.649 134.809L138.698 129.699Z" stroke="black" stroke-width="0.43" stroke-miterlimit="10"/>
<path id="Vector_7" d="M194.917 109.836L175.306 76.4833V76.4361L174.384 61.6661L174.093 56.9498L173.589 48.8613L173.34 45.1747H143.907L128.016 120.636C127.942 120.996 127.942 121.369 128.016 121.729C128.088 122.091 128.231 122.432 128.435 122.727C128.642 123.016 128.905 123.251 129.205 123.413C129.505 123.575 129.833 123.66 130.167 123.662H143.183C144.148 123.659 145.084 123.308 145.853 122.662C146.621 122.017 147.179 121.113 147.442 120.086L158.088 78.6606C158.98 82.7184 160.415 86.6054 162.347 90.1921L175.477 114.56C176.211 115.931 177.341 116.987 178.684 117.558C180.028 118.129 181.506 118.18 182.879 117.704L193.632 113.915C194.176 113.725 194.643 113.33 194.951 112.799C195.26 112.268 195.391 111.634 195.321 111.007C195.273 110.586 195.134 110.184 194.917 109.836Z" fill="black"/>
<path id="Vector_8" d="M158.067 78.7235C157.769 77.0807 157.492 75.4457 157.237 73.7949C156.981 72.1442 156.74 70.5092 156.527 68.8585C156.314 67.2078 156.066 65.5649 155.86 63.8985C155.654 62.232 155.455 60.5971 155.292 58.9385C155.581 60.5735 155.855 62.2137 156.115 63.8592C156.378 65.502 156.612 67.1528 156.825 68.7956C157.038 70.4385 157.279 72.0971 157.485 73.7556C157.691 75.4142 157.897 77.0335 158.067 78.7235Z" fill="white"/>
<path id="Vector_9" d="M130.536 123.694H140.26L139.245 126.665C139.245 126.665 137.222 124.983 130.536 123.694Z" fill="black"/>
<path id="Vector_10" d="M161.197 34.2485L165.505 26.0263" stroke="black" stroke-width="0.43" stroke-miterlimit="10"/>
<path id="Vector_11" d="M194.753 113.058C194.455 113.46 194.058 113.757 193.611 113.915L185.307 116.839C192.88 114.741 196.435 116.218 196.435 116.218L194.753 113.058Z" fill="black"/>
<path id="Vector_12" d="M161.197 29.4614C161.309 29.4614 161.419 29.4245 161.512 29.3554C161.606 29.2863 161.678 29.1881 161.721 29.0732C161.764 28.9583 161.775 28.8318 161.754 28.7098C161.732 28.5879 161.678 28.4758 161.598 28.3879C161.519 28.2999 161.418 28.24 161.307 28.2158C161.197 28.1915 161.083 28.2039 160.979 28.2515C160.876 28.2991 160.787 28.3797 160.725 28.4832C160.662 28.5866 160.629 28.7081 160.629 28.8325C160.629 28.9993 160.689 29.1592 160.795 29.2772C160.902 29.3951 161.046 29.4614 161.197 29.4614Z" stroke="black" stroke-width="0.43" stroke-miterlimit="10"/>
<path id="Vector_13" d="M167.301 35.9542C167.413 35.9542 167.523 35.9173 167.616 35.8482C167.71 35.7791 167.782 35.6809 167.825 35.566C167.868 35.4511 167.879 35.3246 167.858 35.2027C167.836 35.0807 167.782 34.9686 167.702 34.8807C167.623 34.7927 167.522 34.7329 167.411 34.7086C167.301 34.6843 167.187 34.6968 167.083 34.7444C166.98 34.792 166.891 34.8726 166.829 34.976C166.766 35.0794 166.733 35.201 166.733 35.3253C166.733 35.4921 166.793 35.6521 166.899 35.77C167.006 35.8879 167.15 35.9542 167.301 35.9542Z" stroke="black" stroke-width="0.43" stroke-miterlimit="10"/>
<path id="Vector_14" d="M162.041 16.5701C162.154 16.5701 162.264 16.5332 162.357 16.4641C162.45 16.395 162.523 16.2968 162.566 16.1819C162.609 16.067 162.62 15.9405 162.598 15.8185C162.576 15.6966 162.522 15.5845 162.443 15.4966C162.364 15.4086 162.262 15.3487 162.152 15.3245C162.042 15.3002 161.928 15.3127 161.824 15.3602C161.72 15.4078 161.632 15.4884 161.569 15.5919C161.507 15.6953 161.474 15.8169 161.474 15.9412C161.474 16.108 161.533 16.268 161.64 16.3859C161.746 16.5038 161.891 16.5701 162.041 16.5701Z" stroke="black" stroke-width="0.43" stroke-miterlimit="10"/>
<path id="Vector_15" d="M151.303 26.0263C151.415 26.0263 151.525 25.9894 151.619 25.9203C151.712 25.8512 151.785 25.753 151.828 25.6381C151.871 25.5232 151.882 25.3968 151.86 25.2748C151.838 25.1528 151.784 25.0407 151.705 24.9528C151.625 24.8649 151.524 24.805 151.414 24.7807C151.304 24.7564 151.19 24.7689 151.086 24.8165C150.982 24.8641 150.893 24.9447 150.831 25.0481C150.769 25.1515 150.735 25.2731 150.735 25.3975C150.735 25.5642 150.795 25.7242 150.902 25.8421C151.008 25.9601 151.153 26.0263 151.303 26.0263Z" stroke="black" stroke-width="0.43" stroke-miterlimit="10"/>
<path id="Vector_16" d="M168.777 45.7327C168.889 45.7327 168.999 45.6958 169.092 45.6267C169.186 45.5577 169.258 45.4594 169.301 45.3445C169.344 45.2296 169.356 45.1032 169.334 44.9812C169.312 44.8592 169.258 44.7472 169.178 44.6592C169.099 44.5713 168.998 44.5114 168.888 44.4871C168.777 44.4629 168.663 44.4753 168.559 44.5229C168.456 44.5705 168.367 44.6511 168.305 44.7545C168.242 44.8579 168.209 44.9795 168.209 45.1039C168.209 45.2707 168.269 45.4306 168.375 45.5485C168.482 45.6665 168.626 45.7327 168.777 45.7327Z" stroke="black" stroke-width="0.43" stroke-miterlimit="10"/>
<path id="Vector_17" d="M148.634 17.6627L148.421 18.8889C148.468 18.8972 148.516 18.8972 148.563 18.8889C148.7 18.8762 148.828 18.8098 148.924 18.7017C149.021 18.5936 149.079 18.4509 149.089 18.2994C149.093 18.149 149.051 18.0015 148.968 17.8823C148.885 17.7632 148.767 17.6799 148.634 17.647V17.6627ZM171.516 25.4132C171.381 25.4441 171.262 25.5314 171.183 25.6569C171.099 25.7806 171.061 25.9353 171.076 26.0892C171.092 26.2414 171.155 26.383 171.254 26.4901C171.359 26.5898 171.492 26.6479 171.63 26.6552L171.516 25.4132ZM150.182 38.1552C150.211 38.3044 150.286 38.4378 150.394 38.5325C150.508 38.6222 150.646 38.6641 150.785 38.6504C150.921 38.6408 151.048 38.5732 151.14 38.4617C151.237 38.3522 151.296 38.2068 151.303 38.053C151.307 38.0112 151.307 37.969 151.303 37.9272L150.182 38.1552Z" stroke="black" stroke-width="0.43" stroke-miterlimit="10"/>
<path id="Vector_18" d="M125.781 42.8165L121.913 47.6979C121.826 47.8035 121.712 47.8775 121.586 47.9101C121.464 47.9535 121.332 47.9535 121.21 47.9101C121.088 47.8609 120.984 47.77 120.912 47.6507C120.842 47.5291 120.807 47.3863 120.813 47.242L120.891 44.5694C120.89 44.4343 120.859 44.3017 120.798 44.1842C120.734 44.0679 120.64 43.975 120.529 43.917L113.616 40.3718C113.481 40.3073 113.372 40.1897 113.311 40.0417C113.247 39.8976 113.232 39.7332 113.268 39.5779C113.304 39.4214 113.386 39.2829 113.502 39.1849C113.619 39.0892 113.762 39.0394 113.907 39.0434L124.83 39.6251C124.965 39.6335 125.094 39.6885 125.199 39.7823C125.302 39.8725 125.376 39.9963 125.412 40.136L125.916 42.1955C125.941 42.3091 125.941 42.4277 125.916 42.5414C125.89 42.643 125.844 42.7369 125.781 42.8165Z" fill="white" stroke="black" stroke-width="0.43" stroke-miterlimit="10"/>
<path id="Vector_19" d="M138.499 40.5919L129.606 47.407C129.489 47.5005 129.345 47.5425 129.201 47.525C129.057 47.5142 128.922 47.4473 128.818 47.3363C128.712 47.2248 128.646 47.0736 128.634 46.9118C128.616 46.7541 128.652 46.5947 128.733 46.4638L132.871 39.4522C132.94 39.3354 132.977 39.1988 132.977 39.0591C132.977 38.9194 132.94 38.7828 132.871 38.6661L131.529 36.4651C131.456 36.3476 131.419 36.2071 131.423 36.0643C131.423 35.9221 131.465 35.7839 131.543 35.6712C131.62 35.5553 131.726 35.4677 131.849 35.4197C131.972 35.3822 132.102 35.3822 132.225 35.4197L137.775 37.2669L143.552 35.1288V16.9552H114.857V49.4508H143.559V39.5229L138.499 40.5919Z" fill="black"/>
<path id="Vector_20" d="M154.838 30.9706L159.437 35.3254L160.26 33.7532L154.838 30.9706Z" fill="black"/>
<path id="Vector_21" d="M154.838 30.9706L155.846 31.4894L154.064 30.5697L155.959 25.4446V16.9552H144.135V34.9323L154.838 30.9706Z" fill="black"/>
<path id="Vector_22" d="M144.135 39.4129V49.4508H155.959V36.9446L144.135 39.4129Z" fill="black"/>
<path id="Vector_23" d="M125.624 20.5318H117.569V22.945H125.624V20.5318Z" fill="white"/>
<path id="Vector_24" d="M141.132 43.5947H133.048V46.0079H141.132V43.5947Z" fill="white"/>
<path id="Vector_25" d="M144.134 16.9552H143.56V49.4508H144.134V16.9552Z" fill="white"/>
<path id="Vector_26" d="M63.6497 132.631C63.5796 133.005 63.5992 133.393 63.7064 133.755C63.8104 134.12 63.996 134.45 64.2458 134.714C64.4971 134.974 64.8015 135.163 65.133 135.265C65.4684 135.359 65.8197 135.359 66.155 135.265L84.5019 130.139C84.7244 130.073 84.9184 129.921 85.0492 129.711C85.18 129.501 85.2392 129.246 85.2162 128.992C85.1932 128.738 85.0895 128.502 84.9236 128.324C84.7576 128.147 84.5403 128.041 84.3103 128.025L72.3937 127.341L71.5775 122.916H63.0606L64.5865 127.38L63.6497 132.631ZM11.1287 118.372C10.8177 118.836 10.679 119.413 10.7411 119.986C10.8031 120.56 11.0612 121.085 11.4622 121.454L25.9623 134.911C26.1421 135.059 26.3625 135.133 26.5862 135.122C26.8099 135.11 27.0232 135.014 27.1901 134.848C27.357 134.683 27.4672 134.459 27.5021 134.214C27.537 133.969 27.4945 133.718 27.3818 133.504L20.0075 120.927L23.5563 116.902L16.324 114.363C15.9254 114.217 15.5748 113.944 15.3161 113.577L13.627 116.761L11.9165 117.625C11.5908 117.792 11.3096 118.049 11.1003 118.372H11.1287ZM34.103 54.0885H59.8809L59.0221 48.8927L47.6662 46.5345C47.3672 46.4708 47.0841 46.3368 46.8358 46.1415C46.5903 45.9479 46.3847 45.6987 46.2326 45.4105L45.5228 44.0742L50.3065 41.661L58.2982 44.6087L55.8922 30.2553C55.6115 28.5601 54.8029 27.0276 53.6073 25.9245C52.4116 24.8215 50.9045 24.2177 49.3483 24.2184H47.3256V23.4874H44.3588V24.2184H42.038C40.6008 24.2203 39.2155 24.8132 38.1507 25.8822C37.0858 26.9511 36.4173 28.4199 36.2749 30.0038L34.103 54.0885Z" fill="white" stroke="black" stroke-width="0.43" stroke-miterlimit="10"/>
<path id="Vector_27" d="M44.7135 44.4986L38.2123 32.0947C37.7978 31.2981 37.5798 30.3949 37.5801 29.4755C37.5803 28.5562 37.7988 27.6531 38.2137 26.8568C38.6285 26.0605 39.2252 25.399 39.9437 24.9387C40.6622 24.4784 41.4774 24.2354 42.3075 24.2341C43.006 24.2358 43.6881 24.4684 44.2664 24.9023C44.8492 25.3279 45.302 25.939 45.5652 26.6552L50.9664 41.2679L44.7135 44.4986ZM45.5439 44.082L46.2537 45.4183C46.4022 45.7094 46.6085 45.9594 46.8569 46.1494C47.101 46.346 47.3827 46.4778 47.6802 46.5345L64.6289 50.0561L72.4361 56.0301C72.5429 56.109 72.6698 56.1476 72.7981 56.1401C72.9237 56.1257 73.0412 56.0648 73.1316 55.9672C73.2243 55.8697 73.2823 55.7386 73.2949 55.5977C73.3098 55.4597 73.2796 55.3202 73.2097 55.2047L69.5545 49.0578C69.4988 48.9558 69.4693 48.8389 69.4693 48.7198C69.4693 48.6006 69.4988 48.4837 69.5545 48.3818L70.7327 46.4559C70.795 46.351 70.8272 46.2277 70.825 46.1022C70.822 45.9776 70.7849 45.8569 70.7185 45.7563C70.6484 45.6571 70.5551 45.581 70.4488 45.5362C70.3405 45.4966 70.2235 45.4966 70.1152 45.5362L65.2535 47.1083L50.2921 41.661L45.5439 44.082ZM43.4999 19.5885V19.6514C43.498 19.9782 43.5547 20.3021 43.6667 20.6044C43.7788 20.9067 43.9439 21.1814 44.1526 21.4125C44.3612 21.6435 44.6092 21.8264 44.8821 21.9505C45.1551 22.0746 45.4476 22.1374 45.7426 22.1353C46.3375 22.1353 46.9079 21.8736 47.3285 21.4078C47.7491 20.942 47.9854 20.3102 47.9854 19.6514V19.2898C47.7884 18.6526 47.6923 17.9824 47.7015 17.309C46.4261 17.4262 45.1424 17.3575 43.8831 17.1046C43.8196 17.9432 43.6913 18.7742 43.4999 19.5885Z" fill="white" stroke="black" stroke-width="0.43" stroke-miterlimit="10"/>
<path id="Vector_28" d="M43.2446 19.3527L43.493 19.5885C43.6853 18.769 43.8135 17.9327 43.8762 17.0889C45.1379 17.3416 46.424 17.4103 47.7018 17.2932C47.6901 17.9663 47.7838 18.6364 47.9786 19.2741V19.392C48.4936 18.4861 48.7186 17.4146 48.6173 16.35C48.2696 13.6774 42.4497 13.8031 43.4291 16.9238C43.0387 17.0338 42.7761 18.8653 43.2446 19.3527Z" fill="black"/>
<path id="Vector_29" d="M44.3589 21.593V23.4873H47.3185V21.4043C47.1113 21.6324 46.8654 21.8131 46.595 21.9358C46.3247 22.0585 46.0351 22.121 45.7429 22.1196C45.2415 22.1192 44.7546 21.9339 44.3589 21.593Z" fill="white" stroke="black" stroke-width="0.43" stroke-miterlimit="10"/>
<path id="Vector_30" d="M44.3589 21.5851V22.5834C44.3589 22.5834 46.5946 23.0314 47.3256 21.5065H47.2192C46.8274 21.8818 46.3302 22.0948 45.8124 22.1091C45.2946 22.1235 44.7884 21.9383 44.3802 21.5851H44.3589Z" fill="black"/>
<path id="Vector_31" d="M11.1003 118.372C10.7894 118.836 10.6507 119.413 10.7127 119.986C10.7748 120.56 11.0329 121.085 11.4339 121.454L25.9411 134.927C26.1213 135.078 26.3434 135.154 26.5692 135.144C26.795 135.133 27.0105 135.036 27.1785 134.868C27.3465 134.701 27.4566 134.474 27.4898 134.226C27.523 133.979 27.4773 133.726 27.3606 133.512L21.6116 123.741H21.3632C19.4826 123.742 17.6417 123.142 16.0616 122.013C14.4815 120.883 13.2295 119.272 12.4559 117.374L11.8953 117.657C11.5806 117.818 11.3073 118.064 11.1003 118.372ZM63.6213 132.631C63.5548 133.005 63.5743 133.392 63.6781 133.755C63.7804 134.119 63.9642 134.448 64.2124 134.712C64.4606 134.976 64.7652 135.166 65.0976 135.265C65.4306 135.359 65.7796 135.359 66.1125 135.265L84.4594 130.139C84.6819 130.073 84.8759 129.921 85.0067 129.711C85.1375 129.501 85.1967 129.246 85.1737 128.992C85.1507 128.738 85.047 128.502 84.881 128.324C84.7151 128.147 84.4978 128.041 84.2678 128.025L73.5648 127.435C73.0997 128.285 72.4574 128.999 71.6918 129.518C70.9262 130.036 70.0595 130.344 69.1644 130.415C68.2693 130.49 67.3711 130.325 66.5455 129.935C65.72 129.543 64.9902 128.939 64.4162 128.174L63.6213 132.631Z" stroke="black" stroke-width="0.43" stroke-miterlimit="10"/>
<path id="Vector_32" d="M14.8054 111.809C14.7679 112.175 14.8067 112.546 14.9189 112.893C15.0318 113.244 15.218 113.56 15.4623 113.815C15.7065 114.071 16.0019 114.258 16.3242 114.363L25.7496 117.68C26.9493 118.105 28.2434 118.067 29.4212 117.573C30.599 117.079 31.5913 116.158 32.2366 114.961L43.7629 93.58C45.4554 90.4354 46.7137 87.0281 47.4961 83.4713L56.7796 119.803C57.0095 120.706 57.4991 121.502 58.1741 122.069C58.849 122.636 59.6726 122.945 60.5199 122.947H71.9397C72.2326 122.945 72.5213 122.87 72.7843 122.727C73.0617 122.592 73.3053 122.384 73.494 122.122C73.6744 121.862 73.7973 121.558 73.8528 121.236C73.9082 120.914 73.8947 120.582 73.8134 120.267L59.8811 54.0885H34.1033L33.8903 57.3271L33.4432 64.4016L33.1877 68.5284L32.3786 81.4826L15.1389 110.787C14.9614 111.096 14.8475 111.445 14.8054 111.809Z" fill="black"/>
<path id="Vector_33" d="M47.9646 79.1401C48.1491 77.6833 48.3431 76.2343 48.5466 74.7932C48.7595 73.3469 48.9653 71.9005 49.1924 70.4621C49.4196 69.0236 49.6609 67.5772 49.9022 66.1466C49.7531 67.6008 49.5828 69.0472 49.4054 70.5014C49.2279 71.9556 49.0292 73.4019 48.8234 74.8482C48.6176 76.2946 48.4046 77.7409 48.1775 79.1794C47.9504 80.6179 47.7091 82.0642 47.4678 83.4949C47.6168 82.0407 47.7872 80.5943 47.9646 79.1401Z" fill="white"/>
<path id="Vector_34" d="M63.9692 125.549L63.082 122.939H71.5989C65.7436 124.079 63.9692 125.549 63.9692 125.549Z" fill="black"/>
<path id="Vector_35" d="M40.938 37.2827L44.7138 44.4986" stroke="black" stroke-width="0.43" stroke-miterlimit="10"/>
<path id="Vector_36" d="M13.8115 116.383C13.8115 116.383 16.9344 115.094 23.5705 116.926L16.324 114.363C15.928 114.216 15.58 113.942 15.3233 113.577L13.8115 116.383Z" fill="black"/>
<path id="Vector_37" d="M45.2178 39.743C45.2178 39.6342 45.1886 39.5278 45.134 39.4373C45.0794 39.3468 45.0018 39.2763 44.9111 39.2346C44.8203 39.193 44.7204 39.1821 44.624 39.2033C44.5276 39.2246 44.4391 39.277 44.3696 39.3539C44.3002 39.4309 44.2528 39.5289 44.2337 39.6356C44.2145 39.7424 44.2243 39.853 44.2619 39.9536C44.2995 40.0541 44.3632 40.14 44.4449 40.2005C44.5266 40.261 44.6227 40.2932 44.7209 40.2932C44.8527 40.2932 44.9791 40.2353 45.0722 40.1321C45.1654 40.0289 45.2178 39.8889 45.2178 39.743Z" stroke="black" stroke-width="0.43" stroke-miterlimit="10"/>
<path id="Vector_38" d="M39.8589 45.4419C39.8589 45.3331 39.8297 45.2267 39.7751 45.1362C39.7206 45.0457 39.643 44.9752 39.5522 44.9335C39.4614 44.8919 39.3615 44.881 39.2651 44.9022C39.1688 44.9235 39.0802 44.9759 39.0108 45.0528C38.9413 45.1298 38.894 45.2278 38.8748 45.3346C38.8556 45.4413 38.8655 45.5519 38.9031 45.6525C38.9407 45.753 39.0043 45.8389 39.086 45.8994C39.1677 45.9599 39.2638 45.9921 39.3621 45.9921C39.4938 45.9921 39.6202 45.9342 39.7134 45.831C39.8065 45.7278 39.8589 45.5878 39.8589 45.4419Z" stroke="black" stroke-width="0.43" stroke-miterlimit="10"/>
<path id="Vector_39" d="M44.4722 28.4395C44.4722 28.3307 44.443 28.2243 44.3884 28.1338C44.3338 28.0433 44.2562 27.9728 44.1655 27.9312C44.0747 27.8895 43.9748 27.8786 43.8784 27.8999C43.782 27.9211 43.6935 27.9735 43.624 28.0504C43.5546 28.1274 43.5072 28.2254 43.4881 28.3322C43.4689 28.4389 43.4787 28.5495 43.5163 28.6501C43.5539 28.7506 43.6176 28.8366 43.6993 28.897C43.781 28.9575 43.8771 28.9898 43.9753 28.9898C44.1071 28.9898 44.2335 28.9318 44.3266 28.8286C44.4198 28.7254 44.4722 28.5855 44.4722 28.4395Z" stroke="black" stroke-width="0.43" stroke-miterlimit="10"/>
<path id="Vector_40" d="M53.8911 36.7324C53.8911 36.6236 53.862 36.5172 53.8074 36.4267C53.7528 36.3362 53.6752 36.2657 53.5844 36.224C53.4936 36.1824 53.3937 36.1715 53.2974 36.1927C53.201 36.214 53.1125 36.2664 53.043 36.3433C52.9735 36.4203 52.9262 36.5183 52.907 36.6251C52.8878 36.7318 52.8977 36.8424 52.9353 36.943C52.9729 37.0435 53.0366 37.1294 53.1183 37.1899C53.2 37.2504 53.296 37.2826 53.3943 37.2826C53.4595 37.2826 53.5241 37.2684 53.5844 37.2408C53.6447 37.2131 53.6995 37.1726 53.7456 37.1215C53.7917 37.0704 53.8283 37.0097 53.8533 36.943C53.8783 36.8762 53.8911 36.8047 53.8911 36.7324Z" stroke="black" stroke-width="0.43" stroke-miterlimit="10"/>
<path id="Vector_41" d="M38.5674 54.0178C38.5674 53.9089 38.5382 53.8026 38.4836 53.7121C38.429 53.6216 38.3515 53.5511 38.2607 53.5094C38.1699 53.4678 38.07 53.4569 37.9736 53.4781C37.8773 53.4993 37.7887 53.5517 37.7192 53.6287C37.6498 53.7056 37.6024 53.8037 37.5833 53.9104C37.5641 54.0172 37.5739 54.1278 37.6116 54.2283C37.6492 54.3289 37.7128 54.4148 37.7945 54.4753C37.8762 54.5357 37.9723 54.568 38.0706 54.568C38.2023 54.568 38.3287 54.51 38.4219 54.4068C38.515 54.3037 38.5674 54.1637 38.5674 54.0178Z" stroke="black" stroke-width="0.43" stroke-miterlimit="10"/>
<path id="Vector_42" d="M55.7363 29.9566C55.6178 29.9823 55.5119 30.055 55.4382 30.161C55.3665 30.2671 55.3313 30.3981 55.3389 30.5304C55.3457 30.6635 55.3964 30.7891 55.4815 30.8834C55.5666 30.9776 55.6801 31.0338 55.8002 31.0414H55.928L55.7363 29.9645V29.9566ZM35.5654 37.8172C35.6896 37.8153 35.8086 37.762 35.899 37.6678C35.9861 37.5764 36.0414 37.454 36.0552 37.3219C36.0678 37.1878 36.0349 37.0533 35.9629 36.9446C35.8924 36.8334 35.7854 36.7572 35.6648 36.7324L35.5654 37.8172ZM53.4084 47.7215C53.4046 47.758 53.4046 47.795 53.4084 47.8315C53.4093 47.9645 53.4578 48.0917 53.5432 48.1852C53.6249 48.2848 53.7376 48.3466 53.8586 48.3583C53.9796 48.3699 54.1002 48.3306 54.1962 48.2481C54.2945 48.1679 54.3628 48.0504 54.3878 47.918L53.4084 47.7215Z" stroke="black" stroke-width="0.43" stroke-miterlimit="10"/>
<path id="Vector_43" d="M75.6518 51.7382C75.6304 51.64 75.6304 51.5377 75.6518 51.4395L76.0989 49.6316C76.1264 49.5066 76.1915 49.3957 76.2835 49.3171C76.3757 49.2387 76.4868 49.1922 76.6028 49.1835L86.1844 48.6726C86.3125 48.6658 86.4385 48.7105 86.5392 48.7984C86.6439 48.8782 86.7174 48.999 86.7451 49.1364C86.7837 49.2719 86.7837 49.4174 86.7451 49.553C86.6893 49.6805 86.5934 49.7812 86.4754 49.8359L80.4142 52.9802C80.318 53.0297 80.2367 53.1089 80.1799 53.2081C80.124 53.3128 80.0945 53.4323 80.0948 53.554L80.1657 55.9122C80.1697 56.0368 80.14 56.1599 80.0806 56.2659C80.017 56.3707 79.9251 56.4505 79.818 56.4938C79.7132 56.5431 79.5971 56.5545 79.4862 56.5262C79.3753 56.498 79.2753 56.4316 79.2005 56.3366L75.8079 52.0526C75.7276 51.9683 75.6731 51.8584 75.6518 51.7382Z" fill="white" stroke="black" stroke-width="0.43" stroke-miterlimit="10"/>
<path id="Vector_44" d="M60.1865 49.1207V57.8223H85.354V29.3278H60.1936V45.2768L65.2967 47.1634L70.1584 45.5441C70.2673 45.5085 70.3831 45.5085 70.492 45.5441C70.5978 45.586 70.6911 45.6594 70.7617 45.7563C70.8283 45.8598 70.8653 45.983 70.8682 46.1101C70.8703 46.2331 70.8381 46.3539 70.7759 46.4559L69.5551 48.3896C69.4961 48.4874 69.464 48.6021 69.4629 48.7198C69.463 48.84 69.4951 48.9576 69.5551 49.0578L73.1819 55.2047C73.2542 55.3222 73.2869 55.4641 73.2742 55.6056C73.2567 55.7426 73.1994 55.8695 73.1109 55.9672C73.0191 56.0696 72.8976 56.1329 72.7677 56.1459C72.6379 56.1588 72.5081 56.1206 72.4012 56.0379L64.594 50.0561L60.1865 49.1207Z" fill="black"/>
<path id="Vector_45" d="M45.5439 44.0742L46.2537 45.4419L50.2921 41.661L45.5439 44.0742Z" fill="black"/>
<path id="Vector_46" d="M59.6823 45.096V29.3278H49.313V36.7717L50.9738 41.268L49.4124 42.054L50.2924 41.661L59.6823 45.096Z" fill="black"/>
<path id="Vector_47" d="M49.313 46.8725V57.8223H59.6823V49.0185L49.313 46.8725Z" fill="black"/>
<path id="Vector_48" d="M75.8926 34.5865H82.99V32.4641H75.8926V34.5865Z" fill="white"/>
<path id="Vector_49" d="M62.3154 54.8038H69.4129V52.6658H62.3154V54.8038Z" fill="white"/>
<path id="Vector_50" d="M59.6826 57.8223H60.1865V29.3278H59.6826V57.8223Z" fill="white"/>
<path id="Vector_51" d="M0 70.5014H49.4194H202" stroke="black" stroke-width="0.43" stroke-miterlimit="10"/>
<path id="Vector_52" d="M31.2075 134.832L49.4195 70.5014" stroke="black" stroke-width="0.43" stroke-miterlimit="10"/>
<path id="Vector_53" d="M148.251 69.5424L171.658 131.955" stroke="black" stroke-width="0.43" stroke-miterlimit="10"/>
<path id="Vector_54" d="M123.985 67.2157H78.292V70.3206H123.985V67.2157Z" fill="#E67E22" stroke="black" stroke-width="0.43" stroke-linecap="round" stroke-linejoin="round"/>
<path id="Vector_55" d="M116.561 64.8418H84.0337V67.0506H116.561V64.8418Z" fill="#E67E22" stroke="black" stroke-width="0.43" stroke-linecap="round" stroke-linejoin="round"/>
<path id="Vector_56" d="M114.439 62.7744H88.1787V64.5588H114.439V62.7744Z" fill="#E67E22" stroke="black" stroke-width="0.43" stroke-linecap="round" stroke-linejoin="round"/>
</g>
</svg>
