<svg width="152" height="139" viewBox="0 0 152 139" fill="none" xmlns="http://www.w3.org/2000/svg">
<g id="Image">
<g id="Image_2">
<path id="Vector" d="M71.0468 128.358L56.4759 123.736L57.8601 116.049H48.8325C48.7897 116.049 48.7501 116.039 48.7089 116.036L48.7359 123.656L47.1315 127.137C46.9621 127.504 46.8852 127.909 46.908 128.314C46.9307 128.72 47.0524 129.113 47.2616 129.456C47.4709 129.8 47.7609 130.083 48.1045 130.28C48.4482 130.476 48.8343 130.579 49.2268 130.579L70.7269 130.591C71.9971 130.591 72.2569 128.744 71.0468 128.358ZM20.804 116.049C20.5933 116.048 20.3842 116.012 20.1847 115.942L18.2176 123.698L7.00909 135.647C5.94161 136.785 7.26567 138.581 8.60715 137.816L26.0939 127.853C26.4375 127.657 26.7276 127.374 26.9371 127.031C27.1466 126.687 27.2686 126.295 27.2919 125.889C27.3151 125.484 27.2388 125.079 27.07 124.712C26.9013 124.345 26.6455 124.029 26.3267 123.792L26.2744 123.752L29.6479 116.049H20.804Z" fill="white" stroke="black" stroke-width="0.429688" stroke-miterlimit="10"/>
<path id="Vector_2" d="M151 130.538L135.045 49.3036" stroke="black" stroke-width="0.429688" stroke-miterlimit="10"/>
<path id="Vector_3" d="M116.156 65.288L119.262 49.3036" stroke="black" stroke-width="0.429688" stroke-miterlimit="10"/>
<path id="Vector_4" d="M111.242 90.5824L115.436 68.9956" stroke="black" stroke-width="0.429688" stroke-miterlimit="10"/>
<path id="Vector_5" d="M15.5664 56.3845L16.957 49.3036" stroke="black" stroke-width="0.429688" stroke-miterlimit="10"/>
<path id="Vector_6" d="M1 130.538L15.0895 58.8054" stroke="black" stroke-width="0.429688" stroke-miterlimit="10"/>
<path id="Vector_7" d="M27.752 49.3036H148.946" stroke="black" stroke-width="0.429688" stroke-miterlimit="10"/>
<path id="Vector_8" d="M3.16992 49.3036H23.4631" stroke="black" stroke-width="0.429688" stroke-miterlimit="10"/>
<path id="Vector_9" d="M112.107 48.1284H88.6206V49.3037H112.107V48.1284Z" fill="black"/>
<path id="Vector_10" d="M118.426 43.2686H84.1686C83.9521 43.2685 83.7383 43.2187 83.5426 43.1229C83.3469 43.0271 83.1741 42.8875 83.0367 42.7143C82.8993 42.5411 82.8008 42.3386 82.7481 42.1212C82.6954 41.9039 82.69 41.6772 82.7321 41.4574L86.8136 20.2591C86.8798 19.9153 87.0592 19.6059 87.3211 19.3835C87.583 19.1612 87.9113 19.0397 88.2501 19.0396H122.508C122.724 19.0396 122.938 19.0894 123.134 19.1852C123.329 19.281 123.502 19.4206 123.639 19.5939C123.776 19.7671 123.875 19.9697 123.927 20.1871C123.98 20.4044 123.985 20.6311 123.943 20.8508L119.861 42.0491C119.795 42.3929 119.616 42.7024 119.355 42.9249C119.093 43.1473 118.765 43.2688 118.426 43.2686Z" fill="white" stroke="black" stroke-width="0.429688" stroke-miterlimit="10"/>
<path id="Vector_11" d="M98.4085 43.1669L96.7344 49.0889" stroke="black" stroke-width="0.429688" stroke-miterlimit="10"/>
<path id="Vector_12" d="M105.328 43.1669L103.655 49.0889" stroke="black" stroke-width="0.429688" stroke-miterlimit="10"/>
<path id="Vector_13" d="M118.148 104.58H85.0809C83.6097 104.58 82.417 105.814 82.417 107.337V109.969C82.417 111.492 83.6097 112.726 85.0809 112.726H118.148C119.619 112.726 120.811 111.492 120.811 109.969V107.337C120.811 105.814 119.619 104.58 118.148 104.58Z" fill="white" stroke="black" stroke-width="0.429688" stroke-miterlimit="10"/>
<path id="Vector_14" d="M107.914 130.938H95.312C93.0282 130.938 91.0358 129.243 90.4339 126.806L87.0034 112.728H116.223L112.792 126.806C112.198 129.242 110.198 130.938 107.914 130.938Z" fill="white" stroke="black" stroke-width="0.429688" stroke-miterlimit="10"/>
<path id="Vector_15" d="M101.622 104.58C101.622 104.58 102.572 82.7197 98.8076 70.1594" stroke="black" stroke-width="0.429688" stroke-miterlimit="10"/>
<path id="Vector_16" d="M100.727 79.9414L103.929 73.4966" stroke="black" stroke-width="0.429688" stroke-miterlimit="10"/>
<path id="Vector_17" d="M100.953 81.9165L95.7236 76.2977" stroke="black" stroke-width="0.429688" stroke-miterlimit="10"/>
<path id="Vector_18" d="M101.552 90.1873L104.839 83.2065" stroke="black" stroke-width="0.429688" stroke-miterlimit="10"/>
<path id="Vector_19" d="M101.622 91.9756L96.0391 84.6472" stroke="black" stroke-width="0.429688" stroke-miterlimit="10"/>
<path id="Vector_20" d="M101.728 100.382L93.6318 91.9756" stroke="black" stroke-width="0.429688" stroke-miterlimit="10"/>
<path id="Vector_21" d="M108.651 89.3481L101.727 99.0859" stroke="black" stroke-width="0.429688" stroke-miterlimit="10"/>
<path id="Vector_22" d="M101.657 103.546C99.0896 103.415 96.9055 100.405 95.469 98.1697C94.0325 95.934 93.2802 93.1459 93.7949 90.5135C94.3873 87.4747 96.5729 84.8538 96.66 81.7543C96.7233 79.4907 95.6385 77.3287 95.6828 75.0553C95.7161 73.3998 96.4177 71.7198 97.7101 70.7412C99.0024 69.7627 100.892 69.607 102.208 70.5495C103.671 71.5968 104.129 73.6293 104.121 75.4667C104.113 77.3041 103.762 79.1678 104.093 80.9773C104.828 84.9767 108.686 87.7353 109.525 91.7133C110.159 94.6817 108.942 97.7976 107.096 100.161C105.597 102.081 104.031 103.738 101.657 103.546Z" stroke="black" stroke-width="0.429688" stroke-miterlimit="10"/>
<path id="Vector_23" d="M103.971 79.9414C105.678 72.2262 111.316 66.5632 118.668 64.3701C116.554 67.2762 114.452 70.2167 112.851 73.4539C111.25 76.6911 110.159 80.266 110.198 83.9015C110.257 89.3514 112.818 94.4654 113.301 99.8924C113.435 101.407 113.09 103.144 112.583 104.574" stroke="black" stroke-width="0.429688" stroke-miterlimit="10"/>
<path id="Vector_24" d="M122.639 88.4532C122.667 88.4532 122.72 88.4073 122.743 88.3925C122.767 88.3778 122.818 88.3303 122.845 88.3303C122.818 88.3303 122.766 88.3778 122.742 88.3909C122.718 88.404 122.667 88.4532 122.639 88.4532Z" fill="black"/>
<path id="Vector_25" d="M117.573 104.583C122.357 99.7514 128.817 95.5258 135.213 93.4901C128.837 91.0689 121.804 91.2938 115.585 94.1179C114.448 94.6407 113.368 94.9374 112.645 95.9815M26.4233 123.874C26.0852 124.805 25.4999 125.619 24.7348 126.221C23.9696 126.823 23.0557 127.189 22.0983 127.278C21.1408 127.366 20.1787 127.173 19.3226 126.72C18.4666 126.268 17.7514 125.574 17.2594 124.72L7.00909 135.647C5.94161 136.785 7.26567 138.581 8.60715 137.816L26.0923 127.853C26.4265 127.663 26.7102 127.39 26.9182 127.059C27.1262 126.728 27.2521 126.349 27.2848 125.955C27.3176 125.562 27.2561 125.166 27.1058 124.803C26.9555 124.44 26.7211 124.121 26.4233 123.874ZM71.0468 128.358L57.0049 123.905C56.6852 124.797 56.1263 125.575 55.3937 126.15C54.6611 126.724 53.7854 127.07 52.8694 127.147C51.9534 127.224 51.0352 127.029 50.2228 126.584C49.4103 126.14 48.7373 125.464 48.2829 124.638L47.1315 127.137C46.9621 127.504 46.8852 127.909 46.908 128.314C46.9307 128.72 47.0524 129.113 47.2616 129.456C47.4709 129.8 47.7609 130.083 48.1045 130.28C48.4482 130.476 48.8343 130.579 49.2268 130.579L70.7269 130.591C71.9971 130.591 72.2569 128.744 71.0468 128.358Z" stroke="black" stroke-width="0.429688" stroke-miterlimit="10"/>
<path id="Vector_26" d="M48.8306 116.049C48.7879 116.049 48.7483 116.039 48.7071 116.036L48.7198 119.447C48.7198 119.447 51.8636 116.508 57.8551 116.049H48.8275H48.8306ZM20.8037 116.049H20.7467C22.3638 116.354 27.009 117.36 28.3489 119.032L29.654 116.054L20.8037 116.049Z" fill="black"/>
<path id="Vector_27" d="M61.4647 32.6243H47.0996C44.9467 33.553 43.0469 35.0141 41.5668 36.8797C40.0867 38.7452 39.0716 40.9581 38.6105 43.3243L18.927 113.461C18.8425 113.762 18.827 114.08 18.8815 114.388C18.936 114.697 19.0591 114.989 19.2412 115.24C19.4232 115.491 19.6591 115.694 19.9303 115.835C20.2015 115.975 20.5006 116.049 20.8038 116.049H31.5261C32.535 116.049 33.5197 115.729 34.3478 115.133C35.176 114.537 35.8079 113.692 36.1588 112.713L47.9565 79.7988L47.3705 114.516C47.3671 114.717 47.4024 114.916 47.4742 115.103C47.5461 115.289 47.6531 115.459 47.789 115.602C47.9249 115.746 48.087 115.86 48.2659 115.937C48.4447 116.015 48.6367 116.055 48.8307 116.055H59.241C60.1231 116.055 60.9741 115.718 61.6323 115.111C62.2905 114.503 62.7099 113.666 62.8109 112.759C62.8109 112.759 70.2168 49.5708 70.2168 46.2238C70.2169 43.3163 69.386 40.4737 67.8287 38.0538C66.2713 35.6339 64.0571 33.7449 61.4647 32.6243Z" fill="black"/>
<path id="Vector_28" d="M21.2471 112.231L40.5821 43.3177C40.5821 43.3177 42.9578 35.1862 47.0978 32.6178H61.4645C66.6055 34.8404 68.2431 40.092 68.2431 46.2222C68.2431 49.5692 61.0479 111.23 61.0479 111.23" stroke="white" stroke-width="1.19167" stroke-miterlimit="10"/>
<path id="Vector_29" d="M19.2246 112.402L36.7984 110.927" stroke="white" stroke-width="1.19167" stroke-miterlimit="10"/>
<path id="Vector_30" d="M47.4214 111.556L62.9965 111.186" stroke="white" stroke-width="1.19167" stroke-miterlimit="10"/>
<path id="Vector_31" d="M64.8113 16.7088C64.6853 16.4558 64.5451 16.2106 64.3916 15.9745L64.3836 15.9614C63.7418 14.9881 62.88 14.1917 61.8731 13.6415C60.8661 13.0913 59.7446 12.804 58.6059 12.8045H55.961V11.8867H52.5907V12.8045H50.0566C47.8786 12.8052 45.7387 13.3955 43.8493 14.5169C41.96 15.6383 40.3871 17.2517 39.2868 19.197L32.1597 31.8032L38.5535 36.527L45.7645 27.04C46.4723 28.8251 46.9221 30.7084 47.0996 32.6293H61.5803C61.6644 31.7598 61.803 30.8969 61.9953 30.0461L67.4229 37.1122L70.6682 26.9498L64.8113 16.7088Z" stroke="black" stroke-width="0.429688" stroke-miterlimit="10"/>
<path id="Vector_32" d="M56.1415 5.50569C55.5507 4.7304 54.5893 4.32227 54.0192 3.53879C53.997 3.53879 53.9764 3.53879 53.9542 3.54862C53.5409 4.20426 52.8963 4.68451 52.3625 5.25163C52.106 5.52244 51.8922 5.83329 51.729 6.1728V7.81188C51.729 8.51235 51.9978 9.18416 52.4762 9.67962C52.9547 10.1751 53.6037 10.4536 54.2805 10.4541C54.9573 10.4536 55.6063 10.1751 56.0848 9.67962C56.5632 9.18416 56.832 8.51235 56.832 7.81188V7.26443C56.7464 6.62796 56.5091 6.02354 56.1415 5.50569Z" fill="white" stroke="black" stroke-width="0.429688" stroke-miterlimit="10"/>
<path id="Vector_33" d="M54.2744 10.4459C53.6546 10.4478 53.0557 10.2145 52.5908 9.79026C53.4191 11.4179 55.9596 10.9376 55.9596 10.9376V9.79026C55.4939 10.2141 54.8946 10.4473 54.2744 10.4459Z" fill="black"/>
<path id="Vector_34" d="M54.2744 10.4459C53.6546 10.4478 53.0557 10.2145 52.5908 9.79026V11.8916H55.9596V9.78534C55.4946 10.2111 54.8952 10.4461 54.2744 10.4459Z" fill="white" stroke="black" stroke-width="0.429688" stroke-miterlimit="10"/>
<path id="Vector_35" d="M61.9888 30.0362C62.0616 29.592 62.163 29.1544 62.2707 28.7249C62.3784 28.2955 62.5193 27.8612 62.6666 27.4366C62.9626 26.5869 63.3271 25.7645 63.7563 24.978C63.9701 24.5863 64.2124 24.2027 64.4452 23.8306C64.6754 23.457 64.8746 23.0638 65.0408 22.6554C65.3678 21.8283 65.5579 20.95 65.603 20.0575C65.6244 20.5087 65.6037 20.961 65.5412 21.4081C65.4702 21.8548 65.3594 22.2938 65.2102 22.7193C65.0595 23.148 64.8674 23.5598 64.6369 23.9487C64.4041 24.3322 64.1728 24.7026 63.9638 25.096C63.5395 25.8734 63.1629 26.6776 62.8361 27.5038C62.6777 27.9169 62.5193 28.3365 62.3815 28.761C62.2438 29.1855 62.1139 29.6051 61.9888 30.0362Z" fill="black"/>
<path id="Vector_36" d="M70.6062 27.1269L70.5809 27.081L67.9961 35.1748L68.8308 36.2615L70.6062 27.1269Z" fill="black"/>
<path id="Vector_37" d="M45.7644 27.0351C45.8506 26.8445 45.9507 26.6609 46.0638 26.486C46.173 26.3106 46.2934 26.1434 46.4154 25.9795C46.5373 25.8156 46.6704 25.6517 46.8081 25.5058C46.9458 25.3501 47.0951 25.206 47.2548 25.0747C47.1686 25.2657 47.068 25.4493 46.9539 25.6238C46.8446 25.7992 46.7258 25.9664 46.6022 26.1303C46.4787 26.2942 46.3488 26.4581 46.2095 26.604C46.072 26.7593 45.9232 26.9034 45.7644 27.0351ZM59.96 6.32032C60.0091 4.12559 59.3661 2.23736 57.4877 1.21621C56.1383 0.48354 54.4943 0.590081 53.0372 1.0523C51.0179 1.68827 49.0777 3.14378 48.5503 5.25983C48.4379 5.72042 48.3919 6.20067 48.2621 6.65633C47.9944 7.58897 47.3799 8.36426 46.7796 9.11496C46.2522 9.77059 45.7153 10.441 45.0375 10.9376C44.3311 11.4588 43.5043 11.7703 42.7235 12.1637C41.5547 12.7521 40.4508 13.5618 39.746 14.6928C39.0412 15.8237 38.7957 17.3153 39.3421 18.5397C39.389 18.6456 39.4419 18.7484 39.5005 18.8478C39.9232 18.1506 40.4101 17.4974 40.9544 16.8973C41.1318 16.7023 41.3124 16.5138 41.4992 16.3318L41.5183 16.3138C41.702 16.1368 41.8894 15.9652 42.0805 15.7991L42.1185 15.768C42.3054 15.6096 42.496 15.456 42.6903 15.3074L42.7536 15.2599C42.9421 15.1189 43.1321 14.9829 43.3285 14.855L43.4236 14.7927C43.6105 14.6715 43.7989 14.5534 43.9921 14.4436L44.1252 14.3699C44.3073 14.2682 44.4926 14.1683 44.6811 14.0748C44.7381 14.0453 44.7983 14.0207 44.8553 13.9929C45.0343 13.9076 45.2117 13.829 45.3938 13.7503C45.4667 13.7191 45.5411 13.6929 45.614 13.6634C45.7834 13.5962 45.9545 13.529 46.1271 13.47C46.2174 13.4389 46.3092 13.4143 46.3995 13.3848C46.5579 13.334 46.7163 13.2815 46.8747 13.2373C46.9839 13.2078 47.0948 13.1848 47.2057 13.1569C47.353 13.1225 47.4987 13.0848 47.6476 13.0537C47.7964 13.0225 47.9136 13.0078 48.0467 12.9848C48.1797 12.9619 48.3048 12.9373 48.4347 12.9209C48.5931 12.898 48.7657 12.8849 48.932 12.8685C49.0334 12.8603 49.1347 12.8455 49.2377 12.839C49.5069 12.8209 49.7793 12.8111 50.0518 12.8111H52.5858V9.78535C52.3142 9.53754 52.0968 9.23256 51.9482 8.89082C51.7997 8.54907 51.7233 8.17843 51.7243 7.80369V6.16461C51.8875 5.8251 52.1013 5.51425 52.3578 5.24344C52.8915 4.67632 53.5361 4.20426 53.9495 3.54043C53.9717 3.54043 53.9923 3.54043 54.0144 3.5306C54.5846 4.319 55.546 4.72713 56.1367 5.4975C56.5009 6.01363 56.736 6.61503 56.8209 7.24804V7.7955C56.8211 8.17058 56.7439 8.54138 56.5945 8.88312C56.4451 9.22486 56.2269 9.52966 55.9546 9.77715V12.7963H58.5995C58.7547 12.7963 58.9084 12.8013 59.0604 12.8111L59.1697 12.8226C59.2853 12.8324 59.4009 12.8422 59.515 12.8586L59.6195 12.875C59.7351 12.893 59.8507 12.9111 59.9648 12.9357L60.0471 12.9537C60.1675 12.9799 60.2879 13.0094 60.4066 13.0422L60.4637 13.0586C60.5904 13.0947 60.7155 13.134 60.8406 13.1782L60.8739 13.1897C61.0037 13.2373 61.1336 13.2881 61.2619 13.3422H61.2761C61.4092 13.3995 61.5406 13.4602 61.6689 13.5257C61.8004 13.5929 61.9303 13.6634 62.057 13.7388C61.0687 11.3146 59.8903 8.93302 59.96 6.32032Z" fill="black"/>
<path id="Vector_38" d="M47.7646 80.3315C48.3633 78.4739 48.9805 76.625 49.6161 74.7849C50.2496 72.9409 50.9006 71.1051 51.5547 69.2693C52.2088 67.4336 52.8772 65.606 53.5598 63.7817C54.2424 61.9574 54.9298 60.1298 55.6472 58.3268C55.0507 60.1844 54.4335 62.0333 53.7958 63.8735C53.158 65.7136 52.5118 67.5521 51.8572 69.389C51.1967 71.2215 50.5331 73.0523 49.8521 74.8766C49.1711 76.7009 48.4774 78.5203 47.7646 80.3315Z" fill="white"/>
<path id="Vector_39" d="M33.0023 32.4293L22.2531 51.4427L13.4757 57.9285C13.3616 58.017 13.2803 58.1433 13.2453 58.2862C13.2102 58.4292 13.2235 58.5803 13.2829 58.7143C13.3423 58.8484 13.4442 58.9574 13.5718 59.0232C13.6994 59.0889 13.8449 59.1075 13.9841 59.0759L21.3155 57.2614C21.4346 57.2321 21.5595 57.2397 21.6744 57.2835C21.7893 57.3272 21.8893 57.4051 21.9616 57.5073L23.3744 59.4988C23.4508 59.6055 23.5572 59.6853 23.679 59.7272C23.8008 59.7691 23.9322 59.7711 24.0551 59.7329C24.1781 59.6947 24.2867 59.6182 24.3661 59.5139C24.4455 59.4095 24.4919 59.2823 24.4989 59.1496L24.7998 53.1785L37.8503 36.0091L33.0023 32.4293Z" fill="white" stroke="black" stroke-width="0.429688" stroke-miterlimit="10"/>
<path id="Vector_40" d="M50.063 12.8045C49.8317 12.8045 49.6021 12.8045 49.374 12.8275C49.6021 12.8144 49.8317 12.8045 50.063 12.8045Z" stroke="black" stroke-width="0.429688" stroke-miterlimit="10"/>
<path id="Vector_41" d="M33.0025 32.4293L32.8916 32.6243L37.0221 37.1072L37.8568 36.0074L33.0025 32.4293Z" fill="black"/>
<path id="Vector_42" d="M83.1041 4.23704L76.8323 8.56259C76.7295 8.63172 76.6096 8.66851 76.487 8.66851C76.3644 8.66851 76.2445 8.63172 76.1417 8.56259L74.1493 7.20051C74.0423 7.12675 73.9157 7.08913 73.7872 7.09281C73.6586 7.09649 73.5343 7.1413 73.4314 7.22108C73.3284 7.30086 73.2518 7.41168 73.2122 7.53832C73.1726 7.66495 73.1719 7.80118 73.2101 7.92826L74.9159 13.6421L70.6681 26.9466L67.9551 35.4452L67.9963 35.4993L68.0374 35.3682L69.5769 37.3711C69.8852 37.772 70.2987 38.0723 70.7677 38.236C71.2368 38.3998 71.7415 38.4201 72.2214 38.2945C72.7014 38.1689 73.1361 37.9028 73.4736 37.5279C73.811 37.1531 74.0368 36.6855 74.124 36.1812L74.4803 34.1192L77.8918 14.3568L83.9641 5.13526C84.0453 5.0117 84.0825 4.86276 84.0693 4.71394C84.0561 4.56513 83.9932 4.42571 83.8916 4.31955C83.79 4.2134 83.6558 4.14712 83.5122 4.13207C83.3685 4.11702 83.2243 4.15413 83.1041 4.23704Z" fill="white" stroke="black" stroke-width="0.429688" stroke-miterlimit="10"/>
<path id="Vector_43" d="M81.7389 99.004C85.2613 99.5613 89.5677 102.226 92.3108 104.577M81.7421 99.004C78.2213 98.4467 74.4867 99.0859 71.4648 101.041C73.6948 98.5155 76.7991 96.9355 80.0174 96.1487C80.6338 95.9996 81.2577 95.8858 81.8862 95.8078C84.65 95.4586 87.6687 95.6619 90.3516 95.8078" stroke="black" stroke-width="0.429688" stroke-miterlimit="10"/>
<path id="Vector_44" d="M94.4869 88.3106C91.2449 85.9765 87.3598 83.6507 83.5254 82.6983C79.691 81.746 75.5082 81.8788 71.9399 83.6375C73.3907 83.5687 74.7623 84.2653 76.0436 84.9734C80.7506 87.573 85.2898 90.5938 89.0766 94.4801C91.9037 97.3829 94.3032 100.799 95.8601 104.577" stroke="black" stroke-width="0.429688" stroke-miterlimit="10"/>
<path id="Vector_45" d="M80.1406 12.3521H73.5615C73.4512 12.3522 73.3422 12.3268 73.2425 12.278C73.1428 12.2292 73.0547 12.1581 72.9847 12.0699C72.9148 11.9816 72.8645 11.8784 72.8378 11.7676C72.811 11.6568 72.8083 11.5413 72.8298 11.4293L74.9109 0.621213C74.9449 0.446198 75.0363 0.288732 75.1697 0.175511C75.303 0.06229 75.4701 0.000282663 75.6426 9.15156e-09H82.2217C82.3321 -1.75703e-05 82.441 0.0252917 82.5407 0.0741035C82.6405 0.122915 82.7285 0.194014 82.7985 0.282278C82.8685 0.370542 82.9187 0.473774 82.9455 0.584534C82.9723 0.695294 82.975 0.810825 82.9534 0.922804L80.866 11.7309C80.8322 11.9048 80.7417 12.0615 80.6097 12.1746C80.4776 12.2877 80.312 12.3504 80.1406 12.3521Z" fill="black"/>
<path id="Vector_46" d="M77.4168 8.05446L75.2739 5.83842L75.9835 5.10411L77.4168 6.58748L80.1805 3.72728L80.8901 4.46159L77.4168 8.05446Z" fill="#E67E22"/>
</g>
</g>
</svg>
